<?xml version="1.0" encoding="UTF-8"?><svg xmlns="http://www.w3.org/2000/svg" xmlns:xlink="http://www.w3.org/1999/xlink" viewBox="0 0 1369.04 770"><defs><style>.f{fill:#f9ed12;}.g{fill:#f9dd10;}.h{fill:#e8a0b1;}.i,.j{fill:#fff;}.k{fill:#f4e4d3;}.l{fill:#ead8c7;}.m{fill:#ffb8c1;}.n{fill:#fca8b8;}.o{fill:#fb9fb1;}.p{fill:#fcecd9;}.q{fill:#e5b829;}.r{fill:#9eccca;}.s{fill:#8dbc0c;}.t{fill:#cebbae;}.u{fill:#b2582b;}.v{fill:#aa133f;}.w{fill:#a6e8ed;}.x{fill:#d6f2f0;}.y{fill:#bee239;}.a`{fill:#cbe533;}.aa{fill:#d2466a;}.ab{fill:#de859e;}.ac{fill:#ddcaba;}.ad{fill:#d3c3b2;}.ae{fill:#c6ba7b;}.af{fill:#443d37;}.ag{fill:#4a6b02;}.j{filter:url(#d);}.j,.ah{opacity:.37;}.ai{opacity:.16;}</style><filter id="d" filterUnits="userSpaceOnUse"><feOffset dx="0" dy="0"/><feGaussianBlur result="e" stdDeviation="5"/><feFlood flood-color="#f2f2d7" flood-opacity=".75"/><feComposite in2="e" operator="in"/><feComposite in="SourceGraphic"/></filter></defs><g id="a"/><g id="b"><g id="c"><g><g><rect class="w" x="2.19" y=".5" width="1366" height="482"/><path d="M1368.69,483H1.69V0H1368.69V483ZM2.69,482H1367.69V1H2.69V482Z"/></g><g><rect class="s" x="255.02" y="278" width="848" height="204"/><path d="M1103.52,482.5H254.52v-205h849v205Zm-848-1h847v-203H255.52v203Z"/></g><g><path class="i" d="M634.52,169.75c0-19.88-16.12-36-36-36-9.49,0-18.12,3.68-24.55,9.68-7.52-19.13-26.15-32.68-47.95-32.68-26.02,0-47.52,19.29-51,44.35-1.63-.23-3.3-.35-5-.35-19.88,0-36,16.12-36,36s16.12,36,36,36c4.95,0,9.66-1,13.95-2.81,4.86,14.14,18.26,24.31,34.05,24.31,14.11,0,26.31-8.12,32.21-19.93,5.68,3.74,12.48,5.93,19.79,5.93,17.54,0,32.15-12.55,35.34-29.16,16.61-3.2,29.16-17.8,29.16-35.34Z"/><path d="M526.02,111.75c10.35,0,20.29,3.11,28.76,8.99,8.28,5.75,14.59,13.72,18.26,23.06l.54,1.37,1.08-1c6.5-6.07,14.98-9.41,23.87-9.41,19.3,0,35,15.7,35,35,0,16.75-11.92,31.2-28.35,34.36l-.66,.13-.13,.66c-3.16,16.43-17.61,28.35-34.36,28.35-6.87,0-13.52-1.99-19.24-5.76l-.94-.62-.5,1.01c-5.97,11.95-17.98,19.38-31.32,19.38-14.94,0-28.25-9.5-33.1-23.63l-.35-1.01-.99,.42c-4.3,1.81-8.86,2.73-13.57,2.73-19.3,0-35-15.7-35-35s15.7-35,35-35c1.58,0,3.22,.12,4.86,.34l.99,.14,.14-.99c1.66-11.96,7.6-22.95,16.72-30.96,9.21-8.08,21.03-12.53,33.29-12.53m0-1c-26.02,0-47.52,19.29-51,44.35-1.63-.23-3.3-.35-5-.35-19.88,0-36,16.12-36,36s16.12,36,36,36c4.95,0,9.66-1,13.95-2.81,4.86,14.14,18.26,24.31,34.05,24.31,14.11,0,26.31-8.12,32.21-19.93,5.68,3.74,12.48,5.93,19.79,5.93,17.54,0,32.15-12.55,35.34-29.16,16.61-3.2,29.16-17.8,29.16-35.34,0-19.88-16.12-36-36-36-9.49,0-18.12,3.68-24.55,9.68-7.52-19.13-26.15-32.68-47.95-32.68h0Z"/></g><g><path class="i" d="M838.63,128.6c-1.7-13.39-13.12-23.74-26.97-23.74-9.43,0-17.73,4.8-22.61,12.09-2.9-2.28-6.55-3.64-10.52-3.64-8.13,0-14.93,5.7-16.62,13.33-2.1-.93-4.43-1.45-6.87-1.45-9.4,0-17.02,7.62-17.02,17.02s7.62,17.03,17.02,17.03c4.46,0,8.51-1.71,11.55-4.52,3.07,4.48,8.22,7.42,14.06,7.42,6.24,0,11.7-3.36,14.66-8.37,4.55,3.43,10.21,5.47,16.35,5.47,3.8,0,7.41-.78,10.7-2.19,3.09,3.14,7.38,5.09,12.14,5.09,9.4,0,17.02-7.62,17.02-17.03,0-7.98-5.48-14.67-12.89-16.52Z"/><path d="M811.66,105.86c13.16,0,24.33,9.83,25.98,22.86l.09,.68,.66,.17c7.14,1.78,12.13,8.18,12.13,15.55,0,8.84-7.19,16.02-16.03,16.02-4.33,0-8.39-1.7-11.42-4.79l-.48-.49-.63,.27c-3.26,1.4-6.73,2.11-10.3,2.11-5.74,0-11.18-1.82-15.75-5.27l-.89-.67-.57,.96c-2.88,4.86-8.16,7.88-13.8,7.88-5.29,0-10.24-2.61-13.23-6.99l-.65-.95-.85,.79c-2.97,2.74-6.83,4.25-10.87,4.25-8.84,0-16.03-7.19-16.03-16.03s7.19-16.03,16.03-16.03c2.24,0,4.42,.46,6.47,1.36l1.12,.49,.26-1.19c1.61-7.27,8.19-12.54,15.64-12.54,3.63,0,7.05,1.19,9.9,3.43l.85,.67,.6-.9c4.88-7.29,13.02-11.64,21.78-11.64m0-1c-9.43,0-17.73,4.8-22.61,12.09-2.9-2.28-6.55-3.64-10.52-3.64-8.13,0-14.93,5.7-16.62,13.33-2.1-.93-4.43-1.45-6.87-1.45-9.4,0-17.03,7.62-17.03,17.03s7.62,17.03,17.03,17.03c4.46,0,8.51-1.71,11.55-4.52,3.07,4.48,8.22,7.42,14.06,7.42,6.24,0,11.7-3.36,14.66-8.37,4.55,3.43,10.21,5.47,16.35,5.47,3.8,0,7.41-.78,10.7-2.19,3.09,3.14,7.38,5.09,12.14,5.09,9.4,0,17.03-7.62,17.03-17.02,0-7.98-5.48-14.67-12.89-16.52-1.7-13.39-13.12-23.74-26.97-23.74h0Z"/></g><g><path class="i" d="M758.03,82.65c-.99-7.78-7.63-13.8-15.68-13.8-5.48,0-10.31,2.79-13.15,7.03-1.68-1.32-3.81-2.12-6.11-2.12-4.73,0-8.68,3.32-9.66,7.75-1.22-.54-2.57-.84-4-.84-5.47,0-9.9,4.43-9.9,9.9s4.43,9.9,9.9,9.9c2.59,0,4.95-1,6.71-2.63,1.78,2.61,4.78,4.32,8.17,4.32,3.63,0,6.8-1.95,8.53-4.87,2.65,2,5.94,3.18,9.51,3.18,2.21,0,4.31-.45,6.22-1.27,1.8,1.83,4.29,2.96,7.06,2.96,5.47,0,9.9-4.43,9.9-9.9,0-4.64-3.19-8.53-7.49-9.6Z"/><path d="M742.34,69.85c7.44,0,13.76,5.56,14.69,12.93l.09,.68,.66,.17c3.97,.99,6.74,4.54,6.74,8.63,0,4.91-3.99,8.9-8.9,8.9-2.4,0-4.66-.94-6.34-2.66l-.48-.49-.63,.27c-1.84,.79-3.8,1.19-5.83,1.19-3.24,0-6.32-1.03-8.91-2.98l-.89-.67-.57,.96c-1.6,2.7-4.53,4.38-7.66,4.38-2.94,0-5.69-1.45-7.35-3.88l-.65-.95-.85,.79c-1.65,1.52-3.79,2.36-6.04,2.36-4.91,0-8.9-3.99-8.9-8.9s3.99-8.9,8.9-8.9c1.25,0,2.46,.25,3.59,.76l1.12,.49,.26-1.19c.89-4.04,4.55-6.97,8.69-6.97,2.01,0,3.91,.66,5.5,1.9l.85,.67,.6-.9c2.76-4.12,7.36-6.59,12.32-6.59m0-1c-5.48,0-10.31,2.79-13.15,7.03-1.68-1.32-3.81-2.12-6.11-2.12-4.73,0-8.68,3.32-9.66,7.75-1.22-.54-2.57-.84-4-.84-5.47,0-9.9,4.43-9.9,9.9s4.43,9.9,9.9,9.9c2.59,0,4.95-1,6.71-2.63,1.78,2.61,4.78,4.32,8.17,4.32,3.63,0,6.8-1.95,8.53-4.87,2.65,2,5.94,3.18,9.51,3.18,2.21,0,4.31-.45,6.22-1.27,1.8,1.83,4.29,2.96,7.06,2.96,5.47,0,9.9-4.43,9.9-9.9,0-4.64-3.19-8.53-7.49-9.6-.99-7.78-7.63-13.8-15.68-13.8h0Z"/></g><g><path class="i" d="M813.03,234.65c-.99-7.78-7.63-13.8-15.68-13.8-5.48,0-10.31,2.79-13.15,7.03-1.68-1.32-3.81-2.12-6.11-2.12-4.73,0-8.68,3.32-9.66,7.75-1.22-.54-2.57-.84-4-.84-5.47,0-9.9,4.43-9.9,9.9s4.43,9.9,9.9,9.9c2.59,0,4.95-1,6.71-2.63,1.78,2.61,4.78,4.32,8.17,4.32,3.63,0,6.8-1.95,8.53-4.87,2.65,2,5.94,3.18,9.51,3.18,2.21,0,4.31-.45,6.22-1.27,1.8,1.83,4.29,2.96,7.06,2.96,5.47,0,9.9-4.43,9.9-9.9,0-4.64-3.19-8.53-7.49-9.6Z"/><path d="M797.34,221.85c7.44,0,13.76,5.56,14.69,12.93l.09,.68,.66,.17c3.97,.99,6.74,4.54,6.74,8.63,0,4.91-3.99,8.9-8.9,8.9-2.4,0-4.66-.94-6.34-2.66l-.48-.49-.63,.27c-1.84,.79-3.8,1.19-5.83,1.19-3.24,0-6.32-1.03-8.91-2.98l-.89-.67-.57,.96c-1.6,2.7-4.53,4.38-7.66,4.38-2.94,0-5.69-1.45-7.35-3.88l-.65-.95-.85,.79c-1.65,1.52-3.79,2.36-6.04,2.36-4.91,0-8.9-3.99-8.9-8.9s3.99-8.9,8.9-8.9c1.25,0,2.46,.25,3.59,.76l1.12,.49,.26-1.19c.89-4.04,4.55-6.97,8.69-6.97,2.01,0,3.91,.66,5.5,1.9l.85,.67,.6-.9c2.76-4.12,7.36-6.59,12.32-6.59m0-1c-5.48,0-10.31,2.79-13.15,7.03-1.68-1.32-3.81-2.12-6.11-2.12-4.73,0-8.68,3.32-9.66,7.75-1.22-.54-2.57-.84-4-.84-5.47,0-9.9,4.43-9.9,9.9s4.43,9.9,9.9,9.9c2.59,0,4.95-1,6.71-2.63,1.78,2.61,4.78,4.32,8.17,4.32,3.63,0,6.8-1.95,8.53-4.87,2.65,2,5.94,3.18,9.51,3.18,2.21,0,4.31-.45,6.22-1.27,1.8,1.83,4.29,2.96,7.06,2.96,5.47,0,9.9-4.43,9.9-9.9,0-4.64-3.19-8.53-7.49-9.6-.99-7.78-7.63-13.8-15.68-13.8h0Z"/></g><g><path class="s" d="M883.02,293s18-6,19-15l2,12s13-13.15,0-40.07c0,0,15,23.07,14,32.07,0,0,5-3,5-8,0,0,2,4,1,12"/><path d="M883.18,293.47l-.32-.95c.18-.06,17.71-6,18.66-14.58l.4-3.58,2.41,14.47c2.44-3.23,10.15-16.09-.76-38.7l.87-.49c.59,.91,14.04,21.71,14.13,31.35,1.36-1.06,3.95-3.55,3.95-7v-2.12l.95,1.89c.08,.17,2.06,4.23,1.05,12.29l-.99-.12c.57-4.58,.14-7.83-.31-9.73-1.1,3.87-4.75,6.11-4.93,6.22l-.87,.52,.11-1c.66-5.97-6.04-18.55-10.38-25.96,8.32,22.76-2.64,34.24-2.76,34.36l-.69,.7-1.78-10.69c-3.31,7.89-18.05,12.89-18.73,13.11Z"/></g><g><path class="s" d="M703.02,471s18-6,19-15l2,12s13-13.15,0-40.07c0,0,15,23.07,14,32.07,0,0,5-3,5-8,0,0,2,4,1,12"/><path d="M703.18,471.47l-.32-.95c.18-.06,17.71-6,18.66-14.58l.4-3.58,2.41,14.47c2.44-3.23,10.15-16.09-.76-38.7l.87-.49c.59,.91,14.04,21.71,14.13,31.34,1.36-1.06,3.95-3.55,3.95-7v-2.12l.95,1.89c.08,.17,2.06,4.23,1.05,12.29l-.99-.12c.57-4.57,.14-7.83-.31-9.73-1.1,3.87-4.75,6.11-4.93,6.22l-.87,.52,.11-1c.66-5.97-6.04-18.55-10.38-25.96,8.32,22.76-2.64,34.24-2.76,34.36l-.69,.7-1.78-10.69c-3.31,7.89-18.05,12.89-18.73,13.12Z"/></g><g><path class="s" d="M566.02,356s9-2,9-16c0,0,5.01,10,4,16s12-23,10-34c0,0,6,19,3,25l8-13v19.42"/><path d="M579.08,357.31c-.11,0-.21-.03-.31-.09-.38-.25-.32-.78-.24-1.3,.71-4.22-1.72-10.62-3.08-13.78-.87,12.33-9.23,14.33-9.32,14.35l-.22-.98c.35-.08,8.61-2.11,8.61-15.51v-2.12l.95,1.89c.2,.4,4.64,9.35,4.15,15.46,2.66-4.95,10.46-24.6,8.91-33.15l.97-.24c.21,.67,4.52,14.44,3.77,22.16l7.25-11.78v21.19h-1v-17.66l-7.07,11.5-.87-.49c2.05-4.11-.34-14.8-1.9-20.66-.71,11.24-8.61,29.99-10.22,31.07-.12,.08-.25,.12-.37,.12Z"/></g><g><path class="y" d="M448.97,242.79c12.62-4.18,24.64,8.75,28.59,21.45s4.21,27.08,12.31,37.62c3.68,4.79,8.7,8.35,12.98,12.62,15.15,15.08,20.16,37.71,33.54,54.37,8.53,10.63,20.42,18.53,33.53,22.28,7.61,2.18,17.91,6.16,16.24,13.9-1.31,6.08-9.16,7.59-15.37,7.82-11.49,.43-22.99,.85-34.48,1.28-2.11,.08-4.33,.19-6.12,1.3-3.69,2.3-3.81,7.98-1.39,11.6s6.53,5.65,10.45,7.52c-4.77,3.46-2.02,11.45,2.8,14.85s11.05,4.58,15.43,8.53c6.91,6.23,6.21,18.89-1.35,24.32H242.19v-142.85l206.78-96.61Z"/><path d="M556.29,482.76H241.69v-143.67l207.12-96.77c4.29-1.42,8.88-.98,13.26,1.27,6.93,3.56,13.19,11.61,15.97,20.51,1.27,4.07,2.17,8.37,3.04,12.53,1.84,8.77,3.74,17.84,9.19,24.94,2.33,3.04,5.27,5.63,8.12,8.14,1.61,1.42,3.27,2.88,4.81,4.42,8.4,8.36,13.79,19.19,18.99,29.66,4.23,8.51,8.61,17.31,14.58,24.76,8.46,10.54,20.28,18.39,33.27,22.12,4.59,1.32,18.57,5.32,16.59,14.49-1.37,6.36-9.37,7.98-15.84,8.22l-34.48,1.28c-1.94,.07-4.15,.15-5.87,1.23-1.68,1.04-2.34,2.7-2.6,3.91-.5,2.31,.02,4.99,1.36,6.99,2.41,3.6,6.76,5.68,10.25,7.35l.76,.36-.68,.49c-1.9,1.38-2.29,3.38-2.28,4.82,.02,3.29,2.16,7.16,5.07,9.21,2.09,1.47,4.51,2.55,6.84,3.59,3.01,1.34,6.13,2.73,8.63,4.99,3.36,3.03,5.19,7.83,4.91,12.86-.28,5.03-2.64,9.6-6.31,12.24l-.13,.09Zm-313.6-1h313.27c3.35-2.48,5.5-6.72,5.76-11.39,.26-4.73-1.45-9.23-4.58-12.06-2.39-2.15-5.43-3.51-8.37-4.81-2.38-1.06-4.84-2.16-7.01-3.68-3.21-2.26-5.47-6.38-5.5-10.03-.02-2.09,.69-3.85,2.06-5.12-3.47-1.67-7.55-3.77-9.95-7.36-1.48-2.22-2.06-5.19-1.51-7.75,.43-2,1.49-3.57,3.05-4.55,1.95-1.21,4.4-1.3,6.36-1.38l34.48-1.28c6.12-.23,13.67-1.7,14.9-7.43,1.19-5.55-4-9.91-15.89-13.32-13.19-3.78-25.19-11.75-33.78-22.45-6.05-7.53-10.44-16.38-14.7-24.94-5.17-10.4-10.51-21.15-18.8-29.39-1.52-1.52-3.18-2.97-4.77-4.38-2.88-2.54-5.86-5.17-8.25-8.28-5.59-7.27-7.51-16.46-9.37-25.34-.87-4.14-1.76-8.41-3.02-12.44-2.69-8.66-8.77-16.47-15.47-19.91-4.19-2.15-8.38-2.56-12.46-1.22l-206.46,96.47v142.04Z"/></g><g><path class="y" d="M449.65,400.18c5.49-3.18,10.92-4.1,12.11-2.04,.06,.1,.1,.21,.13,.32l.04-.03c10.99-6.37,21.83-8.2,24.21-4.09,1.76,3.04-1.59,8.46-7.89,13.66,2.35-.45,4.14-.2,4.76,.88,1.19,2.05-2.3,6.3-7.79,9.49-.5,.29-1.01,.56-1.51,.81,.12,2.23-3.16,5.87-8.02,8.69-.15,.09-.29,.17-.44,.24"/><path d="M465.49,428.56l-.46-.89c.12-.06,.25-.14,.37-.21,5.22-3.02,7.91-6.5,7.81-8.25l-.02-.33,.29-.15c.49-.25,.99-.51,1.48-.79,2.61-1.51,4.83-3.3,6.27-5.05,1.31-1.6,1.8-2.96,1.34-3.75-.47-.82-2.06-1.06-4.23-.64l-1.93,.37,1.51-1.25c6.2-5.12,9.33-10.36,7.78-13.03-1.02-1.77-4.07-2.37-8.36-1.64-4.52,.76-9.9,2.86-15.17,5.91l-.56,.32-.22-.59c-.03-.09-.05-.16-.08-.21-.9-1.55-5.81-1.02-11.42,2.23l-.5-.87c5.71-3.31,11.23-4.16,12.71-1.99,5.26-2.99,10.58-5.03,15.07-5.79,4.79-.81,8.13-.05,9.39,2.13,1.74,3-.83,7.99-6.73,13.21,1.79-.08,3.04,.37,3.6,1.33,.69,1.19,.18,2.92-1.44,4.89-1.51,1.84-3.83,3.71-6.54,5.28-.42,.24-.84,.47-1.26,.69-.16,2.48-3.48,6.04-8.26,8.81-.18,.11-.32,.19-.46,.26Z"/></g><g><path class="y" d="M382.91,313.39c2.33-1.35,4.97-1.14,5.9,.46,.05,.08,.08,.16,.12,.24h.02c4.66-2.71,9.94-2.29,11.8,.91,1.37,2.37,.49,5.6-1.94,8.22,1.14,.05,2.09,.5,2.58,1.34,.93,1.6-.2,4-2.53,5.35-.21,.12-.43,.23-.65,.33,.41,1.56-.71,3.57-2.77,4.76-.06,.04-.12,.07-.19,.1"/><path d="M395.47,335.56l-.43-.9s.1-.05,.15-.08c1.8-1.04,2.89-2.85,2.54-4.2l-.11-.41,.39-.17c.2-.09,.4-.19,.6-.3,1.04-.6,1.85-1.44,2.29-2.36,.41-.86,.43-1.68,.06-2.31-.38-.66-1.15-1.05-2.17-1.09l-1.08-.05,.73-.79c2.35-2.54,3.09-5.53,1.87-7.63-.81-1.41-2.4-2.27-4.46-2.43-2.13-.17-4.5,.43-6.66,1.69l-.5,.29-.23-.52c-.03-.06-.05-.12-.09-.18-.79-1.36-3.13-1.49-5.22-.28l-.5-.87c2.47-1.43,5.31-1.21,6.47,.46,2.23-1.19,4.63-1.75,6.81-1.58,2.4,.19,4.26,1.23,5.25,2.93,1.33,2.29,.77,5.4-1.4,8.11,.91,.23,1.63,.74,2.04,1.46,.53,.92,.53,2.07-.03,3.23-.52,1.1-1.48,2.1-2.69,2.8-.11,.06-.22,.12-.34,.18,.2,1.72-1.04,3.72-3.08,4.91-.07,.04-.15,.09-.22,.12Z"/></g><g><path class="ae" d="M707.63,279.55c-3.17,12.3-17.04,18.25-29.48,20.81-12.44,2.56-26.25,4.04-35.06,13.19-12.01,12.47-8.23,34.5,4.15,46.6s30.53,16.19,47.81,17.24c45.36,2.77,91.72-11.54,135.81-.52,4.26,1.07,8.71,2.51,11.59,5.82,2.77,3.19,3.65,7.62,3.69,11.84,.07,9.06-3.4,18.11-9.52,24.79-6.75,7.37-16.85,12.47-19.76,22.02-3.47,11.41,5.23,22.85,14.44,30.44,5.61,4.63,7.37,6.66,13.72,10.2h153.05c-20.29,1.6-38.39-1.38-58.41-4.99-14.86-2.67-32.72-8.11-35.85-22.87-1.93-9.09,2.95-18.28,9-25.33,19.95-23.24,52.68-32.37,72.68-55.57,3.98-4.62,7.51-11.13,4.66-16.52-1.37-2.59-3.95-4.28-6.51-5.71-13.52-7.5-29.07-10.36-44.37-12.61-24.58-3.62-49.36-5.94-74.19-6.95-12.57-.51-25.16-.69-37.74-.54-5.17,.06-10.72,1.28-15.33-1.06-4.01-2.04-8.1-5.69-9.33-10.14-3.39-12.24,13.47-20.2,22.22-25.71,10.67-6.72,22.12-12.19,34.07-16.21,0,0-167.26-.36-151.36,1.76Z"/><path d="M986.72,482.94c-3.97,0-7.89-.16-11.81-.44h-130.01l-.11-.06c-4.99-2.78-7.2-4.66-10.55-7.51-.96-.81-2.01-1.71-3.25-2.73-5.77-4.76-18.75-17.31-14.6-30.97,2-6.58,7.39-11.14,12.6-15.54,2.5-2.11,5.08-4.29,7.26-6.67,6.04-6.59,9.46-15.51,9.39-24.45-.04-4.97-1.24-8.85-3.57-11.52-2.77-3.18-7.09-4.61-11.33-5.67-26.22-6.55-53.8-4.07-80.47-1.67-18.15,1.63-36.91,3.32-55.25,2.2-21.78-1.33-37.53-7.02-48.13-17.38-6.2-6.06-10.35-14.62-11.37-23.46-1.09-9.42,1.47-17.89,7.21-23.84,7.73-8.02,19.16-10.21,30.22-12.33,1.71-.33,3.42-.65,5.1-1,9.27-1.91,25.23-7.03,28.95-19.91-.56-.1-.96-.27-.93-.72,.05-.82,.11-1.6,76.75-1.89,37.66-.14,75.79-.06,76.17-.06h3.03l-2.88,.97c-11.84,3.98-23.27,9.42-33.97,16.16-1.12,.7-2.37,1.45-3.69,2.24-8.94,5.32-21.18,12.61-18.32,22.92,1.24,4.47,5.5,8.01,9.08,9.82,3.37,1.71,7.37,1.45,11.24,1.19,1.27-.08,2.58-.17,3.86-.19,12.53-.15,25.23,.03,37.76,.54,24.77,1.01,49.74,3.35,74.24,6.96,14.94,2.2,30.68,4.99,44.54,12.67,2.64,1.46,5.28,3.19,6.71,5.91,3.43,6.49-2.16,14.11-4.72,17.08-10.03,11.64-23.44,19.87-36.41,27.83-12.94,7.95-26.33,16.16-36.27,27.74-5.19,6.04-10.94,15.26-8.89,24.9,3.18,15,21.75,20.02,35.45,22.48,12.54,2.26,23.88,4.15,35.2,4.98h23.12l.04,1c-3.87,.3-7.65,.44-11.4,.44Zm-141.57-1.44h119.61c-8.08-.99-16.33-2.4-25.19-3.99-13.98-2.52-32.95-7.67-36.25-23.26-2.13-10.04,3.78-19.55,9.11-25.76,10.04-11.7,23.49-19.96,36.5-27.94,12.9-7.92,26.24-16.11,36.17-27.63,2.43-2.82,7.74-10.01,4.6-15.96-1.31-2.49-3.81-4.11-6.31-5.5-13.71-7.6-29.35-10.37-44.2-12.56-24.46-3.6-49.4-5.94-74.13-6.95-12.51-.51-25.21-.69-37.71-.54-1.25,.02-2.55,.1-3.81,.18-4.01,.26-8.15,.54-11.76-1.3-4.88-2.48-8.46-6.38-9.58-10.45-3.06-11.05,9.56-18.56,18.77-24.05,1.31-.78,2.56-1.52,3.67-2.22,9.92-6.25,20.47-11.39,31.39-15.29-40.87-.07-135.26,.02-147.87,1.18l-.06,.22c-1.53,5.93-7.44,16.56-29.87,21.18-1.69,.35-3.4,.67-5.11,1-10.9,2.09-22.18,4.25-29.69,12.04-9.82,10.19-10.53,31.55,4.14,45.9,10.42,10.19,25.96,15.78,47.49,17.1,18.26,1.12,36.99-.57,55.1-2.2,26.75-2.41,54.42-4.9,80.8,1.69,4.41,1.1,8.89,2.59,11.85,5.98,2.49,2.85,3.77,6.95,3.81,12.17,.08,9.19-3.44,18.35-9.65,25.13-2.22,2.43-4.83,4.63-7.36,6.76-5.34,4.51-10.38,8.77-12.29,15.07-3.98,13.09,8.66,25.28,14.28,29.91,1.25,1.03,2.3,1.93,3.26,2.74,3.28,2.79,5.45,4.64,10.27,7.34Z"/></g><g><path class="aa" d="M660.64,438.9c-.84-2.91-3.36-5.02-5.84-5.05,.41-1.95-2.54-4.05-6.74-4.75-4.31-.72-8.3,.32-8.9,2.31-.09,.29-.13,.7-.12,1.18-.42-.29-.8-.52-1.11-.66-2.36-1.06-6.13,.36-8.41,3.16-2.28,2.8-2.22,5.92,.15,6.98,.5,.22,1.34,.45,2.35,.65-.94,.38-1.7,.77-2.11,1.08-1.94,1.45-.98,4.49,2.16,6.79,3.14,2.3,7.26,2.99,9.2,1.54,.51-.38,1.16-1.13,1.78-2.06,.4,1.01,.87,1.84,1.29,2.28,1.58,1.68,5.8,1.52,9.42-.35,3.63-1.87,5.28-4.74,3.71-6.42-.03-.03-.08-.07-.11-.1,.03,0,.06,0,.09,0,2.7-.43,4.14-3.37,3.21-6.56Z"/><path d="M645.36,429.87c.83,0,1.69,.07,2.54,.21,3.2,.53,5.05,1.78,5.67,2.69,.22,.32,.3,.61,.25,.87l-.25,1.19,1.21,.02c2.08,.03,4.18,1.89,4.89,4.33,.42,1.46,.29,2.9-.37,3.94-.48,.75-1.18,1.22-2.01,1.35h-.1l-2.02,.3,1.47,1.42s.05,.05,.08,.07c.28,.3,.38,.64,.3,1.07-.16,.93-1.24,2.48-3.74,3.77-1.72,.89-3.69,1.4-5.38,1.4-1.31,0-2.35-.31-2.86-.85-.26-.27-.67-.93-1.09-1.96l-.7-1.77-1.06,1.58c-.55,.83-1.13,1.51-1.55,1.82-.49,.37-1.23,.56-2.15,.56-1.85,0-4.09-.81-5.86-2.11-2.02-1.49-2.75-3.03-2.75-3.97,0-.51,.19-.91,.6-1.21,.16-.12,.66-.45,1.89-.95l3.08-1.26-3.27-.65c-.94-.19-1.72-.4-2.14-.58-.61-.27-1-.74-1.15-1.38-.27-1.15,.24-2.67,1.37-4.05,1.53-1.88,3.89-3.14,5.86-3.14,.52,0,.98,.09,1.37,.26,.17,.08,.48,.24,.95,.57l1.58,1.1v-1.92c-.01-.55,.05-.8,.07-.88,.27-.89,2.2-1.83,5.24-1.83m0-1c-3.16,0-5.72,.97-6.19,2.54-.09,.29-.13,.7-.12,1.18-.42-.29-.8-.52-1.11-.66-.53-.24-1.13-.35-1.77-.35-2.21,0-4.87,1.34-6.64,3.5-2.28,2.8-2.22,5.92,.15,6.98,.5,.22,1.34,.45,2.35,.65-.94,.38-1.7,.77-2.11,1.08-1.94,1.45-.98,4.49,2.16,6.79,2.03,1.49,4.46,2.3,6.46,2.3,1.09,0,2.06-.25,2.75-.76,.51-.38,1.16-1.13,1.78-2.06,.4,1.01,.87,1.84,1.29,2.28,.73,.78,2.04,1.16,3.58,1.16,1.79,0,3.9-.51,5.84-1.51,3.63-1.87,5.28-4.74,3.71-6.42-.03-.03-.08-.07-.11-.1,.03,0,.06,0,.09,0,2.7-.43,4.14-3.37,3.21-6.56-.84-2.91-3.36-5.02-5.84-5.05,.41-1.95-2.54-4.05-6.74-4.75-.93-.15-1.84-.23-2.71-.23h0Z"/></g><g><ellipse class="f" cx="645.02" cy="441.17" rx="5" ry="3.33"/><path d="M645.02,445c-3.03,0-5.5-1.72-5.5-3.83s2.47-3.83,5.5-3.83,5.5,1.72,5.5,3.83-2.47,3.83-5.5,3.83Zm0-6.66c-2.44,0-4.5,1.29-4.5,2.83s2.06,2.83,4.5,2.83,4.5-1.29,4.5-2.83-2.06-2.83-4.5-2.83Z"/></g><g><path class="aa" d="M550.37,302.23c-.45-1.55-1.79-2.68-3.12-2.7,.22-1.04-1.36-2.16-3.6-2.54-2.3-.38-4.43,.17-4.76,1.23-.05,.16-.07,.37-.07,.63-.22-.15-.43-.28-.59-.35-1.26-.56-3.28,.19-4.5,1.69-1.22,1.49-1.18,3.16,.08,3.73,.27,.12,.71,.24,1.26,.35-.5,.21-.91,.41-1.13,.58-1.04,.77-.52,2.4,1.15,3.63,1.68,1.23,3.88,1.6,4.92,.82,.27-.2,.62-.6,.95-1.1,.21,.54,.46,.98,.69,1.22,.84,.9,3.1,.81,5.03-.19,1.94-1,2.82-2.53,1.98-3.43-.02-.02-.04-.04-.06-.06,.01,0,.03,0,.05,0,1.44-.23,2.21-1.8,1.72-3.51Z"/><path d="M542.2,297.87c.42,0,.85,.04,1.28,.11,1.86,.31,2.76,1.11,2.79,1.35l-.25,1.19,1.21,.02c.9,.01,1.85,.88,2.17,1.98,.19,.64,.13,1.29-.15,1.73-.18,.29-.44,.46-.72,.51h-.08l-2.03,.3,1.48,1.42,.04,.04s.04,.06,.03,.16c-.07,.41-.65,1.11-1.75,1.68-.86,.44-1.83,.7-2.66,.7-.66,0-1.05-.17-1.19-.31-.08-.09-.28-.38-.49-.9l-.7-1.77-1.06,1.58c-.32,.47-.59,.76-.72,.86-.18,.13-.49,.21-.87,.21-.89,0-1.99-.4-2.86-1.04-.88-.65-1.28-1.35-1.28-1.75,0-.13,.03-.2,.13-.27,.04-.03,.27-.19,.91-.45l3.08-1.26-3.27-.65c-.69-.14-.97-.25-1.04-.28-.2-.09-.31-.22-.35-.42-.09-.37,.04-1.02,.64-1.76,.72-.89,1.86-1.51,2.77-1.51,.21,0,.39,.03,.54,.1,.06,.03,.2,.1,.43,.26l1.58,1.1v-1.92c0-.24,.02-.33,.02-.33h0c.06-.18,.85-.65,2.35-.65m0-1c-1.69,0-3.06,.52-3.31,1.36-.05,.16-.07,.37-.07,.63-.22-.15-.43-.28-.59-.35-.28-.13-.61-.19-.95-.19-1.18,0-2.6,.71-3.55,1.87-1.22,1.49-1.18,3.16,.08,3.73,.27,.12,.71,.24,1.26,.35-.5,.21-.91,.41-1.13,.58-1.04,.77-.52,2.4,1.15,3.63,1.08,.79,2.38,1.23,3.45,1.23,.58,0,1.1-.13,1.47-.41,.27-.2,.62-.6,.95-1.1,.21,.54,.46,.98,.69,1.22,.39,.42,1.09,.62,1.92,.62,.95,0,2.08-.27,3.12-.81,1.94-1,2.82-2.53,1.98-3.43-.02-.02-.04-.04-.06-.06,.01,0,.03,0,.05,0,1.44-.23,2.21-1.8,1.72-3.51-.45-1.55-1.79-2.68-3.12-2.7,.22-1.04-1.36-2.16-3.6-2.54-.5-.08-.98-.12-1.45-.12h0Z"/></g><g><ellipse class="f" cx="542.02" cy="303.44" rx="2.67" ry="1.78"/><path d="M542.02,305.72c-1.78,0-3.17-1-3.17-2.28s1.39-2.28,3.17-2.28,3.17,1,3.17,2.28-1.39,2.28-3.17,2.28Zm0-3.56c-1.18,0-2.17,.59-2.17,1.28s.99,1.28,2.17,1.28,2.17-.59,2.17-1.28-.99-1.28-2.17-1.28Z"/></g><g><path class="aa" d="M979.37,322.23c-.45-1.55-1.79-2.68-3.12-2.7,.22-1.04-1.36-2.16-3.6-2.54-2.3-.38-4.43,.17-4.76,1.23-.05,.16-.07,.37-.07,.63-.22-.15-.43-.28-.59-.35-1.26-.56-3.28,.19-4.5,1.69-1.22,1.49-1.18,3.16,.08,3.73,.27,.12,.71,.24,1.26,.35-.5,.21-.91,.41-1.13,.58-1.04,.77-.52,2.4,1.15,3.63,1.68,1.23,3.88,1.6,4.92,.82,.27-.2,.62-.6,.95-1.1,.21,.54,.46,.98,.69,1.22,.84,.9,3.1,.81,5.03-.19,1.94-1,2.82-2.53,1.98-3.43-.02-.02-.04-.04-.06-.06,.01,0,.03,0,.05,0,1.44-.23,2.21-1.8,1.72-3.51Z"/><path d="M971.2,317.87c.42,0,.85,.04,1.28,.11,1.86,.31,2.76,1.11,2.79,1.35l-.25,1.19,1.21,.02c.9,.01,1.85,.88,2.17,1.98,.19,.64,.13,1.29-.15,1.73-.18,.29-.44,.46-.72,.51h-.08l-2.03,.3,1.48,1.42,.04,.04s.04,.06,.03,.16c-.07,.41-.65,1.11-1.75,1.68-.86,.44-1.83,.7-2.66,.7-.66,0-1.05-.17-1.19-.31-.08-.09-.28-.38-.49-.9l-.7-1.77-1.06,1.58c-.32,.47-.59,.76-.72,.86-.18,.13-.49,.21-.87,.21-.89,0-1.99-.4-2.86-1.04-.88-.65-1.28-1.35-1.28-1.75,0-.13,.03-.2,.13-.27,.04-.03,.27-.19,.91-.45l3.08-1.26-3.27-.65c-.69-.14-.97-.25-1.04-.28-.2-.09-.31-.22-.35-.42-.09-.37,.04-1.02,.64-1.76,.72-.89,1.86-1.51,2.77-1.51,.21,0,.39,.03,.54,.1,.06,.03,.2,.1,.43,.26l1.58,1.1v-1.92c0-.24,.02-.33,.02-.33h0c.06-.18,.85-.65,2.35-.65m0-1c-1.69,0-3.06,.52-3.31,1.36-.05,.16-.07,.37-.07,.63-.22-.15-.43-.28-.59-.35-.28-.13-.61-.19-.95-.19-1.18,0-2.6,.71-3.55,1.87-1.22,1.49-1.18,3.16,.08,3.73,.27,.12,.71,.24,1.26,.35-.5,.21-.91,.41-1.13,.58-1.04,.77-.52,2.4,1.15,3.63,1.08,.79,2.38,1.23,3.45,1.23,.58,0,1.1-.13,1.47-.41,.27-.2,.62-.6,.95-1.1,.21,.54,.46,.98,.69,1.22,.39,.42,1.09,.62,1.92,.62,.95,0,2.08-.27,3.12-.81,1.94-1,2.82-2.53,1.98-3.43-.02-.02-.04-.04-.06-.06,.01,0,.03,0,.05,0,1.44-.23,2.21-1.8,1.72-3.51-.45-1.55-1.79-2.68-3.12-2.7,.22-1.04-1.36-2.16-3.6-2.54-.5-.08-.98-.12-1.45-.12h0Z"/></g><g><ellipse class="f" cx="971.02" cy="323.44" rx="2.67" ry="1.78"/><path d="M971.02,325.72c-1.78,0-3.17-1-3.17-2.28s1.39-2.28,3.17-2.28,3.17,1,3.17,2.28-1.39,2.28-3.17,2.28Zm0-3.56c-1.18,0-2.17,.59-2.17,1.28s.99,1.28,2.17,1.28,2.17-.59,2.17-1.28-.99-1.28-2.17-1.28Z"/></g></g><g><rect class="l" x="1.19" y="483.5" width="1366" height="286"/><path d="M1367.69,770H.69V483H1367.69v287ZM1.69,769H1366.69V484H1.69v285Z"/></g><g><rect class="l" x="640.85" y="1.5" width="86.67" height="482"/><path d="M728.02,484h-87.67V1h87.67V484Zm-86.67-1h85.67V2h-85.67V483Z"/></g><g><rect class="k" x="665.85" y="1.5" width="36.67" height="482"/><path d="M703.02,484h-37.67V1h37.67V484Zm-36.67-1h35.67V2h-35.67V483Z"/></g><g><rect class="i" x="661.52" y="1.5" width="4.33" height="482" transform="translate(1327.38 485) rotate(180)"/><path d="M666.35,484h-5.33V1h5.33V484Zm-4.33-1h3.33V2h-3.33V483Z"/></g><g><rect class="k" x="310.77" y="-67.75" width="20" height="640.5" transform="translate(573.27 -68.27) rotate(90)"/><path d="M641.52,263H.02v-21H641.52v21ZM1.02,262H640.52v-19H1.02v19Z"/></g><g><rect class="k" x="1037.6" y="-67.75" width="20" height="640.5" transform="translate(1300.1 -795.1) rotate(90)"/><path d="M1368.35,263H726.85v-21h641.5v21Zm-640.5-1h639.5v-19H727.85v19Z"/></g><g><rect class="ad" x="675.52" y="218.5" width="20" height="65"/><path d="M694.52,219.5v63h-18v-63h18m1-1h-20v65h20v-65h0Z"/></g><g><rect class="p" x="679.52" y="222.5" width="16" height="61"/><path d="M694.52,223.5v59h-14v-59h14m1-1h-16v61h16v-61h0Z"/></g><g><path class="r" d="M725.51,316.2c.18,8.2-3.44,14.88-8.3,21.06-7.08,9.02-15.72,16.45-24.42,23.82-2.39,2.02-4.77,4.06-7.37,6.29-11.26-9.75-22.99-18.77-32.12-30.52-5.03-6.49-8.6-13.52-7.9-22.09,.72-8.84,6.75-16.2,15.45-18.75,8.29-2.43,17.51,.57,22.77,7.42,.56,.73,1.06,1.49,1.79,2.51,.41-.58,.78-1.11,1.16-1.61h0c.09-.14,.18-.27,.27-.39,1.7-2.33,3.81-4.24,6.19-5.67,5.2-3.14,11.63-4.01,17.68-2.08,8.69,2.78,14.61,10.86,14.8,20.01Z"/><path d="M685.42,368.03l-.33-.28c-2.09-1.81-4.21-3.6-6.31-5.39-9.05-7.67-18.41-15.6-25.88-25.21-6.15-7.94-8.62-14.86-8-22.44,.74-9.06,6.94-16.59,15.81-19.19,8.53-2.5,17.9,.55,23.31,7.6,.36,.46,.69,.94,1.07,1.49,.1,.15,.21,.3,.32,.46,.24-.34,.47-.66,.71-.98l.04-.06c.09-.13,.19-.27,.28-.39,1.72-2.35,3.85-4.31,6.33-5.8,5.44-3.28,12.04-4.06,18.09-2.13,8.86,2.84,14.95,11.06,15.15,20.48h0c.16,7.19-2.44,13.79-8.41,21.38-6.83,8.7-14.79,15.68-24.49,23.89-2.39,2.02-4.77,4.06-7.37,6.29l-.33,.28Zm-18.67-72.36c-1.92,0-3.86,.27-5.76,.82-8.46,2.48-14.39,9.67-15.09,18.31-.6,7.31,1.81,14.02,7.8,21.74,7.4,9.52,16.72,17.42,25.73,25.05,2,1.69,4,3.39,5.99,5.11,2.47-2.12,4.75-4.08,7.04-6.01,9.66-8.18,17.58-15.12,24.35-23.75,5.82-7.4,8.35-13.8,8.19-20.74h0c-.19-8.98-6-16.84-14.45-19.54-5.78-1.84-12.08-1.1-17.27,2.03-2.37,1.42-4.4,3.29-6.04,5.54-.06,.08-.12,.16-.17,.24h0l-.1,.16c-.33,.43-.65,.89-.99,1.38l-.56,.79-.41-.57c-.27-.38-.51-.73-.74-1.05-.37-.53-.69-1-1.04-1.45-3.96-5.15-10.14-8.07-16.48-8.07Z"/></g><g><path class="r" d="M725.51,316.2c.18,8.2-3.44,14.88-8.3,21.06-7.08,9.02-15.72,16.45-24.42,23.82-2.39,2.02-4.77,4.06-7.37,6.29-11.26-9.75-22.99-18.77-32.12-30.52-5.03-6.49-8.6-13.52-7.9-22.09,.72-8.84,6.75-16.2,15.45-18.75,8.29-2.43,17.51,.57,22.77,7.42,.56,.73,1.06,1.49,1.79,2.51,.41-.58,.78-1.11,1.16-1.61h0c.09-.14,.18-.27,.27-.39,1.7-2.33,3.81-4.24,6.19-5.67,5.2-3.14,11.63-4.01,17.68-2.08,8.69,2.78,14.61,10.86,14.8,20.01Z"/><path d="M685.42,368.03l-.33-.28c-2.09-1.81-4.21-3.6-6.31-5.39-9.05-7.67-18.41-15.6-25.88-25.21-6.15-7.94-8.62-14.86-8-22.44,.74-9.06,6.94-16.59,15.81-19.19,8.53-2.5,17.9,.55,23.31,7.6,.36,.46,.69,.94,1.07,1.49,.1,.15,.21,.3,.32,.46,.24-.34,.47-.66,.71-.98l.04-.06c.09-.13,.19-.27,.28-.39,1.72-2.35,3.85-4.31,6.33-5.8,5.44-3.28,12.04-4.06,18.09-2.13,8.86,2.84,14.95,11.06,15.15,20.48h0c.16,7.19-2.44,13.79-8.41,21.38-6.83,8.7-14.79,15.68-24.49,23.89-2.39,2.02-4.77,4.06-7.37,6.29l-.33,.28Zm-18.67-72.36c-1.92,0-3.86,.27-5.76,.82-8.46,2.48-14.39,9.67-15.09,18.31-.6,7.31,1.81,14.02,7.8,21.74,7.4,9.52,16.72,17.42,25.73,25.05,2,1.69,4,3.39,5.99,5.11,2.47-2.12,4.75-4.08,7.04-6.01,9.66-8.18,17.58-15.12,24.35-23.75,5.82-7.4,8.35-13.8,8.19-20.74h0c-.19-8.98-6-16.84-14.45-19.54-5.78-1.84-12.08-1.1-17.27,2.03-2.37,1.42-4.4,3.29-6.04,5.54-.06,.08-.12,.16-.17,.24h0l-.1,.16c-.33,.43-.65,.89-.99,1.38l-.56,.79-.41-.57c-.27-.38-.51-.73-.74-1.05-.37-.53-.69-1-1.04-1.45-3.96-5.15-10.14-8.07-16.48-8.07Z"/></g><g><path class="i" d="M695.95,274.74c-.41,7.9-1.39,15.77-2.92,23.53-2.38,1.43-4.49,3.34-6.19,5.67-.09,.12-.18,.25-.27,.38,2.38-9.7,3.86-19.59,4.38-29.58,.16-3.2,5.16-3.21,5,0Z"/><path d="M693.57,273.34h0c.44,0,.84,.15,1.08,.41,.22,.23,.32,.55,.3,.95-.4,7.66-1.35,15.38-2.82,22.96-1.32,.83-2.55,1.79-3.66,2.88,1.86-8.51,3.03-17.15,3.47-25.74,.06-1.15,1.05-1.45,1.62-1.45m0-1c-1.25,0-2.54,.8-2.62,2.4-.52,9.99-2,19.88-4.38,29.58,.09-.13,.18-.26,.27-.38,1.7-2.33,3.81-4.24,6.19-5.67,1.53-7.76,2.51-15.63,2.92-23.53,.08-1.6-1.13-2.4-2.38-2.4h0Z"/></g><g><g><polygon class="u" points="1085.52 483.5 912.52 483.5 899.44 417.5 1098.61 417.5 1085.52 483.5"/><path d="M1097.39,418.5l-12.69,64h-171.36l-12.69-64h196.73m1.22-1h-199.17l13.08,66h173l13.08-66h0Z"/></g><g><path class="ag" d="M1099.81,344.9c-2.54-23.72-26.28-43.05-50.02-40.73-5.9,.57-11.67,2.29-17.59,2.63-8.66,.5-17.34-1.96-25.96-.99-8.62,.98-17.84,7.39-17.2,16.04,.13,1.82,.69,3.72,0,5.4-.6,1.49-2.05,2.46-3.51,3.13-6.56,3.05-14.17,1.91-21.4,1.8s-15.5,1.52-19.16,7.75c-1.74,2.96-2.14,6.55-3.82,9.56-3.09,5.54-9.64,7.9-15.33,10.69-5.7,2.79-11.64,7.62-11.21,13.95,.15,2.27,1.14,4.42,1.23,6.69,.18,4.51-3.12,8.3-5.22,12.3-4.25,8.12-3.45,18.62,1.97,26.01l186-1.65,1.21-72.6Z"/><path d="M912.35,419.65l-.15-.21c-5.55-7.56-6.36-18.23-2.01-26.54,.54-1.03,1.17-2.06,1.77-3.05,1.81-2.97,3.51-5.78,3.39-8.99-.04-1.12-.32-2.21-.61-3.36-.27-1.07-.55-2.18-.62-3.31-.52-7.7,7.86-12.66,11.49-14.43,.84-.41,1.7-.81,2.56-1.22,4.92-2.3,10-4.68,12.56-9.27,.79-1.42,1.3-3.02,1.8-4.57,.54-1.69,1.1-3.43,2.02-5,4.2-7.16,14.07-8.08,19.6-8,1.42,.02,2.85,.08,4.29,.14,5.77,.25,11.73,.5,16.89-1.9,1.74-.81,2.8-1.75,3.26-2.87,.46-1.14,.3-2.41,.12-3.76-.06-.47-.12-.95-.16-1.41-.66-8.93,8.65-15.56,17.64-16.57,4.68-.53,9.44-.05,14.03,.41,3.93,.39,7.99,.8,11.96,.57,3.2-.18,6.43-.79,9.54-1.37,2.62-.49,5.32-1,8.02-1.26,23.92-2.33,48.01,17.3,50.57,41.18v.06l-1.21,73.08h-.49l-186.26,1.65Zm51.15-86.96c-5.39,0-14.3,1.05-18.08,7.51-.87,1.47-1.41,3.16-1.93,4.8-.51,1.6-1.04,3.25-1.88,4.75-2.71,4.87-7.94,7.32-13,9.69-.86,.4-1.71,.8-2.55,1.21-3.45,1.69-11.41,6.38-10.93,13.47,.07,1.05,.33,2.06,.6,3.14,.29,1.15,.59,2.34,.64,3.56,.14,3.52-1.73,6.59-3.53,9.55-.6,.98-1.21,1.99-1.74,3-4.14,7.91-3.42,18.03,1.78,25.28l185.26-1.64,1.2-72.08c-2.52-23.35-26.09-42.53-49.47-40.26-2.66,.26-5.34,.76-7.94,1.25-3.15,.59-6.41,1.2-9.67,1.39-4.04,.24-8.15-.18-12.11-.58-4.54-.46-9.25-.93-13.82-.41-10.97,1.24-17.24,9.02-16.76,15.51,.03,.45,.09,.9,.15,1.36,.19,1.42,.38,2.89-.18,4.27-.56,1.37-1.79,2.48-3.76,3.4-5.38,2.5-11.47,2.24-17.35,1.99-1.43-.06-2.85-.12-4.27-.14-.21,0-.42,0-.63,0Z"/></g><g><path class="g" d="M998.85,388.35c-.52-1.56-2.2-2.4-3.75-1.89-.96,.32-3.64,1.74-5.43,3.14,.77-2.14,1.28-5.13,1.28-6.14,0-1.64-1.33-2.97-2.97-2.97s-2.97,1.33-2.97,2.97c0,1.03,.53,4.13,1.33,6.28-1.83-1.38-4.65-2.78-5.64-3.07-1.57-.47-3.23,.42-3.7,2s.42,3.23,2,3.7c.97,.29,3.98,.66,6.25,.54-1.86,1.31-3.99,3.47-4.57,4.3-.94,1.34-.61,3.2,.73,4.14,1.34,.94,3.2,.61,4.14-.73,.58-.83,1.88-3.57,2.48-5.76,.66,2.18,2.04,4.88,2.64,5.69,.98,1.32,2.84,1.59,4.16,.61,1.32-.98,1.59-2.84,.61-4.16-.6-.81-2.79-2.9-4.69-4.16,2.28,.06,5.27-.4,6.23-.72,1.56-.52,2.4-2.2,1.89-3.75Z"/><path d="M983.1,402.38c-.69,0-1.38-.2-1.99-.63-.76-.53-1.27-1.33-1.43-2.24s.04-1.83,.58-2.59c.49-.69,1.96-2.22,3.49-3.5-1.99-.05-4.09-.33-4.9-.58-1.83-.55-2.88-2.49-2.33-4.32,.55-1.83,2.49-2.88,4.32-2.33,.85,.26,2.85,1.21,4.57,2.31-.55-1.96-.9-4.15-.9-5.04,0-1.91,1.56-3.47,3.47-3.47s3.47,1.56,3.47,3.47c0,.85-.33,2.94-.85,4.86,1.66-1.11,3.55-2.08,4.35-2.34,.88-.29,1.82-.22,2.65,.19,.83,.42,1.45,1.13,1.74,2.01s.22,1.82-.19,2.65c-.42,.83-1.13,1.45-2.01,1.74-.8,.27-2.9,.62-4.88,.72,1.57,1.23,3.08,2.71,3.59,3.39,1.14,1.53,.82,3.71-.71,4.86-.74,.55-1.66,.78-2.58,.65-.92-.13-1.73-.62-2.28-1.36-.5-.68-1.5-2.56-2.22-4.41-.67,1.88-1.61,3.78-2.09,4.48-.67,.96-1.75,1.48-2.85,1.48Zm3.85-10.07l-1.42,1c-1.87,1.32-3.94,3.46-4.45,4.18-.38,.54-.52,1.2-.41,1.85,.12,.65,.48,1.22,1.02,1.6,1.11,.78,2.66,.51,3.44-.61,.51-.72,1.8-3.4,2.4-5.61l.46-1.68,.51,1.66c.67,2.19,2.04,4.83,2.57,5.54,.81,1.09,2.36,1.32,3.46,.51,1.09-.81,1.32-2.37,.51-3.46-.53-.71-2.66-2.79-4.57-4.05l-1.45-.96,1.74,.04c2.28,.07,5.22-.42,6.06-.7,.63-.21,1.13-.65,1.43-1.24,.3-.59,.35-1.26,.14-1.89s-.65-1.13-1.24-1.43c-.59-.3-1.26-.34-1.89-.14-.84,.28-3.48,1.65-5.28,3.06l-1.37,1.07,.59-1.64c.77-2.15,1.25-5.09,1.25-5.97,0-1.36-1.11-2.47-2.47-2.47s-2.47,1.11-2.47,2.47c0,.92,.49,3.94,1.3,6.11l.6,1.6-1.37-1.03c-1.84-1.39-4.59-2.73-5.48-2.99-1.31-.39-2.68,.35-3.08,1.66-.39,1.3,.35,2.68,1.66,3.08,.85,.25,3.8,.64,6.08,.52l1.74-.1Z"/></g><g><path class="g" d="M973.32,334.67c-1.31-.99-3.17-.73-4.16,.58-.61,.81-2.01,3.49-2.69,5.67-.58-2.2-1.86-4.95-2.43-5.78-.93-1.35-2.78-1.69-4.13-.76s-1.69,2.78-.76,4.13c.59,.85,2.78,3.1,4.65,4.42-2.29-.1-5.4,.35-6.39,.67-1.56,.5-2.42,2.18-1.92,3.74s2.18,2.42,3.74,1.92c.96-.31,3.65-1.71,5.45-3.1-.79,2.14-1.32,5.12-1.33,6.13-.01,1.64,1.31,2.98,2.95,2.99,1.64,.01,2.98-1.31,2.99-2.95,0-1.01-.47-4-1.23-6.15,1.78,1.42,4.45,2.86,5.4,3.19,1.55,.53,3.24-.3,3.77-1.86,.53-1.55-.3-3.24-1.86-3.77-.96-.33-3.95-.81-6.23-.77,1.91-1.24,4.12-3.32,4.73-4.13,.99-1.31,.73-3.17-.58-4.16Z"/><path d="M966.33,355.76h-.03c-1.91-.02-3.46-1.58-3.44-3.5,0-.85,.35-2.94,.89-4.86-1.67,1.09-3.56,2.05-4.37,2.31-.88,.28-1.82,.21-2.65-.21-.83-.42-1.44-1.14-1.72-2.02-.59-1.82,.42-3.78,2.24-4.37,.85-.27,3.03-.62,5.07-.69-1.57-1.3-3.09-2.91-3.6-3.64-1.08-1.58-.68-3.74,.89-4.83,1.58-1.09,3.74-.68,4.83,.89,.48,.7,1.4,2.61,2.05,4.49,.74-1.85,1.75-3.72,2.26-4.39,1.15-1.53,3.33-1.83,4.86-.67h0c1.53,1.16,1.83,3.34,.67,4.86-.51,.67-2.04,2.15-3.62,3.36,1.99,.12,4.08,.49,4.88,.76,1.81,.62,2.78,2.59,2.17,4.4-.3,.88-.92,1.59-1.75,2-.83,.41-1.77,.47-2.65,.17-.8-.27-2.68-1.26-4.33-2.37,.51,1.92,.82,4.02,.82,4.87-.02,1.9-1.57,3.44-3.47,3.44Zm-.57-11.08l-.6,1.63c-.79,2.15-1.29,5.08-1.29,5.96-.01,1.36,1.09,2.48,2.45,2.49,1.39,0,2.48-1.09,2.49-2.45,0-.88-.44-3.83-1.2-5.98l-.58-1.64,1.36,1.08c1.79,1.43,4.42,2.82,5.25,3.1,.62,.21,1.3,.17,1.89-.12,.59-.29,1.04-.8,1.25-1.42,.44-1.29-.25-2.7-1.54-3.14-.84-.28-3.77-.77-6.06-.74l-1.74,.03,1.46-.95c1.92-1.25,4.07-3.31,4.6-4.01,.82-1.09,.61-2.64-.48-3.46-1.09-.82-2.64-.61-3.46,.48-.53,.71-1.93,3.33-2.61,5.52l-.52,1.66-.44-1.68c-.58-2.21-1.86-4.9-2.36-5.63-.77-1.12-2.32-1.41-3.44-.63-1.12,.77-1.41,2.31-.63,3.44,.52,.76,2.64,2.97,4.53,4.3l1.4,.98-1.71-.08c-2.32-.1-5.33,.36-6.21,.64-.63,.2-1.14,.64-1.44,1.23-.3,.59-.36,1.26-.15,1.89,.2,.63,.64,1.14,1.23,1.44,.59,.3,1.26,.35,1.89,.15,.84-.27,3.49-1.62,5.3-3.02l1.38-1.06Z"/></g><g><path class="g" d="M1039.32,330.67c-1.31-.99-3.17-.73-4.16,.58-.61,.81-2.01,3.49-2.69,5.67-.58-2.2-1.86-4.95-2.43-5.78-.93-1.35-2.78-1.69-4.13-.76s-1.69,2.78-.76,4.13c.59,.85,2.78,3.1,4.65,4.42-2.29-.1-5.4,.35-6.39,.67-1.56,.5-2.42,2.18-1.92,3.74s2.18,2.42,3.74,1.92c.96-.31,3.65-1.71,5.45-3.1-.79,2.14-1.32,5.12-1.33,6.13-.01,1.64,1.31,2.98,2.95,2.99,1.64,.01,2.98-1.31,2.99-2.95,0-1.01-.47-4-1.23-6.15,1.78,1.42,4.45,2.86,5.4,3.19,1.55,.53,3.24-.3,3.77-1.86,.53-1.55-.3-3.24-1.86-3.77-.96-.33-3.95-.81-6.23-.77,1.91-1.24,4.12-3.32,4.73-4.13,.99-1.31,.73-3.17-.58-4.16Z"/><path d="M1032.33,351.76h-.03c-1.91-.02-3.46-1.58-3.44-3.5,0-.85,.35-2.94,.89-4.86-1.67,1.09-3.56,2.05-4.37,2.31-.88,.28-1.82,.21-2.65-.21-.83-.42-1.44-1.14-1.72-2.02-.59-1.82,.42-3.78,2.24-4.37,.85-.27,3.03-.62,5.07-.69-1.57-1.3-3.09-2.91-3.6-3.64-1.08-1.58-.68-3.74,.89-4.83,1.58-1.08,3.74-.68,4.83,.89,.48,.7,1.4,2.61,2.05,4.49,.74-1.85,1.75-3.72,2.26-4.39,1.16-1.53,3.33-1.83,4.86-.67h0c1.53,1.16,1.83,3.34,.67,4.86-.51,.67-2.04,2.15-3.62,3.36,1.99,.12,4.08,.49,4.88,.76,1.81,.62,2.78,2.59,2.17,4.4-.3,.88-.92,1.59-1.75,2-.83,.41-1.77,.47-2.65,.17-.8-.27-2.68-1.26-4.33-2.37,.51,1.92,.82,4.02,.82,4.87-.02,1.9-1.57,3.44-3.47,3.44Zm-.57-11.08l-.6,1.63c-.79,2.15-1.29,5.08-1.29,5.96-.01,1.36,1.09,2.48,2.45,2.49h.02c1.35,0,2.46-1.1,2.47-2.45,0-.88-.44-3.83-1.2-5.98l-.58-1.64,1.36,1.08c1.79,1.43,4.42,2.82,5.25,3.1,.62,.21,1.29,.17,1.89-.12,.59-.29,1.04-.8,1.25-1.42,.44-1.29-.25-2.7-1.54-3.14-.84-.28-3.76-.78-6.06-.74l-1.74,.03,1.46-.95c1.92-1.25,4.07-3.31,4.6-4.01,.82-1.09,.61-2.64-.48-3.46-1.09-.82-2.64-.61-3.46,.48-.53,.71-1.93,3.33-2.61,5.52l-.52,1.66-.44-1.68c-.58-2.21-1.86-4.9-2.36-5.63-.77-1.12-2.32-1.41-3.44-.63-1.12,.77-1.41,2.31-.63,3.44,.52,.76,2.64,2.97,4.53,4.3l1.4,.98-1.71-.08c-2.31-.1-5.33,.36-6.21,.64-.63,.2-1.14,.64-1.44,1.23-.3,.59-.36,1.26-.15,1.89,.2,.63,.64,1.14,1.23,1.44,.59,.3,1.26,.35,1.89,.15,.84-.27,3.49-1.62,5.3-3.02l1.38-1.06Z"/></g><g><path class="g" d="M1004.43,354c-.8-.6-1.93-.45-2.54,.35-.37,.49-1.23,2.13-1.64,3.45-.35-1.34-1.13-3.02-1.48-3.53-.57-.82-1.69-1.03-2.52-.47s-1.03,1.69-.47,2.52c.36,.52,1.69,1.89,2.84,2.7-1.4-.06-3.29,.21-3.89,.41-.95,.31-1.47,1.33-1.17,2.28s1.33,1.47,2.28,1.17c.59-.19,2.22-1.04,3.32-1.89-.48,1.3-.8,3.12-.81,3.74,0,1,.8,1.82,1.8,1.83,1,0,1.82-.8,1.83-1.8,0-.62-.29-2.44-.75-3.75,1.09,.87,2.71,1.74,3.29,1.94,.95,.32,1.98-.18,2.3-1.13,.32-.95-.18-1.98-1.13-2.3-.58-.2-2.41-.49-3.8-.47,1.16-.76,2.51-2.02,2.88-2.52,.6-.8,.45-1.93-.35-2.54Z"/><path d="M1000.18,367.05h-.02c-1.27,0-2.3-1.05-2.29-2.33,0-.47,.16-1.49,.42-2.52-.91,.56-1.84,1.01-2.28,1.16-1.21,.39-2.52-.28-2.91-1.49-.39-1.21,.28-2.52,1.49-2.91,.46-.15,1.55-.33,2.65-.4-.83-.73-1.58-1.54-1.86-1.94-.72-1.05-.46-2.49,.59-3.21,.51-.35,1.12-.48,1.73-.37,.61,.11,1.13,.45,1.48,.96,.26,.38,.72,1.31,1.1,2.31,.43-.98,.93-1.89,1.21-2.26,.37-.49,.91-.81,1.53-.89,.61-.08,1.22,.07,1.71,.45h0c1.02,.77,1.22,2.22,.45,3.24-.28,.37-1.02,1.1-1.84,1.77,1.06,.1,2.08,.29,2.52,.44,.58,.2,1.06,.61,1.33,1.17,.27,.55,.31,1.18,.12,1.77-.2,.58-.61,1.06-1.17,1.33-.55,.27-1.18,.32-1.76,.11-.44-.15-1.36-.62-2.26-1.19,.25,1.04,.38,2.07,.38,2.53,0,1.27-1.04,2.29-2.31,2.29Zm.04-7.44l-.57,1.55c-.47,1.29-.77,3.04-.78,3.57,0,.72,.58,1.32,1.3,1.32h.01c.72,0,1.3-.58,1.31-1.3,0-.53-.26-2.28-.72-3.58l-.55-1.56h0Zm.06,0l1.27,1.01c1.07,.86,2.64,1.69,3.14,1.86,.33,.11,.69,.09,1-.06,.31-.15,.55-.42,.66-.75,.11-.33,.09-.69-.06-1-.16-.31-.42-.55-.75-.66-.5-.17-2.25-.47-3.62-.44l-1.63,.03,.03,.02h-.04Zm-2.07-.08c-1.3,0-2.86,.24-3.32,.39-.69,.22-1.07,.96-.84,1.65,.22,.69,.96,1.07,1.65,.85,.5-.16,2.09-.97,3.17-1.81l1.29-1-1.55-.07c-.13,0-.26,0-.4,0Zm2.04,.01h0l1.39-.9c1.15-.75,2.44-1.98,2.76-2.4,.44-.58,.32-1.4-.25-1.84-.28-.21-.62-.3-.97-.25-.35,.05-.65,.23-.87,.51-.32,.42-1.15,1.99-1.56,3.3l-.49,1.58h0Zm-2.96-5.54c-.26,0-.52,.08-.74,.23-.59,.41-.75,1.23-.34,1.82,.3,.44,1.6,1.79,2.71,2.57l1.27,.89-.42-1.58c-.35-1.33-1.11-2.94-1.41-3.37-.2-.29-.5-.48-.84-.55-.08-.01-.16-.02-.24-.02Z"/></g><g><path class="g" d="M1065.43,311c-.8-.6-1.93-.45-2.54,.35-.37,.49-1.23,2.13-1.64,3.45-.35-1.34-1.13-3.02-1.48-3.53-.57-.82-1.69-1.03-2.52-.47s-1.03,1.69-.47,2.52c.36,.52,1.69,1.89,2.84,2.7-1.4-.06-3.29,.21-3.89,.41-.95,.31-1.47,1.33-1.17,2.28s1.33,1.47,2.28,1.17c.59-.19,2.22-1.04,3.32-1.89-.48,1.3-.8,3.12-.81,3.74,0,1,.8,1.82,1.8,1.83,1,0,1.82-.8,1.83-1.8,0-.62-.29-2.44-.75-3.75,1.09,.87,2.71,1.74,3.29,1.94,.95,.32,1.98-.18,2.3-1.13,.32-.95-.18-1.98-1.13-2.3-.58-.2-2.41-.49-3.8-.47,1.16-.76,2.51-2.02,2.88-2.52,.6-.8,.45-1.93-.35-2.54Z"/><path d="M1061.18,324.05h-.02c-1.27,0-2.3-1.05-2.29-2.33,0-.47,.16-1.49,.42-2.52-.91,.56-1.84,1.01-2.28,1.16-1.21,.39-2.52-.28-2.91-1.49-.39-1.21,.28-2.52,1.49-2.91,.46-.15,1.55-.33,2.65-.4-.83-.73-1.58-1.54-1.86-1.94-.72-1.05-.46-2.49,.59-3.21,.51-.35,1.12-.48,1.73-.37,.61,.11,1.13,.45,1.48,.96,.26,.38,.72,1.31,1.1,2.31,.43-.98,.93-1.89,1.21-2.26,.37-.49,.91-.81,1.53-.89,.61-.09,1.22,.07,1.71,.45h0c1.02,.77,1.22,2.22,.45,3.24-.28,.37-1.02,1.1-1.84,1.77,1.06,.1,2.08,.29,2.52,.44,.58,.2,1.06,.61,1.33,1.17,.27,.55,.31,1.18,.12,1.77-.2,.58-.61,1.06-1.17,1.33-.55,.27-1.18,.32-1.76,.11-.44-.15-1.36-.62-2.26-1.19,.25,1.04,.38,2.07,.38,2.53,0,1.27-1.04,2.29-2.31,2.29Zm.04-7.44l-.57,1.55c-.47,1.29-.77,3.04-.78,3.57,0,.72,.58,1.32,1.3,1.32,.76,0,1.32-.58,1.32-1.3,0-.53-.26-2.28-.72-3.58l-.55-1.56h0Zm.06,0l1.27,1.01c1.07,.86,2.64,1.69,3.14,1.86,.33,.11,.69,.09,1-.06,.31-.15,.55-.42,.66-.75,.11-.33,.09-.69-.06-1-.16-.31-.42-.55-.75-.66-.5-.17-2.25-.47-3.62-.44l-1.63,.03,.03,.02h-.04Zm-2.07-.08c-1.3,0-2.86,.24-3.32,.39-.69,.22-1.07,.96-.84,1.65,.22,.69,.96,1.07,1.65,.85,.5-.16,2.09-.97,3.17-1.81l1.29-1-1.55-.07c-.13,0-.26,0-.4,0Zm2.04,.01h0l1.39-.9c1.15-.75,2.44-1.98,2.76-2.4,.44-.58,.32-1.4-.25-1.84-.28-.21-.62-.3-.97-.25-.35,.05-.65,.23-.87,.51-.32,.42-1.15,1.99-1.56,3.3l-.49,1.58h0Zm-2.96-5.54c-.26,0-.52,.08-.74,.23-.59,.41-.75,1.23-.34,1.82,.3,.44,1.6,1.79,2.71,2.57l1.27,.89-.42-1.58c-.35-1.33-1.11-2.94-1.41-3.37-.2-.29-.5-.48-.84-.55-.08-.01-.16-.02-.24-.02Z"/></g><g><path class="g" d="M1099.32,385.67c-1.31-.99-3.17-.73-4.16,.58-.61,.81-2.01,3.49-2.69,5.67-.58-2.2-1.86-4.95-2.43-5.78-.93-1.35-2.78-1.69-4.13-.76s-1.69,2.78-.76,4.13c.59,.85,2.78,3.1,4.65,4.42-2.29-.1-5.4,.35-6.39,.67-1.56,.5-2.42,2.18-1.92,3.74s2.18,2.42,3.74,1.92c.96-.31,3.65-1.71,5.45-3.1-.79,2.14-1.32,5.12-1.33,6.13-.01,1.64,1.31,2.98,2.95,2.99,1.64,.01,2.98-1.31,2.99-2.95,0-1.01-.47-4-1.23-6.15,1.78,1.42,4.45,2.86,5.4,3.19,1.55,.53,3.24-.3,3.77-1.86,.53-1.55-.3-3.24-1.86-3.77-.96-.33-3.95-.81-6.23-.77,1.91-1.24,4.12-3.32,4.73-4.13,.99-1.31,.73-3.17-.58-4.16Z"/><path d="M1092.33,406.76h-.03c-.93,0-1.8-.38-2.45-1.04-.65-.66-1-1.54-1-2.46,0-.85,.35-2.94,.89-4.86-1.67,1.09-3.56,2.05-4.37,2.31-.88,.28-1.82,.21-2.65-.21-.83-.42-1.44-1.14-1.72-2.02-.29-.88-.21-1.82,.21-2.65,.42-.83,1.14-1.44,2.02-1.72,.85-.27,3.03-.62,5.07-.69-1.57-1.3-3.09-2.9-3.6-3.64-1.08-1.58-.68-3.74,.89-4.83,1.58-1.09,3.74-.68,4.83,.89,.48,.7,1.4,2.61,2.05,4.49,.74-1.85,1.75-3.72,2.26-4.39,1.16-1.53,3.33-1.83,4.86-.67h0c1.53,1.16,1.83,3.34,.67,4.86-.51,.67-2.04,2.15-3.62,3.36,1.99,.12,4.08,.49,4.88,.76,1.81,.62,2.78,2.59,2.17,4.4-.3,.88-.92,1.59-1.75,2-.83,.41-1.77,.47-2.65,.17-.8-.27-2.68-1.26-4.33-2.38,.51,1.92,.82,4.02,.82,4.87-.02,1.91-1.57,3.44-3.47,3.44Zm-.58-11.09l-.6,1.63c-.79,2.15-1.29,5.08-1.29,5.96,0,.66,.25,1.28,.71,1.75s1.08,.73,1.74,.74c1.32,.01,2.48-1.09,2.49-2.45,0-.88-.44-3.83-1.2-5.98l-.58-1.64,1.36,1.08c1.79,1.43,4.42,2.82,5.25,3.1,.62,.21,1.3,.17,1.89-.12,.59-.29,1.04-.8,1.25-1.42,.44-1.29-.25-2.7-1.54-3.13-.84-.29-3.77-.8-6.06-.74l-1.74,.03,1.46-.95c1.92-1.25,4.07-3.3,4.6-4.01,.82-1.09,.61-2.64-.48-3.46-1.09-.82-2.64-.61-3.46,.48-.53,.7-1.93,3.33-2.61,5.51l-.52,1.66-.44-1.68c-.58-2.21-1.86-4.9-2.36-5.63-.77-1.12-2.31-1.41-3.44-.63-1.12,.77-1.41,2.31-.63,3.44,.52,.76,2.64,2.97,4.53,4.3l1.4,.98-1.71-.07c-2.31-.1-5.33,.36-6.21,.64-.63,.2-1.14,.64-1.44,1.23-.3,.59-.36,1.26-.15,1.88,.2,.63,.64,1.14,1.23,1.44,.59,.3,1.26,.36,1.89,.15,.84-.27,3.49-1.63,5.3-3.02l1.38-1.06Z"/></g><g><g><path class="a`" d="M937.94,387.62l-2.61,5.29c-3.89,7.89-13.44,11.13-21.33,7.24l2.61-5.29c3.89-7.89,13.44-11.13,21.33-7.24Z"/><path d="M921.01,402.3c-2.44,0-4.91-.54-7.24-1.69l-.45-.22,2.83-5.74c1.94-3.94,5.3-6.88,9.45-8.29,4.16-1.41,8.61-1.12,12.55,.82l.45,.22-2.83,5.74c-2.86,5.8-8.7,9.16-14.76,9.16Zm-6.35-2.38c3.58,1.63,7.59,1.83,11.33,.56,3.9-1.32,7.06-4.09,8.88-7.79l2.38-4.84c-3.58-1.63-7.59-1.83-11.33-.56-3.9,1.33-7.06,4.09-8.88,7.79l-2.38,4.84Z"/></g><g><path class="a`" d="M919.89,397.57s8.7-2.35,10.56-5.91,7.49-4.04,7.49-4.04"/><path d="M919.89,398.07c-.22,0-.42-.15-.48-.37-.07-.27,.08-.54,.35-.61,.08-.02,8.51-2.33,10.25-5.66,1.97-3.76,7.65-4.28,7.89-4.3,.27-.02,.52,.18,.54,.46,.02,.27-.18,.52-.46,.54-.05,0-5.38,.5-7.09,3.77-1.94,3.71-10.51,6.07-10.87,6.16-.04,.01-.09,.02-.13,.02Z"/></g></g><g><g><path class="a`" d="M1009.69,314.66l1.37-5.74c2.04-8.56,10.63-13.85,19.18-11.81l-1.37,5.74c-2.04,8.56-10.63,13.85-19.18,11.81Z"/><path d="M1013.41,315.6c-1.28,0-2.56-.15-3.83-.45l-.49-.12,1.48-6.23c1.01-4.27,3.63-7.89,7.37-10.19,3.74-2.3,8.15-3.01,12.42-1.99l.49,.12-1.48,6.23c-1.01,4.27-3.63,7.89-7.37,10.19-2.62,1.62-5.58,2.45-8.58,2.45Zm-3.11-1.32c3.86,.79,7.8,.09,11.17-1.98,3.51-2.16,5.97-5.56,6.92-9.57l1.25-5.25c-3.86-.79-7.8-.09-11.17,1.98-3.51,2.16-5.97,5.56-6.92,9.57l-1.25,5.25Z"/></g><g><path class="a`" d="M1025.07,300.94s-7.95,4.23-8.97,8.12c-1.02,3.89-6.4,5.6-6.4,5.6"/><path d="M1009.69,315.16c-.21,0-.41-.14-.48-.35-.08-.26,.06-.54,.32-.63,.05-.02,5.13-1.68,6.07-5.25,1.06-4.05,8.89-8.25,9.22-8.43,.24-.13,.54-.04,.68,.21,.13,.24,.04,.55-.21,.68-.08,.04-7.77,4.17-8.73,7.8-1.08,4.11-6.5,5.88-6.73,5.95-.05,.02-.1,.02-.15,.02Z"/></g></g><g><g><path class="a`" d="M1042.53,382.3l4.38-3.96c6.52-5.9,16.6-5.39,22.5,1.13l-4.38,3.96c-6.52,5.9-16.6,5.39-22.5-1.13Z"/><path d="M1054.36,388.05c-.28,0-.56,0-.84-.02-4.38-.22-8.42-2.13-11.36-5.39l-.33-.37,4.75-4.29c3.25-2.94,7.48-4.45,11.84-4.22,4.38,.22,8.42,2.13,11.36,5.39l.33,.37-4.75,4.29c-3.04,2.75-6.92,4.24-11,4.24Zm-11.12-5.71c5.75,5.96,15.26,6.32,21.45,.73l4-3.62c-2.73-2.83-6.38-4.5-10.33-4.69-4.12-.21-8.07,1.2-11.12,3.97l-4,3.62Z"/></g><g><path class="a`" d="M1062.97,379.7s-8.95-1.02-11.99,1.61c-3.04,2.63-8.45,.99-8.45,.99"/><path d="M1046.19,383.31c-2.01,0-3.68-.49-3.8-.53-.26-.08-.41-.36-.33-.62,.08-.26,.36-.42,.62-.33,.05,.02,5.18,1.52,7.98-.89,3.17-2.74,12-1.77,12.38-1.72,.27,.03,.47,.28,.44,.55-.03,.27-.28,.47-.55,.44-.09,0-8.77-.96-11.61,1.49-1.47,1.27-3.42,1.62-5.12,1.62Z"/></g></g><g><g><path class="i" d="M961.52,379.53c-.07-3.28-2.79-5.87-6.07-5.79h0c2.29-2.35,2.25-6.1-.1-8.39-2.34-2.29-6.1-2.25-8.39,.1h0c0-3.28-2.66-5.93-5.93-5.93s-5.93,2.66-5.93,5.93c0,.53,.07,1.28,.2,2.16-.58-.67-1.1-1.21-1.51-1.55-2.49-2.12-6.24-1.82-8.36,.67s-1.82,6.24,.67,8.36h0c-3.27,.23-5.74,3.06-5.51,6.33,.22,3.27,3.06,5.74,6.32,5.51h0c-2.18,2.45-1.97,6.2,.48,8.38,2.44,2.18,6.19,1.97,8.37-.48h0c.15,3.27,2.92,5.81,6.2,5.66,3.27-.15,5.8-2.92,5.65-6.2h0c2.39,2.23,6.15,2.11,8.38-.29,2.24-2.39,2.11-6.15-.29-8.38h0c3.28-.08,5.87-2.79,5.79-6.07Z"/><path d="M941.03,360.5c2.72,0,4.93,2.21,4.93,4.94v2.45l1.72-1.75c.94-.96,2.19-1.48,3.53-1.48,1.3,0,2.52,.5,3.45,1.4,.94,.92,1.47,2.15,1.48,3.47,.01,1.31-.47,2.54-1.39,3.49h0l-.02,.02-1.7,1.75,2.45-.06h.12c2.66,0,4.87,2.16,4.93,4.82,.06,2.72-2.1,4.98-4.83,5.04l-2.43,.07,1.78,1.66c.96,.9,1.52,2.12,1.56,3.44,.05,1.32-.43,2.57-1.32,3.53-.94,1.01-2.22,1.57-3.61,1.57-1.25,0-2.45-.47-3.37-1.33l-1.79-1.65,.11,2.44c.06,1.32-.4,2.58-1.28,3.55-.89,.97-2.1,1.54-3.42,1.6-.08,0-.15,0-.23,0-2.64,0-4.8-2.07-4.92-4.71l-.11-2.46-1.64,1.84c-.93,1.05-2.28,1.65-3.68,1.65-1.21,0-2.38-.44-3.28-1.25-.98-.88-1.57-2.08-1.64-3.4s.37-2.58,1.24-3.56l1.65-1.84-2.47,.17c-.12,0-.23,.01-.34,.01-2.58,0-4.74-2.02-4.91-4.59-.09-1.31,.34-2.58,1.2-3.58s2.07-1.59,3.39-1.68l2.42-.19-1.85-1.57c-2.07-1.76-2.32-4.88-.56-6.95,.94-1.1,2.31-1.73,3.76-1.73,1.17,0,2.3,.42,3.2,1.18,.36,.31,.85,.81,1.4,1.45l2.26,2.6-.51-3.4c-.13-.83-.19-1.53-.19-2.01,0-2.72,2.21-4.93,4.93-4.93m0-1c-3.28,0-5.93,2.66-5.93,5.93,0,.53,.07,1.28,.2,2.16-.58-.67-1.1-1.21-1.51-1.55-1.12-.95-2.48-1.42-3.84-1.42-1.68,0-3.35,.71-4.52,2.09-2.12,2.49-1.82,6.24,.67,8.36h0c-3.27,.23-5.74,3.06-5.51,6.33,.21,3.13,2.82,5.53,5.91,5.53,.14,0,.27,0,.41-.01h0c-2.18,2.45-1.97,6.2,.48,8.38,1.13,1.01,2.54,1.51,3.95,1.51,1.63,0,3.26-.67,4.43-1.98h0c.15,3.18,2.77,5.66,5.92,5.66,.09,0,.18,0,.28,0,3.27-.15,5.8-2.92,5.65-6.2h0c1.14,1.07,2.6,1.59,4.05,1.59,1.59,0,3.17-.63,4.34-1.88,2.24-2.39,2.11-6.15-.29-8.38h0c3.28-.08,5.87-2.79,5.79-6.07-.07-3.23-2.71-5.8-5.93-5.8-.05,0-.09,0-.14,0h0c2.29-2.35,2.25-6.1-.1-8.39-1.15-1.13-2.65-1.69-4.15-1.69-1.54,0-3.08,.6-4.24,1.79h0c0-3.28-2.66-5.93-5.93-5.93h0Z"/></g><g><circle class="g" cx="941.03" cy="379.99" r="4.85"/><path d="M941.03,385.35c-2.95,0-5.35-2.4-5.35-5.35s2.4-5.35,5.35-5.35,5.35,2.4,5.35,5.35-2.4,5.35-5.35,5.35Zm0-9.71c-2.4,0-4.35,1.95-4.35,4.35s1.95,4.35,4.35,4.35,4.35-1.95,4.35-4.35-1.95-4.35-4.35-4.35Z"/></g></g><g><g><path class="i" d="M1019.52,318.53c-.07-3.28-2.79-5.87-6.07-5.79h0c2.29-2.35,2.25-6.1-.1-8.39-2.34-2.29-6.1-2.25-8.39,.1h0c0-3.28-2.66-5.93-5.93-5.93s-5.93,2.66-5.93,5.93c0,.53,.07,1.28,.2,2.16-.58-.67-1.1-1.21-1.51-1.55-2.49-2.12-6.24-1.82-8.36,.67s-1.82,6.24,.67,8.36h0c-3.27,.23-5.74,3.06-5.51,6.33,.22,3.27,3.06,5.74,6.32,5.51h0c-2.18,2.45-1.97,6.2,.48,8.38,2.44,2.18,6.19,1.97,8.37-.48h0c.15,3.27,2.92,5.81,6.2,5.66,3.27-.15,5.8-2.92,5.65-6.2h0c2.39,2.23,6.15,2.11,8.38-.29,2.24-2.39,2.11-6.15-.29-8.38h0c3.28-.08,5.87-2.79,5.79-6.07Z"/><path d="M999.03,299.5c2.72,0,4.93,2.21,4.93,4.94v2.45l1.72-1.75c.94-.96,2.19-1.48,3.53-1.48,1.3,0,2.52,.5,3.45,1.4,.94,.92,1.47,2.15,1.48,3.47,.01,1.31-.47,2.54-1.39,3.49h0l-.02,.02-1.7,1.75,2.45-.06h.12c2.66,0,4.87,2.16,4.93,4.82,.06,2.72-2.1,4.98-4.83,5.04l-2.43,.07,1.78,1.66c.96,.9,1.52,2.12,1.56,3.44,.05,1.32-.43,2.57-1.32,3.53-.94,1.01-2.22,1.57-3.61,1.57-1.25,0-2.45-.47-3.37-1.33l-1.79-1.65,.11,2.44c.06,1.32-.4,2.58-1.28,3.55-.89,.97-2.1,1.54-3.42,1.6-.08,0-.15,0-.23,0-2.64,0-4.8-2.07-4.92-4.71l-.11-2.46-1.64,1.84c-.93,1.05-2.28,1.65-3.68,1.65-1.21,0-2.38-.44-3.28-1.25-.98-.88-1.57-2.08-1.64-3.4s.37-2.58,1.24-3.56l1.65-1.84-2.47,.17c-.12,0-.23,.01-.34,.01-2.58,0-4.74-2.02-4.91-4.59-.09-1.31,.34-2.58,1.2-3.58s2.07-1.59,3.39-1.68l2.42-.19-1.85-1.57c-2.07-1.76-2.32-4.88-.56-6.95,.94-1.1,2.31-1.73,3.76-1.73,1.17,0,2.3,.42,3.2,1.18,.36,.31,.85,.81,1.4,1.45l2.26,2.6-.51-3.4c-.13-.83-.19-1.53-.19-2.01,0-2.72,2.21-4.93,4.93-4.93m0-1c-3.28,0-5.93,2.66-5.93,5.93,0,.53,.07,1.28,.2,2.16-.58-.67-1.1-1.21-1.51-1.55-1.12-.95-2.48-1.42-3.84-1.42-1.68,0-3.35,.71-4.52,2.09-2.12,2.49-1.82,6.24,.67,8.36h0c-3.27,.23-5.74,3.06-5.51,6.33,.21,3.13,2.82,5.53,5.91,5.53,.14,0,.27,0,.41-.01h0c-2.18,2.45-1.97,6.2,.48,8.38,1.13,1.01,2.54,1.51,3.95,1.51,1.63,0,3.26-.67,4.43-1.98h0c.15,3.18,2.77,5.66,5.92,5.66,.09,0,.18,0,.28,0,3.27-.15,5.8-2.92,5.65-6.2h0c1.14,1.07,2.6,1.59,4.05,1.59,1.59,0,3.17-.63,4.34-1.88,2.24-2.39,2.11-6.15-.29-8.38h0c3.28-.08,5.87-2.79,5.79-6.07-.07-3.23-2.71-5.8-5.93-5.8-.05,0-.09,0-.14,0h0c2.29-2.35,2.25-6.1-.1-8.39-1.15-1.13-2.65-1.69-4.15-1.69-1.54,0-3.08,.6-4.24,1.79h0c0-3.28-2.66-5.93-5.93-5.93h0Z"/></g><g><circle class="g" cx="999.03" cy="318.99" r="4.85"/><path d="M999.03,324.35c-2.95,0-5.35-2.4-5.35-5.35s2.4-5.35,5.35-5.35,5.35,2.4,5.35,5.35-2.4,5.35-5.35,5.35Zm0-9.71c-2.4,0-4.35,1.95-4.35,4.35s1.95,4.35,4.35,4.35,4.35-1.95,4.35-4.35-1.95-4.35-4.35-4.35Z"/></g></g><g><g><path class="i" d="M1052.52,384.53c-.07-3.28-2.79-5.87-6.07-5.79h0c2.29-2.35,2.25-6.1-.1-8.39-2.34-2.29-6.1-2.25-8.39,.1h0c0-3.28-2.66-5.93-5.93-5.93s-5.93,2.66-5.93,5.93c0,.53,.07,1.28,.2,2.16-.58-.67-1.1-1.21-1.51-1.55-2.49-2.12-6.24-1.82-8.36,.67s-1.82,6.24,.67,8.36h0c-3.27,.23-5.74,3.06-5.51,6.33,.22,3.27,3.06,5.74,6.32,5.51h0c-2.18,2.45-1.97,6.2,.48,8.38,2.44,2.18,6.19,1.97,8.37-.48h0c.15,3.27,2.92,5.81,6.2,5.66,3.27-.15,5.8-2.92,5.65-6.2h0c2.39,2.23,6.15,2.11,8.38-.29,2.24-2.39,2.11-6.15-.29-8.38h0c3.28-.08,5.87-2.79,5.79-6.07Z"/><path d="M1032.03,365.5c2.72,0,4.93,2.21,4.93,4.94v2.45l1.72-1.75c.94-.96,2.19-1.48,3.53-1.48,1.3,0,2.52,.5,3.45,1.4,.94,.92,1.47,2.15,1.48,3.47,.02,1.32-.48,2.56-1.37,3.47l-.02,.02-.02,.02-1.7,1.75,2.45-.06h.12c2.66,0,4.87,2.16,4.93,4.82,.06,2.72-2.1,4.98-4.83,5.04l-2.43,.07,1.78,1.66c.96,.9,1.52,2.12,1.56,3.44s-.43,2.57-1.32,3.53c-.94,1.01-2.22,1.57-3.61,1.57-1.25,0-2.45-.47-3.37-1.33l-1.79-1.65,.11,2.44c.12,2.72-1.99,5.03-4.7,5.15-.08,0-.15,0-.23,0-2.64,0-4.8-2.07-4.92-4.66v-.09l-.19-2.33-1.56,1.74-.02,.02h0c-.93,1.04-2.27,1.63-3.67,1.63-1.21,0-2.38-.44-3.28-1.25-2.03-1.81-2.21-4.93-.4-6.96l1.65-1.84-2.47,.17c-.12,0-.23,.01-.34,.01-2.58,0-4.74-2.02-4.91-4.59-.09-1.31,.34-2.58,1.2-3.58s2.07-1.59,3.39-1.68l2.42-.19-1.85-1.57c-2.07-1.76-2.32-4.88-.56-6.95,.94-1.1,2.31-1.73,3.76-1.73,1.17,0,2.3,.42,3.2,1.18,.36,.31,.85,.81,1.4,1.45l2.26,2.6-.51-3.4c-.13-.83-.19-1.53-.19-2.01,0-2.72,2.21-4.93,4.93-4.93m0-1c-3.28,0-5.93,2.66-5.93,5.93,0,.53,.07,1.28,.2,2.16-.58-.67-1.1-1.21-1.51-1.55-1.12-.95-2.48-1.42-3.84-1.42-1.68,0-3.35,.71-4.52,2.09-2.12,2.49-1.82,6.24,.67,8.36h0c-3.27,.23-5.74,3.06-5.51,6.33,.21,3.13,2.82,5.53,5.91,5.53,.14,0,.27,0,.41-.01h0c-2.18,2.45-1.97,6.2,.48,8.38,1.13,1.01,2.54,1.51,3.95,1.51,1.63,0,3.26-.67,4.43-1.98h0c.15,3.18,2.77,5.66,5.92,5.66,.09,0,.18,0,.28,0,3.27-.15,5.8-2.92,5.65-6.2h0c1.14,1.07,2.6,1.59,4.05,1.59,1.59,0,3.17-.63,4.34-1.88,2.24-2.39,2.11-6.15-.29-8.38h0c3.28-.08,5.87-2.79,5.79-6.07-.07-3.23-2.71-5.8-5.93-5.8-.05,0-.09,0-.14,0h0c2.29-2.35,2.25-6.1-.1-8.39-1.15-1.13-2.65-1.69-4.15-1.69-1.54,0-3.08,.6-4.24,1.79h0c0-3.28-2.66-5.93-5.93-5.93h0Z"/></g><g><circle class="g" cx="1032.03" cy="384.99" r="4.85"/><path d="M1032.03,390.35c-2.95,0-5.35-2.4-5.35-5.35s2.4-5.35,5.35-5.35,5.35,2.4,5.35,5.35-2.4,5.35-5.35,5.35Zm0-9.71c-2.4,0-4.35,1.95-4.35,4.35s1.95,4.35,4.35,4.35,4.35-1.95,4.35-4.35-1.95-4.35-4.35-4.35Z"/></g></g><g><g><path class="a`" d="M1076.37,351.62l-5.17,2.84c-7.71,4.23-17.4,1.41-21.63-6.3l5.17-2.84c7.71-4.23,17.4-1.41,21.63,6.3Z"/><path d="M1063.56,356.92c-5.81,0-11.45-3.08-14.43-8.52l-.24-.44,5.61-3.08c7.94-4.36,17.95-1.44,22.31,6.5l.24,.44-5.61,3.08c-2.5,1.37-5.21,2.02-7.87,2.02Zm-13.31-8.57c4.21,7.13,13.39,9.69,20.7,5.67l4.73-2.59c-4.21-7.13-13.39-9.68-20.7-5.67l-4.73,2.59Z"/></g><g><path class="a`" d="M1055.88,349.42s8.47,3.06,12.04,1.21c3.57-1.85,8.45,.99,8.45,.99"/><path d="M1076.37,352.12c-.08,0-.17-.02-.25-.07-.05-.03-4.69-2.68-7.97-.98-3.72,1.93-12.09-1.06-12.44-1.19-.26-.09-.39-.38-.3-.64,.09-.26,.38-.39,.64-.3,.08,.03,8.31,2.97,11.64,1.24,3.77-1.95,8.72,.88,8.93,1,.24,.14,.32,.44,.18,.68-.09,.16-.26,.25-.43,.25Z"/></g></g><g><g><path class="i" d="M1107.52,342.53c-.07-3.28-2.79-5.87-6.07-5.79h0c2.29-2.35,2.25-6.1-.1-8.39-2.34-2.29-6.1-2.25-8.39,.1h0c0-3.28-2.66-5.93-5.93-5.93s-5.93,2.66-5.93,5.93c0,.53,.07,1.28,.2,2.16-.58-.67-1.1-1.21-1.51-1.55-2.49-2.12-6.24-1.82-8.36,.67s-1.82,6.24,.67,8.36h0c-3.27,.23-5.74,3.06-5.51,6.33,.22,3.27,3.06,5.74,6.32,5.51h0c-2.18,2.45-1.97,6.2,.48,8.38,2.44,2.18,6.19,1.97,8.37-.48h0c.15,3.27,2.92,5.81,6.2,5.66,3.27-.15,5.8-2.92,5.65-6.2h0c2.39,2.23,6.15,2.11,8.38-.29,2.24-2.39,2.11-6.15-.29-8.38h0c3.28-.08,5.87-2.79,5.79-6.07Z"/><path d="M1087.03,323.5c2.72,0,4.93,2.21,4.93,4.94v2.45l1.72-1.75c.94-.96,2.19-1.48,3.53-1.48,1.3,0,2.52,.5,3.45,1.4,.94,.92,1.47,2.15,1.48,3.47,.02,1.32-.48,2.56-1.37,3.47l-.02,.02-.02,.02-1.7,1.75,2.45-.06h.12c2.66,0,4.87,2.16,4.93,4.82,.06,2.72-2.1,4.98-4.83,5.04l-2.43,.07,1.78,1.66c.96,.9,1.52,2.12,1.56,3.44s-.43,2.57-1.32,3.53c-.94,1.01-2.22,1.57-3.61,1.57-1.25,0-2.45-.47-3.37-1.33l-1.79-1.65,.11,2.44c.12,2.72-1.99,5.03-4.7,5.15-.08,0-.15,0-.23,0-2.64,0-4.8-2.07-4.92-4.66v-.09l-.19-2.33-1.56,1.74-.02,.02h0c-.93,1.04-2.27,1.63-3.67,1.63-1.21,0-2.38-.44-3.28-1.25-2.03-1.81-2.21-4.93-.4-6.96l1.65-1.84-2.47,.17c-.12,0-.23,.01-.34,.01-2.58,0-4.74-2.02-4.91-4.59-.09-1.31,.34-2.58,1.2-3.58,.87-.99,2.07-1.59,3.39-1.68l2.67-.16-2.09-1.61c-2.07-1.76-2.32-4.88-.56-6.95,.94-1.1,2.31-1.73,3.76-1.73,1.17,0,2.3,.42,3.2,1.18,.36,.31,.85,.81,1.4,1.45l2.26,2.6-.51-3.4c-.13-.83-.19-1.53-.19-2.01,0-2.72,2.21-4.93,4.93-4.93m0-1c-3.28,0-5.93,2.66-5.93,5.93,0,.53,.07,1.28,.2,2.16-.58-.67-1.1-1.21-1.51-1.55-1.12-.95-2.48-1.42-3.84-1.42-1.68,0-3.34,.71-4.52,2.09-2.12,2.49-1.82,6.24,.67,8.36h0c-3.27,.23-5.74,3.06-5.51,6.33,.21,3.13,2.82,5.53,5.91,5.53,.14,0,.27,0,.41-.01h0c-2.18,2.45-1.97,6.2,.48,8.38,1.13,1.01,2.54,1.51,3.95,1.51,1.63,0,3.26-.67,4.43-1.98h0c.15,3.18,2.77,5.66,5.92,5.66,.09,0,.18,0,.28,0,3.27-.15,5.8-2.92,5.65-6.2h0c1.14,1.07,2.6,1.59,4.05,1.59,1.59,0,3.17-.63,4.34-1.88,2.24-2.39,2.11-6.15-.29-8.38h0c3.28-.08,5.87-2.79,5.79-6.07-.07-3.23-2.71-5.8-5.93-5.8-.05,0-.09,0-.14,0h0c2.29-2.35,2.25-6.1-.1-8.39-1.15-1.13-2.65-1.69-4.15-1.69-1.54,0-3.08,.6-4.24,1.79h0c0-3.28-2.66-5.93-5.93-5.93h0Z"/></g><g><circle class="g" cx="1087.03" cy="342.99" r="4.85"/><path d="M1087.03,348.35c-2.95,0-5.35-2.4-5.35-5.35s2.4-5.35,5.35-5.35,5.35,2.4,5.35,5.35-2.4,5.35-5.35,5.35Zm0-9.71c-2.4,0-4.35,1.95-4.35,4.35s1.95,4.35,4.35,4.35,4.35-1.95,4.35-4.35-1.95-4.35-4.35-4.35Z"/></g></g><g><rect class="u" x="895.52" y="414.5" width="208" height="18"/><path d="M1102.52,415.5v16h-206v-16h206m1-1h-208v18h208v-18h0Z"/></g></g><g><path class="ac" d="M640.85,466.27s18.93,13.82,20.55-37.23l.12,54.45h-20.67v-17.23Z"/><path d="M662.02,484h-21.67v-18.71l.79,.58s4.17,2.96,8.54,.82c4.65-2.28,10.37-10.66,11.22-37.66h1l.12,54.97Zm-20.67-1h19.67l-.09-40.39c-1.68,13.9-5.3,22.28-10.82,24.98-3.76,1.83-7.24,.41-8.76-.42v15.83Z"/></g><g><path class="af" d="M727.83,460.06s1.44,22.94,15.82,23.44h-16.12l.31-23.44Z"/><path d="M743.65,484h-16.63l.31-23.95,1-.02c0,.06,.38,5.75,2.49,11.41,2.79,7.47,7.11,11.36,12.84,11.56l-.02,1Zm-15.62-1h11.06c-6.62-2.86-9.56-11.18-10.83-16.96l-.22,16.96Z"/></g><g><polygon class="l" points="262.52 484 640.52 484 629.02 474 262.52 471.5 262.52 484"/><path d="M641.86,484.5H262.02v-13.5h.5l366.69,2.5,12.65,11Zm-378.84-1h376.16l-10.35-9-365.81-2.5v11.5Z"/></g><g><polygon class="t" points="629.02 473.57 629.02 14.2 641.02 1.5 640.52 484 629.02 473.57"/><path d="M641.02,485.13l-12.5-11.34V14L641.52,.24V1.5l-.5,483.63Zm-11.5-11.78l10.5,9.53,.5-480.11-11,11.64V473.34Z"/></g><g><path class="af" d="M640.52,484l-11.5-10.43-69.31-.04c35.53,1.84,72.35,3.44,80.81,10.47Z"/><path d="M640.2,484.38c-7.97-6.62-42.5-8.4-75.9-10.12l-4.62-.24,.03-1,69.51,.04,11.64,10.56-.66,.75Zm-61.2-10.35c25.26,1.39,47.67,3.14,57.9,7.35l-8.07-7.33-49.83-.03Z"/></g><polygon class="j" points="629.02 262.5 640.73 283.5 660.85 296.01 702.52 375.14 727.35 407.14 727.35 436.12 702.65 400.47 666.98 357.08 641.02 301.23 629.02 324.91 629.02 262.5"/><g class="ah"><polygon class="i" points="629.02 102.45 641.02 171.28 677.37 264.02 675.52 283.5 640.83 190.16 629.02 250.08 629.02 102.45"/></g><g><polygon class="l" points="731.14 473.53 910.14 473.53 912.52 483.5 743.65 483.5 727.52 483.5 731.14 473.53"/><path d="M913.16,484h-186.35l3.98-10.97h179.75l2.62,10.97Zm-184.92-1h183.65l-2.14-8.97h-178.26l-3.25,8.97Z"/></g><g class="ah"><path class="i" d="M765.26,473.53s.98,9.47-10.13,9.97l129.21,.5s-94.86-4.95-95.59-10.47h-23.49Z"/></g><g><path class="af" d="M936.82,483.01c9.4,4.32,28.64,10.79,42.91,14.71,14.27,3.92,23.86,5.58,28.88,5.69,5.69,.12,6.49-1.52,15.42-.2,8.93,1.31,31.27,7.49,44.79,13.04,7.62,3.13,9.53,4.86,15.32,7.57,11.64,5.44,37.91,14.06,54.34,18.16,16.43,4.1,23.73,4.29,23.55,2.18s-6.75-6.22-13.26-10.26c-5.07-2.55-17.15-5.2-27.05-8.1-11.94-3.49-23.06-8.52-21.58-9.29s10.73,1.22,19.5,3.16c-9.62-4.67-9.66-6.79-.08-5.26l-60.3-12.3c-2.66-.54-5.47-1.12-9.27-2.2-14.52-4.1-24.44-9.47-23.9-10.87,1.22-3.22,14.18-2.59,36.4,1.75,23.72,8.56,48.53,13.78,45.84,10.36-2.69-3.42-19.33-9.93-40.29-18.14h-131.21Z"/><path d="M1158.44,545.97c-4.81,0-13.08-1.77-20.09-3.52-15.7-3.92-42.32-12.53-54.43-18.19-2.33-1.09-4.06-2.03-5.73-2.94-2.58-1.41-5.03-2.75-9.58-4.61-13.14-5.4-35.55-11.67-44.67-13.01-5.52-.81-7.83-.49-10.27-.15-1.44,.2-2.93,.4-5.09,.36-5.75-.12-16.05-2.15-29-5.71-13.34-3.67-33.06-10.18-42.98-14.74l-2.08-.95,133.67,.03c21.07,8.25,37.72,14.77,40.5,18.29,.48,.61,.3,1.05,.15,1.25-1.84,2.55-27.13-3.83-46.55-10.84-31.56-6.17-35.35-3.12-35.76-2.04,.23,1.04,8.75,6.03,23.57,10.21,3.87,1.09,6.72,1.67,9.23,2.19l60.3,12.3-.18,.98c-6.01-.96-6.56-.21-6.58-.18,0,.03,.02,1.13,6.96,4.5l3.82,1.85-4.15-.92c-6.26-1.38-16.49-3.63-18.82-3.3,1.55,1.34,10.24,5.27,21.15,8.46,3.15,.92,6.53,1.82,9.81,2.69,7.11,1.89,13.82,3.68,17.32,5.44,8.07,5.01,13.34,8.45,13.53,10.66,.04,.43-.13,.82-.47,1.11-.62,.53-1.89,.75-3.6,.75Zm-140.45-43.78c1.56,0,3.49,.13,6.1,.52,9.18,1.35,31.7,7.65,44.91,13.07,4.6,1.89,7.18,3.3,9.67,4.66,1.66,.91,3.37,1.84,5.67,2.92,12.06,5.64,38.59,14.22,54.25,18.13,14.99,3.74,21.61,4,22.8,2.98,.12-.1,.13-.18,.13-.27-.16-1.88-7.29-6.31-13.02-9.88-3.37-1.69-10.04-3.47-17.09-5.34-3.28-.87-6.68-1.78-9.83-2.7-8.87-2.59-21.88-7.59-22.07-9.52-.03-.29,.12-.55,.4-.7,1.29-.67,6.5,.22,16.14,2.3-4.55-2.56-4.25-3.51-4.11-3.96,.11-.33,.36-.65,1.05-.83l-53.84-10.99c-2.53-.52-5.4-1.1-9.31-2.21-12.88-3.64-23.07-8.58-24.16-10.75-.17-.35-.14-.62-.07-.78,1.35-3.58,13.79-3.1,36.96,1.44,21.87,7.88,43.44,12.51,45.42,11.26-.01-.02-.04-.05-.06-.09-2.61-3.31-19.92-10.09-39.99-17.95h-128.75c9.5,4.07,26.64,9.88,40.68,13.74,17.37,4.77,25.47,5.6,28.75,5.67,2.07,.05,3.47-.15,4.93-.35,1.3-.18,2.62-.37,4.45-.37Z"/></g><g class="ah"><path class="i" d="M755.7,242.75s64.38,9.42,89.85,7.33c3.85-.31,7.34,1.41,8.8,4.98,.43,1.04,.64,2.18,1.3,3.09,1.1,1.51,3.42,1.95,5,.96s2.17-3.29,1.28-4.93c.89,1.02,2.31,1.53,3.65,1.31-.69-1.64-.21-3.7,1.14-4.86s3.46-1.34,4.98-.41c.43,.26,.83,.61,1.31,.73,1.46,.38,2.55-1.23,3.69-2.23,2.84-2.48,7.21-1.27,10.73,.08l6.96,2.65c1.63,.62,3.49,1.24,5.05,.47,1.55-.76,2.23-2.69,2.03-4.4s-1.12-3.25-2.07-4.69l-143.71-.08Z"/></g><g class="ah"><polygon class="i" points="447.8 248.39 629.02 242.5 454.14 242 447.8 248.39"/></g><g class="ai"><path class="i" d="M496.52,168.5c-10.13,124.87-5.21,238.55,63.19,305.03,67.98,134.25,350.83,235.45,614.81,295.97H447.52c145.94-97.52,84.78-196.4,41.53-297.15,15.29-75.88-5.23-152.96-34.91-230.35l42.38-73.5Z"/></g><g><g><g><g><path class="r" d="M699.06,305.12h.38c1.29,0,2.33,1.05,2.33,2.33v4.16h-5.05v-4.16c0-1.29,1.05-2.33,2.33-2.33Z" transform="translate(191.63 -262.92) rotate(24.58)"/><path d="M700.44,313.03l-5.5-2.52,1.94-4.24c.32-.69,.88-1.21,1.59-1.48,.71-.26,1.48-.24,2.17,.08l.35,.16c1.42,.65,2.05,2.34,1.4,3.76l-1.94,4.24Zm-4.18-3.01l3.68,1.68,1.52-3.33c.42-.92,.01-2.01-.91-2.43l-.35-.16c-.44-.2-.95-.22-1.4-.05-.46,.17-.83,.51-1.03,.96l-1.52,3.33Z"/></g><g><path class="r" d="M694.5,304.99h.38c1.29,0,2.33,1.05,2.33,2.33v4.16h-5.05v-4.16c0-1.29,1.05-2.33,2.33-2.33Z" transform="translate(-32.72 88.05) rotate(-7.09)"/><path d="M692.15,312.33l-.58-4.62c-.19-1.55,.91-2.97,2.46-3.16l.38-.05c.75-.09,1.49,.11,2.09,.58s.98,1.14,1.07,1.89l.57,4.62-6,.75Zm2.62-6.85c-.08,0-.15,0-.23,.01l-.38,.05c-1,.12-1.72,1.04-1.59,2.05l.45,3.63,4.02-.5-.45-3.63c-.06-.49-.31-.92-.69-1.22-.33-.25-.72-.39-1.12-.39Z"/></g><g><path class="r" d="M690.24,306.57h.38c1.29,0,2.33,1.05,2.33,2.33v4.16h-5.05v-4.16c0-1.29,1.05-2.33,2.33-2.33Z" transform="translate(-50.63 463.12) rotate(-35.86)"/><path d="M690.17,314.62l-2.73-3.78c-.92-1.27-.63-3.04,.64-3.96l.31-.22c1.27-.92,3.04-.63,3.96,.64l2.73,3.78-4.9,3.54Zm-.12-7.49c-.37,0-.75,.11-1.07,.35l-.31,.22c-.82,.59-1,1.74-.41,2.56l2.14,2.97,3.28-2.37-2.14-2.96c-.36-.5-.92-.76-1.49-.76Z"/></g><g><path class="r" d="M686.63,308.73h.38c1.29,0,2.33,1.05,2.33,2.33v4.16h-5.05v-4.16c0-1.29,1.05-2.33,2.33-2.33Z" transform="translate(-52.58 461.42) rotate(-35.86)"/><path d="M686.56,316.79l-2.73-3.78c-.92-1.27-.63-3.04,.64-3.96l.31-.22c1.27-.92,3.04-.63,3.96,.64l2.73,3.78-4.9,3.54Zm-.12-7.49c-.37,0-.75,.11-1.07,.35l-.31,.22c-.82,.59-1,1.74-.41,2.56l2.14,2.96,3.28-2.37-2.14-2.97c-.36-.5-.92-.76-1.49-.76Z"/></g><g><path class="r" d="M703.5,307.46h.38c1.29,0,2.33,1.05,2.33,2.33v4.16h-5.05v-4.16c0-1.29,1.05-2.33,2.33-2.33Z" transform="translate(476.48 -424.21) rotate(49)"/><path d="M702.85,315.45l-3.97-4.57,3.52-3.06c1.18-1.03,2.97-.9,4,.28l.25,.29c.5,.57,.74,1.3,.69,2.06s-.4,1.45-.97,1.94l-3.52,3.06Zm-2.56-4.47l2.66,3.06,2.76-2.4c.37-.32,.59-.77,.63-1.26,.03-.49-.12-.96-.45-1.33l-.25-.29c-.66-.76-1.82-.85-2.59-.18l-2.76,2.4Z"/></g><g><path class="r" d="M706.52,311.26h.38c1.29,0,2.33,1.05,2.33,2.33v4.16h-5.05v-4.16c0-1.29,1.05-2.33,2.33-2.33Z" transform="translate(765.23 -456.81) rotate(70.35)"/><path d="M704.2,318.62l-2.03-5.7,4.39-1.57c.71-.25,1.48-.22,2.17,.11,.68,.32,1.2,.9,1.46,1.61l.13,.36c.25,.71,.22,1.48-.11,2.17-.32,.68-.9,1.2-1.61,1.46l-4.39,1.57Zm-.76-5.09l1.36,3.81,3.45-1.23c.95-.34,1.45-1.39,1.11-2.35l-.13-.36c-.17-.46-.5-.83-.94-1.04-.45-.21-.94-.23-1.4-.07l-3.45,1.23Z"/></g><g><path class="r" d="M708.09,316.61h.38c1.29,0,2.33,1.05,2.33,2.33v4.16h-5.05v-4.16c0-1.29,1.05-2.33,2.33-2.33Z" transform="translate(950.08 -418.73) rotate(83.82)"/><path d="M704.88,323.26l-.65-6.02,4.63-.5c1.56-.17,2.96,.96,3.12,2.51l.04,.38c.17,1.55-.96,2.96-2.51,3.12l-4.63,.5Zm.45-5.13l.44,4.03,3.64-.39c1.01-.11,1.74-1.02,1.63-2.02l-.04-.38c-.11-1.01-1.04-1.74-2.02-1.63l-3.64,.39Z"/></g><g><path class="r" d="M707.45,321.84h.38c1.29,0,2.33,1.05,2.33,2.33v4.16h-5.05v-4.16c0-1.29,1.05-2.33,2.33-2.33Z" transform="translate(1183.37 -291.45) rotate(102.98)"/><path d="M708.48,328.31c-.21,0-.42-.02-.64-.07l-4.54-1.05,1.36-5.9,4.54,1.05c.74,.17,1.37,.62,1.77,1.26,.4,.64,.53,1.4,.36,2.14l-.08,.37c-.3,1.31-1.47,2.2-2.76,2.2Zm-3.98-1.87l3.57,.82c.98,.23,1.97-.39,2.2-1.38l.08-.37c.11-.48,.03-.97-.23-1.39-.26-.42-.67-.71-1.14-.81l-3.56-.82-.91,3.95Z"/></g><g><path class="r" d="M705.48,326.06h.38c1.29,0,2.33,1.05,2.33,2.33v4.16h-5.05v-4.16c0-1.29,1.05-2.33,2.33-2.33Z" transform="translate(1342.83 -118.4) rotate(119.89)"/><path d="M706.36,332.76c-.48,0-.96-.12-1.41-.38l-4.04-2.32,3.01-5.25,4.04,2.32c.66,.38,1.13,.99,1.32,1.72,.2,.73,.1,1.5-.28,2.15l-.19,.33c-.52,.91-1.48,1.42-2.46,1.42Zm-4.08-3.07l3.17,1.82c.88,.51,2,.2,2.5-.68l.19-.33c.24-.43,.31-.92,.18-1.39-.13-.47-.43-.87-.86-1.11l-3.17-1.82-2.02,3.51Z"/></g><g><path class="r" d="M701.87,330.39h.38c1.29,0,2.33,1.05,2.33,2.33v4.16h-5.05v-4.16c0-1.29,1.05-2.33,2.33-2.33Z" transform="translate(1341.18 -108.78) rotate(119.89)"/><path d="M702.75,337.09c-.48,0-.96-.12-1.41-.38l-4.04-2.32,3.01-5.25,4.04,2.32c.66,.38,1.13,.99,1.32,1.72,.2,.73,.1,1.5-.28,2.15l-.19,.33c-.52,.91-1.48,1.42-2.46,1.42Zm-4.08-3.07l3.17,1.82c.88,.51,2,.2,2.5-.68l.19-.33c.24-.43,.31-.92,.18-1.39-.13-.47-.43-.87-.86-1.11l-3.17-1.82-2.02,3.51Z"/></g><g><path class="r" d="M698.26,334.71h.38c1.29,0,2.33,1.05,2.33,2.33v4.16h-5.05v-4.16c0-1.29,1.05-2.33,2.33-2.33Z" transform="translate(1339.52 -99.17) rotate(119.89)"/><path d="M699.14,341.41c-.48,0-.96-.12-1.41-.38l-4.04-2.32,3.01-5.25,4.04,2.32c.66,.38,1.13,.99,1.32,1.72,.2,.73,.1,1.5-.28,2.15l-.19,.33c-.52,.91-1.48,1.42-2.46,1.42Zm-4.08-3.07l3.17,1.82c.88,.5,2,.2,2.5-.68l.19-.33c.24-.43,.31-.92,.18-1.39-.13-.47-.43-.87-.86-1.11l-3.17-1.82-2.02,3.51Z"/></g><g><path class="r" d="M694.66,339.04h.38c1.29,0,2.33,1.05,2.33,2.33v4.16h-5.05v-4.16c0-1.29,1.05-2.33,2.33-2.33Z" transform="translate(1337.87 -89.56) rotate(119.89)"/><path d="M695.54,345.75c-.49,0-.97-.13-1.41-.38l-4.04-2.32,3.01-5.25,4.04,2.32c.66,.38,1.13,.99,1.32,1.72,.2,.73,.1,1.5-.28,2.15l-.19,.33c-.38,.66-.99,1.13-1.72,1.32-.25,.07-.5,.1-.74,.1Zm-4.08-3.07l3.17,1.82c.88,.5,2,.2,2.5-.68l.19-.33c.24-.43,.31-.92,.18-1.39-.13-.47-.43-.87-.86-1.11l-3.17-1.82-2.02,3.51Z"/></g><g><path class="r" d="M690.89,342.76h.38c1.29,0,2.33,1.05,2.33,2.33v4.16h-5.05v-4.16c0-1.29,1.05-2.33,2.33-2.33Z" transform="translate(1442.11 163.62) rotate(139.75)"/><path d="M691.53,349.66c-.81,0-1.61-.34-2.17-1l-3.01-3.56,4.62-3.91,3.01,3.56c1.01,1.19,.86,2.99-.33,4l-.29,.25c-.53,.45-1.18,.67-1.83,.67Zm-3.77-4.44l2.36,2.79c.32,.37,.76,.6,1.25,.64,.5,.04,.96-.11,1.34-.43l.29-.25c.77-.65,.87-1.81,.21-2.59l-2.36-2.79-3.09,2.62Z"/></g><g><path class="r" d="M687.28,344.93h.38c1.29,0,2.33,1.05,2.33,2.33v4.16h-5.05v-4.16c0-1.29,1.05-2.33,2.33-2.33Z" transform="translate(1437.15 169.77) rotate(139.75)"/><path d="M687.92,351.82c-.81,0-1.61-.34-2.17-1l-3.01-3.56,4.62-3.91,3.01,3.56c.49,.58,.72,1.31,.66,2.07-.06,.75-.42,1.44-.99,1.93l-.29,.25c-.53,.45-1.18,.67-1.83,.67Zm-3.77-4.44l2.36,2.79c.32,.37,.76,.6,1.25,.64,.5,.04,.96-.11,1.34-.43l.29-.25c.37-.32,.6-.76,.64-1.25,.04-.49-.11-.96-.43-1.34l-2.36-2.79-3.09,2.62Z"/></g><g><path class="r" d="M667.27,305.12h5.05v4.16c0,1.29-1.05,2.33-2.33,2.33h-.38c-1.29,0-2.33-1.05-2.33-2.33v-4.16h0Z" transform="translate(1407.16 310.19) rotate(155.42)"/><path d="M668.6,313.03l-1.94-4.24c-.65-1.42-.02-3.11,1.4-3.76l.35-.16c.69-.32,1.46-.34,2.17-.08,.71,.26,1.27,.79,1.59,1.48l1.94,4.24-5.5,2.52Zm.99-7.41c-.26,0-.52,.06-.76,.17l-.35,.16c-.45,.2-.79,.57-.96,1.03-.17,.46-.15,.96,.05,1.4l1.52,3.33,3.68-1.68-1.52-3.33c-.2-.45-.57-.79-1.03-.96-.21-.08-.42-.12-.64-.12Z"/></g><g><path class="r" d="M671.83,304.99h5.05v4.16c0,1.29-1.05,2.33-2.33,2.33h-.38c-1.29,0-2.33-1.05-2.33-2.33v-4.16h0Z" transform="translate(1305.54 697.3) rotate(-172.91)"/><path d="M676.9,312.33l-6-.75,.58-4.62c.19-1.55,1.61-2.66,3.16-2.46l.38,.05c1.55,.19,2.66,1.61,2.46,3.16l-.57,4.62Zm-4.89-1.62l4.02,.5,.45-3.63c.12-1-.59-1.92-1.59-2.05l-.38-.05c-1.01-.12-1.92,.59-2.05,1.59l-.45,3.63Z"/></g><g><path class="r" d="M676.09,306.57h5.05v4.16c0,1.29-1.05,2.33-2.33,2.33h-.38c-1.29,0-2.33-1.05-2.33-2.33v-4.16h0Z" transform="translate(1047.16 958.41) rotate(-144.14)"/><path d="M678.87,314.62l-4.9-3.54,2.73-3.78c.92-1.27,2.69-1.55,3.96-.64l.31,.22c.61,.44,1.02,1.1,1.14,1.85,.12,.75-.06,1.5-.5,2.11l-2.73,3.78Zm-3.51-3.77l3.28,2.37,2.14-2.97c.29-.4,.4-.88,.32-1.37-.08-.48-.34-.91-.74-1.2l-.31-.22c-.4-.29-.88-.4-1.37-.32-.48,.08-.91,.34-1.2,.74l-2.14,2.96Z"/></g><g><path class="r" d="M679.7,308.73h5.05v4.16c0,1.29-1.05,2.33-2.33,2.33h-.38c-1.29,0-2.33-1.05-2.33-2.33v-4.16h0Z" transform="translate(1052.42 964.44) rotate(-144.14)"/><path d="M682.48,316.79l-4.9-3.54,2.73-3.78c.92-1.27,2.69-1.55,3.96-.64l.31,.22c1.27,.92,1.55,2.69,.64,3.96l-2.73,3.78Zm-3.51-3.77l3.28,2.37,2.14-2.96c.59-.82,.41-1.97-.41-2.56l-.31-.22c-.82-.59-1.97-.41-2.56,.41l-2.14,2.97Z"/></g><g><path class="r" d="M662.1,306.74h5.05v4.16c0,1.29-1.05,2.33-2.33,2.33h-.38c-1.29,0-2.33-1.05-2.33-2.33v-4.16h0Z" transform="translate(1334.63 11.79) rotate(131)"/><path d="M665.47,314.73l-3.52-3.06c-1.18-1.03-1.3-2.82-.28-4l.25-.29c.5-.57,1.19-.92,1.94-.97,.75-.05,1.49,.19,2.06,.69l3.52,3.06-3.97,4.57Zm-1.4-7.32s-.09,0-.13,0c-.49,.03-.94,.26-1.26,.63l-.25,.29c-.66,.76-.58,1.92,.18,2.59l2.76,2.4,2.66-3.06-2.76-2.4c-.34-.29-.76-.45-1.2-.45Z"/></g><g><path class="r" d="M659.08,310.54h5.05v4.16c0,1.29-1.05,2.33-2.33,2.33h-.38c-1.29,0-2.33-1.05-2.33-2.33v-4.16h0Z" transform="translate(1179.62 -203.76) rotate(109.65)"/><path d="M664.12,317.9l-4.39-1.57c-1.47-.53-2.24-2.15-1.72-3.62l.13-.36c.25-.71,.77-1.28,1.46-1.61,.68-.32,1.45-.36,2.17-.11l4.39,1.57-2.04,5.7Zm-3.31-6.43c-.27,0-.53,.06-.78,.18-.44,.21-.78,.58-.94,1.04l-.13,.36c-.16,.46-.14,.96,.07,1.4,.21,.44,.58,.78,1.04,.94l3.45,1.23,1.36-3.81-3.45-1.23c-.2-.07-.41-.11-.62-.11Z"/></g><g><path class="r" d="M658.24,316.61h5.05v4.16c0,1.29-1.05,2.33-2.33,2.33h-.38c-1.29,0-2.33-1.05-2.33-2.33v-4.16h0Z" transform="translate(1049.84 -302.67) rotate(96.18)"/><path d="M664.16,323.26l-4.63-.5c-.75-.08-1.43-.45-1.9-1.04-.47-.59-.69-1.33-.61-2.08l.04-.38c.08-.75,.45-1.43,1.04-1.9,.59-.47,1.33-.69,2.08-.61l4.63,.5-.65,6.02Zm-4.29-5.53c-.92,0-1.72,.7-1.82,1.64l-.04,.38c-.05,.49,.09,.97,.39,1.35s.74,.62,1.23,.67l3.64,.39,.44-4.03-3.64-.39c-.07,0-.13-.01-.2-.01Z"/></g><g><path class="r" d="M658.88,321.84h5.05v4.16c0,1.29-1.05,2.33-2.33,2.33h-.38c-1.29,0-2.33-1.05-2.33-2.33v-4.16h0Z" transform="translate(829.61 -392.44) rotate(77.02)"/><path d="M660.56,328.31c-1.29,0-2.46-.89-2.76-2.2l-.09-.37c-.17-.74-.04-1.5,.36-2.14,.4-.64,1.03-1.09,1.77-1.26l4.54-1.05,1.36,5.9-4.54,1.05c-.21,.05-.43,.07-.64,.07Zm3.07-5.82l-3.56,.82c-.48,.11-.88,.4-1.14,.81-.26,.42-.34,.91-.23,1.39l.09,.37c.11,.48,.4,.88,.81,1.14,.42,.26,.91,.34,1.39,.23l3.56-.82-.91-3.95Z"/></g><g><path class="r" d="M660.85,326.06h5.05v4.16c0,1.29-1.05,2.33-2.33,2.33h-.38c-1.29,0-2.33-1.05-2.33-2.33v-4.16h0Z" transform="translate(618.29 -409.94) rotate(60.11)"/><path d="M662.68,332.76c-.98,0-1.94-.51-2.46-1.42l-.19-.33c-.78-1.36-.31-3.09,1.05-3.87l4.04-2.32,3.01,5.25-4.04,2.32c-.44,.25-.93,.38-1.41,.38Zm2.06-6.58l-3.17,1.82c-.88,.5-1.18,1.63-.68,2.51l.19,.33c.5,.88,1.63,1.18,2.51,.68l3.17-1.82-2.02-3.51Z"/></g><g><path class="r" d="M664.46,330.39h5.05v4.16c0,1.29-1.05,2.33-2.33,2.33h-.38c-1.29,0-2.33-1.05-2.33-2.33v-4.16h0Z" transform="translate(623.86 -410.89) rotate(60.11)"/><path d="M666.29,337.09c-.98,0-1.94-.51-2.46-1.42l-.19-.33c-.78-1.36-.31-3.09,1.04-3.87l4.04-2.32,3.01,5.25-4.04,2.32c-.44,.25-.93,.38-1.41,.38Zm2.06-6.58l-3.17,1.82c-.88,.5-1.18,1.63-.68,2.51l.19,.33c.5,.88,1.63,1.18,2.51,.68l3.17-1.82-2.02-3.51Z"/></g><g><path class="r" d="M668.06,334.71h5.05v4.16c0,1.29-1.05,2.33-2.33,2.33h-.38c-1.29,0-2.33-1.05-2.33-2.33v-4.16h0Z" transform="translate(629.42 -411.85) rotate(60.11)"/><path d="M669.9,341.41c-.98,0-1.94-.51-2.46-1.42l-.19-.33c-.78-1.36-.31-3.09,1.05-3.87l4.04-2.32,3.01,5.25-4.04,2.32c-.44,.25-.93,.38-1.41,.38Zm2.06-6.58l-3.17,1.82c-.88,.5-1.18,1.63-.68,2.51l.19,.33c.5,.88,1.63,1.18,2.51,.68l3.17-1.82-2.02-3.51Z"/></g><g><path class="r" d="M671.67,339.04h5.05v4.16c0,1.29-1.05,2.33-2.33,2.33h-.38c-1.29,0-2.33-1.05-2.33-2.33v-4.16h0Z" transform="translate(634.98 -412.8) rotate(60.11)"/><path d="M673.51,345.75c-.25,0-.5-.03-.74-.1-.73-.2-1.34-.67-1.72-1.32l-.19-.33c-.38-.66-.48-1.42-.28-2.15,.2-.73,.67-1.34,1.32-1.72l4.04-2.32,3.01,5.25-4.04,2.32c-.44,.25-.92,.38-1.41,.38Zm2.06-6.58l-3.17,1.82c-.88,.5-1.18,1.63-.68,2.51l.19,.33c.5,.88,1.63,1.18,2.51,.68l3.17-1.82-2.02-3.51Z"/></g><g><path class="r" d="M675.44,342.76h5.05v4.16c0,1.29-1.05,2.33-2.33,2.33h-.38c-1.29,0-2.33-1.05-2.33-2.33v-4.16h0Z" transform="translate(384.03 -356.1) rotate(40.25)"/><path d="M677.52,349.66c-.65,0-1.3-.22-1.83-.67l-.29-.25c-.58-.49-.93-1.17-.99-1.93-.06-.75,.17-1.49,.66-2.07l3.01-3.56,4.62,3.91-3.01,3.56c-.56,.66-1.36,1-2.17,1Zm.67-7.06l-2.36,2.79c-.32,.37-.47,.85-.43,1.34s.27,.93,.64,1.25l.29,.25c.37,.32,.84,.47,1.34,.43,.49-.04,.93-.27,1.25-.64l2.36-2.79-3.09-2.62Z"/></g><g><path class="r" d="M679.04,344.93h5.05v4.16c0,1.29-1.05,2.33-2.33,2.33h-.38c-1.29,0-2.33-1.05-2.33-2.33v-4.16h0Z" transform="translate(386.28 -357.92) rotate(40.25)"/><path d="M681.12,351.82c-.65,0-1.3-.22-1.83-.67l-.29-.25c-.58-.49-.93-1.17-.99-1.93-.06-.75,.17-1.49,.66-2.07l3.01-3.56,4.62,3.91-3.01,3.56c-.56,.66-1.36,1-2.17,1Zm.67-7.06l-2.36,2.79c-.32,.37-.47,.85-.43,1.34,.04,.49,.27,.93,.64,1.25l.29,.25c.37,.32,.84,.47,1.34,.43,.49-.04,.93-.27,1.25-.64l2.36-2.79-3.09-2.62Z"/></g><g><path class="r" d="M684.11,312.88h.38c1.29,0,2.33,1.05,2.33,2.33v4.16h-5.05v-4.16c0-1.29,1.05-2.33,2.33-2.33Z" transform="translate(19.07 -38.37) rotate(3.26)"/><path d="M687.11,320.04l-6.04-.34,.27-4.65c.09-1.56,1.41-2.78,2.99-2.67l.38,.02c.76,.04,1.45,.38,1.96,.94,.5,.56,.76,1.29,.71,2.05l-.26,4.65Zm-4.99-1.29l4.04,.23,.21-3.65c.03-.49-.14-.96-.46-1.33s-.78-.58-1.27-.61l-.38-.02c-1-.06-1.88,.72-1.94,1.73l-.21,3.65Z"/></g><g><path class="r" d="M684.55,345.57h.38c1.29,0,2.33,1.05,2.33,2.33v4.16h-5.05v-4.16c0-1.29,1.05-2.33,2.33-2.33Z" transform="translate(1348.56 735.97) rotate(-176.74)"/><path d="M684.88,352.57c-.05,0-.11,0-.17,0l-.38-.02c-1.56-.09-2.76-1.43-2.67-2.99l.26-4.65,6.04,.34-.26,4.65c-.04,.76-.38,1.45-.94,1.95-.52,.47-1.19,.72-1.88,.72Zm-2.01-6.61l-.21,3.65c-.06,1.01,.72,1.88,1.73,1.94l.38,.02c.49,.03,.96-.14,1.33-.46s.58-.78,.61-1.26l.21-3.65-4.04-.23Z"/></g><g><path class="x" d="M683.16,347.36c-6.61-5.6-12.86-10.89-17.89-17.38-3.59-4.64-4.99-8.36-4.65-12.43,.35-4.28,3.31-7.85,7.53-9.09,.9-.26,1.84-.4,2.8-.4,3.22,0,6.29,1.49,8.2,3.98,.21,.27,.4,.55,.63,.87,.17,.25,.36,.51,.56,.8l4.13,5.78,4.21-5.96c.22-.31,.42-.59,.62-.86l.74-.97c.73-.86,1.56-1.56,2.5-2.13,1.65-.99,3.52-1.52,5.43-1.52,1.08,0,2.15,.17,3.19,.5,4.19,1.34,7.07,5.25,7.16,9.73,.09,3.91-1.38,7.48-4.91,11.97-4.61,5.88-10.15,10.73-16.91,16.45-.68,.58-1.36,1.16-2.05,1.74-.43-.37-.86-.73-1.29-1.09Z"/><path d="M684.45,349.11l-1.62-1.37c-6.63-5.62-12.89-10.92-17.97-17.45-3.68-4.75-5.1-8.57-4.76-12.77,.37-4.49,3.46-8.23,7.89-9.53,.95-.28,1.94-.42,2.94-.42,3.38,0,6.59,1.56,8.6,4.18,.2,.25,.38,.52,.58,.81,.23,.32,.41,.58,.62,.88l3.72,5.2,3.89-5.5c.19-.27,.37-.52,.55-.76l.74-.97c.77-.91,1.66-1.66,2.64-2.25,2.69-1.62,6.03-2.02,9.03-1.07,4.4,1.41,7.41,5.5,7.51,10.2,.09,4.03-1.41,7.7-5.02,12.29-4.64,5.91-10.2,10.78-16.98,16.53-.68,.58-1.36,1.15-2.05,1.74l-.32,.28Zm-.97-2.13l.97,.82c.58-.49,1.16-.98,1.73-1.47,6.74-5.71,12.26-10.54,16.84-16.38,3.45-4.39,4.89-7.87,4.8-11.65-.09-4.27-2.83-7.99-6.82-9.27-2.73-.87-5.76-.51-8.21,.97-.89,.54-1.69,1.22-2.38,2.02l-.72,.95c-.18,.23-.35,.47-.53,.73l-4.7,6.65-4.54-6.35c-.21-.29-.4-.56-.57-.81-.25-.36-.43-.61-.61-.85-1.82-2.37-4.74-3.78-7.81-3.78-.91,0-1.8,.13-2.66,.38-4.03,1.18-6.84,4.58-7.18,8.65-.32,3.94,1.04,7.55,4.55,12.08,5.01,6.44,11.23,11.72,17.82,17.3h0Z"/></g></g><g><path class="i" d="M697.68,311.53c-2.32,0-2.33,3.61,0,3.61s2.32-3.61,0-3.61Z"/><path d="M697.68,312.53c.69,0,.74,.61,.74,.8s-.05,.8-.74,.8c-.24,0-.42-.07-.55-.21-.12-.14-.19-.36-.19-.59,0-.19,.05-.8,.74-.8m0-1c-2.32,0-2.33,3.61,0,3.61s2.32-3.61,0-3.61h0Z"/></g><g><path class="i" d="M703.56,315.24c-.29-.39-.59-.7-1.08-.83-.43-.12-1.01-.07-1.39,.18-.75,.48-1.24,1.65-.65,2.47,.16,.22,.31,.45,.45,.69,.07,.12,.13,.24,.19,.36,.01,.02,.02,.05,.03,.07,.09,.25,.18,.49,.24,.75,.03,.13,.06,.27,.09,.4,0,.04,.02,.09,.02,.13,.02,.25,.04,.51,.04,.76,0,.14,0,.27-.01,.41,0,.04-.01,.14-.02,.22-.01,.08-.03,.17-.04,.21-.03,.13-.06,.27-.09,.4-.08,.28-.17,.55-.28,.82-.17,.4-.03,1.03,.18,1.39,.22,.37,.65,.73,1.08,.83,.46,.11,.98,.08,1.39-.18,.42-.27,.64-.62,.83-1.08,1.06-2.55,.66-5.79-.98-8.01Z"/><path d="M702.01,315.35c.08,0,.15,0,.21,.02,.16,.04,.3,.13,.54,.46,1.42,1.94,1.78,4.83,.86,7.04-.16,.38-.28,.51-.45,.62-.1,.07-.24,.08-.34,.08-.09,0-.19-.01-.28-.03-.12-.03-.34-.19-.44-.36-.09-.15-.14-.42-.12-.5,.14-.33,.24-.63,.33-.95,.04-.15,.08-.31,.11-.46,0-.04,.02-.13,.04-.24v-.11c.02-.09,.03-.18,.03-.22,.01-.16,.02-.31,.02-.47,0-.29-.02-.57-.04-.86v-.1l-.04-.14c-.03-.15-.06-.31-.1-.46-.08-.32-.18-.6-.29-.89-.02-.04-.03-.07-.05-.11-.07-.14-.14-.28-.22-.42-.15-.26-.31-.52-.51-.79-.03-.03-.1-.14-.06-.36,.05-.26,.23-.54,.44-.67,.06-.04,.2-.08,.37-.08m0-1c-.32,0-.66,.08-.92,.24-.75,.48-1.24,1.65-.65,2.47,.16,.22,.31,.45,.45,.69,.07,.12,.13,.24,.19,.36,.01,.02,.02,.05,.03,.07,.09,.25,.18,.49,.24,.75,.03,.13,.06,.27,.09,.4,0,.04,.02,.09,.02,.13,.02,.25,.04,.51,.04,.76,0,.14,0,.27-.01,.41,0,.04-.01,.14-.02,.22-.01,.08-.03,.17-.04,.21-.03,.13-.06,.27-.09,.4-.08,.28-.17,.55-.28,.82-.17,.4-.03,1.03,.18,1.39,.22,.37,.65,.73,1.08,.83,.16,.04,.34,.06,.51,.06,.31,0,.62-.07,.88-.24,.42-.27,.64-.62,.83-1.08,1.06-2.55,.66-5.79-.98-8.01-.29-.39-.59-.7-1.08-.83-.15-.04-.31-.06-.47-.06h0Z"/></g></g><g><g><path class="aa" d="M677.53,325.7c-.32-.25-.64-.52-1.02-.68s-.85-.17-1.18,.08c-.22,.16-.35,.42-.47,.67-.47,1.03-.8,2.18-.54,3.28s1.26,2.09,2.38,2c.94-.07,1.68-.82,2.59-1.1,.95-.29,1.97-.04,2.96,.04,.92,.07,3.01,.13,3.74-.55,1.09-1.02-.84-1.03-1.43-1.07-2.54-.18-5.02-1.11-7.03-2.68Z"/><path d="M675.95,325.91c.06,0,.12,.01,.18,.04,.2,.08,.42,.26,.66,.44l.13,.1c1.49,1.16,3.24,2.01,5.1,2.48-.12-.01-.24-.03-.36-.04-.44-.05-.89-.11-1.35-.11s-.91,.06-1.31,.18c-.48,.15-.9,.38-1.26,.59-.42,.24-.78,.44-1.1,.46h-.06c-.53,0-1.11-.56-1.27-1.23-.16-.71,0-1.57,.48-2.64,.09-.2,.14-.27,.13-.27,0,0,.01,0,.04,0m0-1c-.22,0-.44,.06-.62,.19-.22,.16-.35,.42-.47,.67-.47,1.03-.8,2.18-.54,3.28,.24,1.06,1.17,2.01,2.24,2.01,.05,0,.09,0,.14,0,.94-.07,1.68-.82,2.59-1.1,.33-.1,.67-.14,1.01-.14,.64,0,1.3,.13,1.95,.18,.27,.02,.65,.04,1.07,.04,.98,0,2.16-.12,2.68-.6,1.09-1.02-.84-1.03-1.43-1.07-2.54-.18-5.02-1.11-7.03-2.68-.32-.25-.64-.52-1.02-.68-.18-.07-.37-.11-.56-.11h0Z"/></g><g><path class="v" d="M677.23,334.2c.93,2.42,3.33,3.9,5.58,5.21,.3,.17,.62,.35,.97,.33l-.65-6.64c-.1-1.06-.21-2.12-.5-3.15-.05-.17-.11-.36-.26-.47-.14-.11-.34-.12-.52-.13-1.19-.04-3.92-.72-4.78,.36s-.27,3.41,.16,4.48Z"/><path d="M679,330.1c.56,0,1.19,.08,1.74,.14,.36,.04,.68,.08,.96,.1,.24,.91,.34,1.89,.43,2.85l.49,4.94c-1.99-1.19-3.75-2.47-4.46-4.31-.48-1.19-.71-2.98-.31-3.49,.02-.02,.21-.23,1.14-.23m0-1c-.81,0-1.55,.14-1.93,.61-.82,1.03-.27,3.41,.16,4.48,.93,2.42,3.33,3.9,5.58,5.21,.28,.16,.58,.33,.9,.33,.02,0,.05,0,.07,0-.22-2.21-.44-4.42-.65-6.64-.1-1.06-.21-2.12-.5-3.15-.05-.17-.11-.36-.26-.47-.14-.11-.34-.12-.52-.13-.67-.02-1.82-.25-2.85-.25h0Z"/></g><g><path class="v" d="M687.6,339.17c-.35,.51-.79,.98-1.34,1.27s-1.23,.37-1.8,.12c-.98-.43-1.3-1.63-1.51-2.67l-.63-3.18c-.18-.9-.35-1.89,.11-2.7,.46-.81,1.44-1.19,2.36-1.37,.9-.17,1.84-.22,2.73,.02,2.01,.53,2.24,1.58,1.86,3.35s-.72,3.63-1.77,5.16Z"/><path d="M686.2,331.5h0c.38,0,.74,.04,1.06,.13,1.28,.34,1.46,.68,1.14,2.18l-.1,.45c-.34,1.6-.67,3.12-1.52,4.35-.31,.45-.64,.77-.98,.95-.19,.1-.41,.16-.6,.16-.12,0-.24-.02-.33-.06-.53-.23-.77-1.12-.93-1.95l-.63-3.18c-.16-.78-.27-1.53,0-2.01,.29-.52,1.07-.77,1.68-.88,.43-.08,.85-.13,1.22-.13m0-1c-.47,0-.95,.06-1.41,.15-.92,.18-1.9,.56-2.36,1.37-.45,.8-.29,1.79-.11,2.7l.63,3.18c.21,1.04,.53,2.23,1.51,2.67,.23,.1,.48,.15,.74,.15,.37,0,.74-.1,1.06-.27,.55-.29,.99-.76,1.34-1.27,1.05-1.53,1.38-3.38,1.77-5.16,.39-1.77,.15-2.82-1.86-3.35-.43-.11-.87-.16-1.31-.16h0Z"/></g><g><path class="aa" d="M689.46,326.47c.25-.64,.32-1.38,.76-1.91,.58-.7,1.68-.8,2.49-.4s1.35,1.22,1.65,2.08c.5,1.45,.39,3.07-.11,4.53-.48,1.41-1.62,2.84-3.1,2.74-.62-.04-1.19-.35-1.73-.66-.86-.48-1.72-.97-2.67-1.22s-2-.25-2.87,.21c-.86,.46-1.41,1.41-1.3,2.39-1-1.47-1.58-4.51,.68-5.09,1.23-.31,2.47,0,3.7-.45,1.08-.4,2.07-1.13,2.51-2.22Z"/><path d="M691.69,324.92c.2,0,.4,.05,.57,.13,.66,.33,1.01,1.09,1.15,1.52,.4,1.14,.36,2.52-.11,3.87-.34,1-1.12,2.07-2.01,2.07-.03,0-.05,0-.08,0-.41-.03-.87-.28-1.32-.54-.9-.5-1.83-1.02-2.89-1.31-.51-.14-1.01-.2-1.5-.2-.78,0-1.48,.17-2.1,.5-.26,.14-.5,.31-.71,.51,0-.28,.02-.55,.11-.77,.12-.32,.34-.5,.7-.59,.44-.11,.93-.13,1.44-.14,.71-.02,1.53-.04,2.36-.34,1.49-.55,2.59-1.54,3.09-2.79,.1-.26,.18-.52,.25-.76,.11-.37,.2-.69,.35-.88,.14-.17,.4-.27,.69-.27m0-1c-.56,0-1.11,.21-1.47,.63-.44,.53-.5,1.27-.76,1.91-.44,1.1-1.43,1.83-2.51,2.22-1.23,.45-2.48,.14-3.7,.45-2.26,.58-1.68,3.62-.68,5.09-.11-.98,.45-1.92,1.3-2.39,.5-.27,1.06-.38,1.62-.38,.42,0,.84,.06,1.24,.17,.95,.25,1.81,.74,2.67,1.22,.54,.31,1.11,.62,1.73,.66,.05,0,.1,0,.14,0,1.41,0,2.49-1.39,2.96-2.75,.5-1.45,.61-3.07,.11-4.53-.3-.86-.84-1.67-1.65-2.08-.31-.16-.67-.24-1.02-.24h0Z"/></g><g><path class="aa" d="M683.86,325.22c-.23,.1-.44,.28-.69,.27-.34-.02-.54-.36-.75-.63-.51-.68-1.34-1.07-2.18-1.22s-1.7-.08-2.55-.02c-.34,.03-.71,.07-.93,.33-.19,.22-.2,.56-.1,.83s.3,.5,.51,.71c.41,.41,.86,.78,1.35,1.1,1.6,1.05,3.48,1.51,5.33,1.86,.61,.11,1.72,.55,2.21,0,.45-.51,.2-1.49-.04-2.04-.34-.8-1.25-1.6-2.17-1.18Z"/><path d="M679.11,324.54c.36,0,.68,.02,.96,.07,.4,.07,1.14,.27,1.56,.83l.07,.09c.23,.31,.65,.9,1.43,.94h.08c.43,0,.74-.17,.95-.29,.04-.02,.08-.04,.12-.06,.05-.02,.08-.02,.1-.02,.21,0,.57,.29,.73,.69,.17,.4,.22,.77,.22,.92h0c-.23,0-.55-.08-.83-.15-.16-.04-.32-.08-.45-.1-1.72-.33-3.52-.76-4.97-1.71-.43-.28-.83-.61-1.19-.97-.03-.03-.1-.1-.16-.17h.04c.44-.04,.9-.07,1.34-.07m0-1c-.47,0-.95,.04-1.42,.07-.34,.03-.71,.07-.93,.33-.19,.22-.2,.56-.1,.83s.3,.5,.51,.71c.41,.41,.86,.78,1.35,1.1,1.6,1.05,3.48,1.51,5.33,1.86,.38,.07,.96,.27,1.46,.27,.3,0,.57-.07,.75-.28,.45-.51,.2-1.49-.04-2.04-.27-.65-.93-1.3-1.65-1.3-.17,0-.34,.03-.51,.11-.22,.1-.42,.27-.66,.27h-.03c-.34-.02-.54-.36-.75-.63-.51-.68-1.34-1.07-2.18-1.22-.37-.07-.75-.09-1.13-.09h0Z"/></g><g><path class="aa" d="M682.98,323.62c.52-.23,1.11-.24,1.66-.1,.38,.09,.76,.26,1.15,.19,.6-.1,.98-.69,1.17-1.27s.28-1.2,.65-1.69c.33-.44,.88-.71,1.44-.7s1.09,.29,1.41,.74c.41,.58,.44,1.36,.28,2.05s-.49,1.34-.73,2c-.27,.73-.44,1.51-.83,2.18-.61,1.05-1.76,1.76-2.97,1.84-.17,.01-.37,0-.47-.14-.07-.09-.08-.22-.08-.34l-.03-1.13c0-.4-.04-.85-.35-1.11-.14-.12-.31-.18-.49-.21-.54-.1-1.09,.04-1.64-.02-.52-.06-1.19-.46-1.22-1.05-.03-.54,.61-1.07,1.05-1.26Z"/><path d="M689.02,320.06v1c.24,0,.49,.13,.62,.32,.19,.27,.24,.73,.12,1.25-.09,.38-.25,.77-.42,1.18-.1,.23-.19,.47-.28,.71-.08,.23-.16,.47-.23,.7-.15,.48-.3,.94-.52,1.32-.36,.61-.98,1.07-1.68,1.26v-.55c-.02-.42-.05-1.28-.71-1.85-.25-.22-.58-.36-.96-.43-.2-.04-.41-.05-.65-.05-.16,0-.32,0-.48,.02-.12,0-.25,.01-.37,.01-.07,0-.14,0-.21,0-.09,0-.2-.06-.27-.11,.09-.1,.24-.23,.4-.29,.16-.07,.35-.11,.55-.11,.15,0,.31,.02,.47,.06,.08,.02,.15,.04,.23,.06,.27,.08,.6,.17,.98,.17,.11,0,.22,0,.34-.03,.88-.14,1.6-.85,1.96-1.94,.06-.17,.11-.35,.16-.52,.1-.35,.19-.68,.34-.88,.14-.19,.38-.3,.61-.3v-1m0,0c-.54,0-1.08,.27-1.41,.7-.37,.48-.46,1.11-.65,1.69-.19,.57-.58,1.17-1.17,1.27-.06,0-.12,.01-.18,.01-.33,0-.65-.13-.97-.21-.23-.06-.47-.09-.71-.09-.33,0-.65,.06-.95,.19-.44,.2-1.08,.72-1.05,1.26,.03,.59,.7,.99,1.22,1.05,.11,.01,.21,.02,.32,.02,.28,0,.57-.03,.85-.03,.16,0,.31,0,.47,.04,.18,.03,.35,.09,.49,.21,.3,.26,.34,.71,.35,1.11l.03,1.13c0,.12,0,.25,.08,.34,.09,.11,.24,.14,.38,.14,.03,0,.06,0,.09,0,1.21-.08,2.36-.79,2.97-1.84,.39-.67,.56-1.45,.83-2.18,.24-.67,.57-1.31,.73-2,.16-.69,.14-1.47-.28-2.05-.32-.45-.86-.74-1.41-.74h-.02Z"/></g></g></g><g><path class="i" d="M683.15,314.55c-2.03-2.96-2.89-6.43-3.2-9.99-.37-4.21-.3-8.48-.19-12.7,.23-8.87,1.09-17.71,2.6-26.44,.24-1.4-.37-2.83-1.81-3.24-1.25-.35-2.94,.43-3.18,1.84-1.62,9.36-2.58,18.84-2.8,28.35-.19,8.17-.72,17.79,4.11,24.83,.8,1.16,2.27,1.7,3.54,.94,1.13-.67,1.73-2.43,.93-3.6Z"/><path d="M679.93,263.1c.13,0,.25,.02,.36,.05,.96,.27,1.24,1.25,1.09,2.1-1.51,8.73-2.39,17.67-2.62,26.59-.11,4.33-.18,8.57,.19,12.81,.37,4.28,1.48,7.71,3.37,10.47,.25,.37,.2,.81,.15,1.03-.1,.48-.41,.92-.77,1.14-.24,.14-.48,.21-.74,.21-.54,0-1.1-.33-1.47-.86-4.38-6.38-4.16-15.14-3.97-22.88l.03-1.37c.21-9.24,1.15-18.73,2.79-28.2,.11-.65,.9-1.09,1.57-1.09m0-1c-1.13,0-2.35,.74-2.56,1.92-1.62,9.36-2.58,18.84-2.8,28.35-.19,8.17-.72,17.79,4.11,24.83,.54,.79,1.4,1.3,2.29,1.3,.42,0,.84-.11,1.25-.35,1.13-.67,1.73-2.43,.93-3.6-2.03-2.96-2.89-6.43-3.2-9.99-.37-4.21-.3-8.48-.19-12.7,.23-8.87,1.09-17.71,2.6-26.44,.24-1.4-.37-2.83-1.81-3.24-.2-.06-.41-.08-.63-.08h0Z"/></g><g><path class="i" d="M686.56,313.45c-.25-.63-.55-1.14-1.15-1.49-.54-.31-1.33-.45-1.93-.25-.6,.2-1.19,.57-1.49,1.15-.29,.56-.49,1.31-.25,1.93,.08,.21,.13,.43,.17,.64,0,.05,0,.1,0,.15-.03,.14-.07,.28-.12,.42-.08,.15-.17,.29-.27,.43-.37,.45-.76,.87-1.2,1.25-.04,.03-.09,.05-.13,.08-.53-.06-1.11,.05-1.56,.31-.52,.3-1.01,.9-1.15,1.49-.3,1.32,.4,2.71,1.75,3.08,2.4,.66,4.39-.95,5.84-2.67,.74-.88,1.4-1.83,1.66-2.97,.27-1.15,.26-2.43-.18-3.54Z"/><path d="M684.1,312.62c.28,0,.58,.08,.8,.21,.32,.18,.51,.45,.72,1,.33,.83,.38,1.88,.13,2.94-.23,1-.86,1.85-1.45,2.55-1.37,1.63-2.71,2.46-3.97,2.46-.28,0-.56-.04-.84-.12-.86-.24-1.2-1.15-1.04-1.89,.07-.29,.37-.67,.68-.85,.21-.12,.48-.19,.76-.19,.06,0,.12,0,.18,0l.36,.02,.29-.18s.09-.05,.13-.08l.06-.04,.05-.04c.45-.39,.89-.85,1.31-1.36l.03-.03,.02-.03c.12-.17,.22-.34,.32-.52l.05-.08,.03-.09c.06-.17,.11-.35,.14-.52l.02-.09v-.1c0-.05,0-.11,0-.18v-.13l-.03-.09c-.05-.23-.1-.49-.21-.77-.09-.24-.01-.68,.21-1.09,.15-.28,.48-.52,.92-.66,.09-.03,.19-.04,.31-.04m0-1c-.22,0-.43,.03-.62,.09-.6,.2-1.19,.57-1.49,1.15-.29,.56-.49,1.31-.25,1.93,.08,.21,.13,.43,.17,.64,0,.05,0,.1,0,.15-.03,.14-.07,.28-.12,.42-.08,.15-.17,.29-.27,.43-.37,.45-.76,.87-1.2,1.25-.04,.03-.09,.05-.13,.08-.1-.01-.19-.02-.29-.02-.44,0-.9,.11-1.27,.33-.52,.3-1.01,.9-1.15,1.49-.3,1.32,.4,2.71,1.75,3.08,.38,.1,.74,.15,1.1,.15,1.91,0,3.52-1.37,4.74-2.82,.74-.88,1.4-1.83,1.66-2.97,.27-1.15,.26-2.43-.18-3.54-.25-.63-.55-1.14-1.15-1.49-.36-.21-.85-.34-1.31-.34h0Z"/></g><g><g><ellipse class="g" cx="685.43" cy="255.43" rx="11.21" ry="24.09" transform="translate(-46.05 255.93) rotate(-20.48)"/><path d="M691.98,278.83c-5.85,0-13.28-7.98-17.51-19.31-4.74-12.7-3.68-24.88,2.36-27.13,3-1.12,6.7,.28,10.42,3.95,3.63,3.57,6.88,8.9,9.15,14.99h0c2.28,6.1,3.31,12.25,2.92,17.32-.41,5.21-2.28,8.69-5.28,9.81-.66,.25-1.34,.36-2.06,.36Zm-13.03-45.82c-.62,0-1.21,.1-1.77,.31-5.53,2.07-6.33,13.66-1.78,25.85,4.55,12.19,12.75,20.42,18.28,18.36,2.61-.98,4.26-4.16,4.63-8.95,.39-4.93-.63-10.93-2.86-16.9h0c-2.23-5.96-5.39-11.16-8.92-14.63-2.69-2.65-5.32-4.04-7.59-4.04Z"/></g><g><path class="q" d="M672.87,237.89s13.16,38.11,23.16,30.11c0,0,2.81-2.26,2.4-7.13,0,0,2.27,11.39-2.06,15.26,0,0-4.7,6.83-13.52-3.15s-13.13-27.19-9.98-35.09Z"/><path d="M691.76,278.91c-2.88,0-6-1.88-9.29-5.6-8.6-9.73-13.49-27.03-10.07-35.6l.5-1.25,.44,1.27c.1,.28,9.82,28.16,18.58,30.7,1.37,.39,2.61,.13,3.8-.82,.1-.08,2.59-2.18,2.22-6.7l.99-.14c.09,.48,2.26,11.64-2.18,15.69-.26,.35-1.8,2.27-4.58,2.43-.13,0-.26,.01-.4,.01Zm-18.87-39.48c-2.28,8.55,2.53,24.39,10.33,33.22,3.22,3.65,6.2,5.41,8.88,5.25,2.52-.15,3.84-2.04,3.85-2.06l.08-.09c2.46-2.2,2.65-7.1,2.41-10.66-.74,2.17-2.02,3.23-2.1,3.29-1.44,1.15-3.02,1.48-4.7,1-8.19-2.37-16.63-24.15-18.75-29.96Z"/></g><g><path class="i" d="M681.5,235.92c-2.57,0-2.58,4,0,4s2.58-4,0-4Z"/><path d="M681.5,236.92c.31,0,.53,.09,.69,.28,.15,.18,.24,.44,.24,.72,0,.17-.04,1-.93,1-.31,0-.53-.09-.69-.28-.15-.18-.24-.44-.24-.72,0-.17,.04-1,.93-1m0-1c-2.57,0-2.58,4,0,4s2.58-4,0-4h0Z"/></g><g><path class="i" d="M692.13,247.08c-1.25-2.59-3.01-4.96-5.1-6.94-.76-.72-2.08-.81-2.83,0-.72,.78-.81,2.06,0,2.83,.49,.46,.95,.94,1.4,1.44,.22,.25,.44,.51,.65,.77,.04,.05,.09,.11,.13,.16,.08,.11,.16,.21,.24,.32,.79,1.08,1.48,2.24,2.06,3.44,.46,.94,1.88,1.27,2.74,.72,.97-.62,1.21-1.73,.72-2.74Z"/><path d="M685.56,240.56c.29,0,.58,.11,.78,.3,2.01,1.9,3.7,4.2,4.89,6.65,.28,.59,.15,1.13-.36,1.46-.11,.07-.27,.11-.44,.11-.37,0-.74-.18-.86-.42-.61-1.27-1.34-2.48-2.15-3.6-.07-.1-.14-.19-.22-.29l-.05-.07-.06-.07-.07-.09c-.22-.27-.45-.54-.68-.8-.45-.51-.94-1.01-1.46-1.5-.4-.38-.3-1.04,.05-1.42,.19-.21,.44-.25,.62-.25m0-1c-.5,0-1,.18-1.36,.57-.72,.78-.81,2.06,0,2.83,.49,.46,.95,.94,1.4,1.44,.22,.25,.44,.51,.65,.77,.04,.05,.09,.11,.13,.16,.08,.11,.16,.21,.24,.32,.79,1.08,1.48,2.24,2.06,3.44,.31,.63,1.04,.99,1.76,.99,.35,0,.7-.09,.98-.27,.97-.62,1.21-1.73,.72-2.74-1.25-2.59-3.01-4.96-5.1-6.94-.39-.37-.93-.57-1.47-.57h0Z"/></g></g><g><path class="m" d="M640.85,1.5s-196.83,319.5-358.83,356.5c0,0-14,63.2,0,104.1s38.75,124.74,38.75,124.74c-25.25,6.2-49.38,6.95-71.92,0-43.82-4.49-25.62-28.39-174.54,0-26.98,10.64-51.23,9.09-73.79,0L1.19,1.5H640.85Z"/><path d="M37.23,594.77c-12.3,0-24.54-2.49-36.89-7.46l-.31-.13v-.34L.69,1H641.75l-.47,.76c-.49,.8-50.02,80.87-118.71,164.43-40.35,49.08-79.31,89.75-115.82,120.88-45.54,38.82-87.36,62.83-124.31,71.35-1.03,4.84-13.24,64.68,.05,103.52,13.84,40.44,38.51,123.92,38.76,124.76l.15,.5-.51,.12c-27.02,6.63-50.63,6.63-72.19,0-11.83-1.2-19.3-3.89-26.52-6.5-19.32-6.97-39.3-14.17-147.78,6.51-12.56,4.96-24.89,7.44-37.18,7.44Zm-36.21-8.26c24.33,9.72,48.24,9.68,73.11-.13,108.83-20.76,128.94-13.51,148.39-6.5,7.17,2.58,14.58,5.25,26.38,6.46,21.34,6.56,44.62,6.6,71.25,.14-2.09-7.05-25.32-85.44-38.6-124.22-13.88-40.56-.16-103.74-.02-104.37l.07-.31,.31-.07c36.87-8.42,78.66-32.38,124.19-71.2,36.46-31.08,75.38-71.71,115.69-120.74C586.86,86.42,634.72,10.4,639.96,2H1.69l-.67,584.5Z"/></g><g><path class="o" d="M282.02,358S45.02,330,.52,242.5l.99,98.13s29.51-1.63,46.51,22.37c0,0,11,33,58,22,0,0,40.84-9,69.92,16.5,0,0,29.74,36.23,75.41,24.86,0,0,14.45-17.8,24.56-16.58,0,0,13.11-39.78,6.11-51.78Z"/><path d="M233.84,429.05c-35.47,0-58.03-26.92-58.29-27.23-28.49-24.98-69.02-16.42-69.43-16.33-45.81,10.72-57.92-20.49-58.56-22.26-16.65-23.43-45.74-22.12-46.03-22.1l-.52,.03L0,240.37l.97,1.9c10.1,19.86,31.14,38.28,62.54,54.74,25.16,13.19,56.98,25.16,94.57,35.56,64.04,17.72,123.41,24.86,124,24.93l.25,.03,.13,.22c7.03,12.06-5.53,50.56-6.07,52.19l-.13,.39-.41-.05c-9.73-1.16-23.97,16.22-24.11,16.4l-.11,.13-.16,.04c-6.17,1.53-12.06,2.2-17.63,2.2Zm-110.74-46.04c14.67,0,36.03,3.09,53.17,18.11,.35,.42,30.06,35.82,74.8,24.79,1.42-1.73,14.62-17.38,24.49-16.67,1.3-4.07,12.34-39.49,6.15-50.78-4.3-.53-61.91-7.77-123.88-24.92-37.67-10.42-69.55-22.42-94.78-35.64-30.62-16.05-51.47-33.99-62-53.34l.96,95.56c4.05-.08,30.7,.4,46.42,22.59l.07,.13c.03,.08,2.82,8.23,11.25,14.93,14.1,11.2,32.88,9.85,46.16,6.75,.17-.04,7.09-1.5,17.19-1.5Z"/></g><g><path class="ab" d="M79.02,374s-23-10-5-66c0,0-21,47-18,56,0,0,14,16,23,10Z"/><path d="M74.44,375.86c-8.58,0-18.3-10.97-18.79-11.53l-.1-.17c-3.03-9.08,17.16-54.44,18.02-56.36l.93,.36c-17.62,54.83,4.5,65.29,4.72,65.39l.83,.37-.76,.51c-1.52,1.02-3.17,1.44-4.86,1.44Zm-17.97-12.11c1.03,1.14,13.3,14.49,21.54,10.27-1.75-1.07-5.92-4.28-8.7-11.84-2.91-7.89-4.72-22.13,1.83-46.21-5.75,13.64-16.71,41.09-14.67,47.79Z"/></g><g><polygon class="m" points="20.02 334 39.02 291 7.02 316 7.02 330.37 20.02 334"/><path d="M20.3,334.6l-13.78-3.85v-14.99l33.76-26.38-19.98,45.22Zm-12.78-4.61l12.22,3.42,18.02-40.78-30.24,23.62v13.74Z"/></g><g><polygon class="ab" points="7.02 330.37 39.02 291 20.02 334 7.02 330.37"/><path d="M20.3,334.6l-14.15-3.96,34.83-42.85-20.68,46.81Zm-12.41-4.51l11.85,3.31,17.32-39.19-29.17,35.88Z"/></g><g><path class="ab" d="M236.46,415s-25.52,2.27-32.44-18-6-47-6-47l-9,47s6.72,20.76,28,23c0,0,13.88,3,19.44-5Z"/><path d="M222.98,421.07c-3.28,0-5.82-.53-6.06-.58-21.3-2.24-28.3-23.12-28.37-23.33l-.04-.12,.02-.13,9-47,.99,.11c0,.27-.83,26.88,5.97,46.82,6.71,19.65,31.67,17.69,31.92,17.66l1.06-.09-.61,.88c-3.31,4.76-9.33,5.79-13.9,5.79Zm-33.44-24.11c.59,1.67,7.66,20.45,27.54,22.54,.18,.04,12.66,2.63,18.33-3.95-5.02,.13-25.72-.42-31.86-18.39-5.01-14.68-5.92-32.9-6.05-41.79l-7.96,41.59Z"/></g><g><path class="af" d="M727.35,242.5v20h21.28c-14.77-.79-19.33-9.4-21.28-20Z"/><path d="M748.64,263h-21.78v-20.5l.99-.09c1.7,9.23,5.51,18.77,20.82,19.59l-.03,1Zm-20.78-1h14.22c-8.73-2.38-12.36-8.45-14.22-15.05v15.05Z"/></g><g><path class="n" d="M82.18,585.36s-3.16-117.82-3.16-164.59c0,0-6.58,168.2-17.29,170.22l12.58-4.15,7.87-1.48Z"/><path d="M61.83,591.48l-.25-.97,.34-.11c7.46-3.76,14-103.01,16.61-169.65l1,.02c0,46.23,3.13,163.4,3.16,164.58v.43l-8.28,1.56-11.95,3.94c-.25,.13-.46,.17-.63,.2Zm16.82-151.05c-.78,16.26-2.05,40.55-3.76,64.73-4.49,63.67-8.6,80.2-11.12,84.63l10.38-3.42,7.51-1.42c-.18-6.85-2.45-93.03-3.02-144.52Z"/></g><g><path class="h" d="M67.37,299.56s193.65-117.56,238.65-183.56c0,0-86,103.93-267,166.97l28.35,16.6Z"/><path d="M67.38,300.15l-29.55-17.3,1.02-.36c93.44-32.54,161-76.17,201.24-107.05,43.58-33.44,65.33-59.51,65.54-59.77l.8,.6c-23.29,34.16-86.99,82.29-136.33,116.66-53.43,37.22-101.99,66.75-102.47,67.05l-.25,.15Zm-27.17-17.06l27.16,15.9c3.87-2.36,50.77-31.05,102.17-66.86,45.15-31.45,102.35-74.44,129.44-107.6-9.76,10.31-29.17,29.38-58.28,51.72-40.14,30.8-107.46,74.29-200.49,106.84Z"/></g><g><path class="h" d="M431.56,212.09s-161.56,116.1-229.7,131.92c0,0,115.79-71.32,149.53-128.67,0,0-6.24,38.6-81.16,90.67l161.33-93.93Z"/><path d="M199,345.19l2.6-1.6c1.16-.71,116.07-71.91,149.36-128.49l1.35-2.29-.42,2.63c-.06,.37-6.57,36.28-72.61,84.75l152.03-88.51,.54,.84c-.4,.29-40.96,29.39-89.32,60.04-44.66,28.31-105.29,63.77-140.55,71.95l-2.98,.69Zm151.02-126.62c-32.48,51.41-128.04,113.32-145.23,124.2,35.5-9.39,93.88-43.6,137.21-71.07,34.69-21.99,65.37-43.18,80.07-53.5l-151.58,88.25-.54-.84c21.3-14.8,50.46-38.04,68.49-64.65,7.1-10.49,10.25-18.28,11.58-22.39Z"/></g><g><path class="m" d="M728.19,1.5s196.83,319.5,358.83,356.5c0,0,14,63.2,0,104.1-14,40.9-38.75,124.74-38.75,124.74,25.25,6.2,49.38,6.95,71.92,0,43.82-4.49,25.62-28.39,174.54,0,26.98,10.64,51.23,9.09,73.79,0l-.67-585.34H728.19Z"/><path d="M1331.83,594.76c-12.3,0-24.67-2.49-37.28-7.46-108.39-20.65-128.37-13.45-147.69-6.49-7.22,2.6-14.69,5.3-26.61,6.52-21.46,6.62-45.08,6.62-72.09-.01l-.51-.12,.15-.5c.25-.84,24.91-84.32,38.76-124.76,13.29-38.84,1.08-98.68,.05-103.52-36.95-8.52-78.78-32.52-124.31-71.35-36.5-31.12-75.47-71.79-115.82-120.88C777.78,82.63,728.25,2.56,727.76,1.76l-.47-.76h641.06v.5l.67,585.68-.31,.13c-12.34,4.97-24.58,7.46-36.88,7.46Zm-143.75-22.05c21.07,0,53.13,3.42,106.75,13.64,24.95,9.83,48.87,9.87,73.2,.15l-.67-584.5H729.09c5.24,8.4,53.1,84.42,118.16,163.57,40.31,49.04,79.23,89.66,115.69,120.74,45.54,38.83,87.32,62.78,124.19,71.2l.31,.07,.07,.31c.14,.63,13.87,63.81-.02,104.37-13.27,38.78-36.51,117.17-38.59,124.22,26.63,6.47,49.9,6.43,71.15-.12,11.9-1.23,19.31-3.9,26.47-6.48,9.86-3.55,19.89-7.17,41.55-7.17Z"/></g><g><path class="o" d="M1087.02,358s237-28,281.5-115.5l-.99,98.13s-29.51-1.63-46.51,22.37c0,0-11,33-58,22,0,0-40.84-9-69.92,16.5,0,0-29.74,36.23-75.41,24.86,0,0-14.45-17.8-24.56-16.58,0,0-13.11-39.78-6.11-51.78Z"/><path d="M1135.2,429.05c-5.57,0-11.46-.66-17.63-2.2l-.16-.04-.1-.13c-.14-.18-14.39-17.57-24.11-16.4l-.41,.05-.13-.39c-.54-1.63-13.1-40.14-6.07-52.19l.12-.22,.25-.03c.59-.07,59.96-7.2,124-24.93,37.59-10.4,69.41-22.37,94.57-35.56,31.4-16.46,52.44-34.88,62.54-54.74l.97-1.9-1.02,100.79-.52-.03c-.3-.02-29.39-1.33-46.03,22.1-.55,1.5-9.46,24.49-40.58,24.49-5.32,0-11.29-.67-17.98-2.24-.4-.09-40.93-8.64-69.48,16.39-.21,.26-22.77,27.17-58.23,27.17Zm-17.23-3.13c44.75,11.03,74.45-24.38,74.74-24.74,28.99-25.43,70-16.76,70.41-16.67,13.3,3.11,32.11,4.46,46.21-6.78,8.41-6.71,11.19-14.81,11.21-14.89l.07-.13c15.72-22.19,42.38-22.66,46.42-22.59l.97-95.56c-10.54,19.35-31.38,37.29-62,53.34-25.23,13.23-57.11,25.22-94.78,35.64-61.98,17.15-119.59,24.4-123.89,24.92-6.18,11.29,4.85,46.71,6.15,50.78,9.9-.71,23.07,14.94,24.49,16.67Z"/></g><g><path class="ab" d="M1290.02,374s23-10,5-66c0,0,21,47,18,56,0,0-14,16-23,10Z"/><path d="M1294.61,375.86c-1.69,0-3.34-.43-4.86-1.44l-.76-.51,.84-.37c.23-.1,22.35-10.56,4.72-65.39l.93-.36c.86,1.93,21.04,47.28,18.02,56.36l-.1,.17c-.49,.56-10.21,11.53-18.79,11.53Zm-3.57-1.84c8.24,4.23,20.51-9.13,21.54-10.27,2.04-6.7-8.94-34.2-14.68-47.82,4.05,14.93,6.75,32.93,1.84,46.25-2.79,7.57-6.95,10.78-8.7,11.84Z"/></g><g><polygon class="m" points="1349.02 334 1330.02 291 1362.02 316 1362.02 330.37 1349.02 334"/><path d="M1348.74,334.6l-19.98-45.22,33.76,26.38v14.99l-13.78,3.85Zm-17.46-41.98l18.02,40.78,12.22-3.42v-13.74l-30.24-23.62Z"/></g><g><polygon class="ab" points="1362.02 330.37 1330.02 291 1349.02 334 1362.02 330.37"/><path d="M1348.74,334.6l-20.68-46.81,34.83,42.85-14.15,3.96Zm-16.75-40.39l17.32,39.19,11.85-3.31-29.17-35.88Z"/></g><g><path class="ab" d="M1132.58,415s25.52,2.27,32.44-18c6.92-20.27,6-47,6-47l9,47s-6.72,20.76-28,23c0,0-13.88,3-19.44-5Z"/><path d="M1146.07,421.07c-4.56,0-10.59-1.02-13.9-5.79l-.61-.88,1.06,.09c.25,.02,25.22,1.99,31.92-17.66,6.81-19.95,5.98-46.56,5.97-46.82l.99-.11,9.02,47.13-.04,.12c-.07,.21-7.07,21.1-28.42,23.34-.22,.05-2.74,.57-6.01,.57Zm-12.43-5.52c5.68,6.59,18.15,3.99,18.28,3.96,19.93-2.1,27-20.88,27.59-22.55l-7.97-41.59c-.12,8.89-1.04,27.12-6.04,41.79-6.13,17.97-26.83,18.53-31.86,18.39Z"/></g><g><path class="n" d="M1286.86,585.36s3.16-117.82,3.16-164.59c0,0,6.58,168.2,17.29,170.22l-12.58-4.15-7.87-1.48Z"/><path d="M1307.22,591.48c-.17-.03-.39-.07-.63-.2l-12.01-3.96-8.22-1.54v-.43c.04-1.18,3.17-118.35,3.17-164.58l1-.02c2.61,66.64,9.15,165.9,16.61,169.65l.34,.11-.25,.97Zm-19.84-6.53l7.45,1.4,10.45,3.44c-2.52-4.42-6.63-20.96-11.12-84.63-1.71-24.18-2.98-48.47-3.76-64.73-.57,51.49-2.84,137.67-3.02,144.52Z"/></g><g><path class="h" d="M1301.67,299.56s-193.65-117.56-238.65-183.56c0,0,86,103.93,267,166.97l-28.35,16.6Z"/><path d="M1301.66,300.15l-.25-.15c-.48-.29-49.04-29.83-102.47-67.05-49.34-34.37-113.04-82.5-136.33-116.66l.8-.6c.21,.26,21.99,26.35,65.57,59.79,40.23,30.87,107.79,74.49,201.21,107.02l1.02,.36-29.55,17.3Zm-231.61-175.63c27.1,33.16,84.29,76.15,129.45,107.6,51.4,35.81,98.29,64.5,102.17,66.86l27.16-15.9c-93.03-32.54-160.35-76.03-200.49-106.84-29.12-22.34-48.52-41.42-58.28-51.72Z"/></g><g><path class="h" d="M937.48,212.09s161.56,116.1,229.7,131.92c0,0-115.79-71.32-149.53-128.67,0,0,6.24,38.6,81.16,90.67l-161.33-93.93Z"/><path d="M1170.05,345.19l-2.98-.69c-35.26-8.19-95.9-43.65-140.55-71.95-48.36-30.66-88.92-59.75-89.32-60.04l.54-.84,152.03,88.51c-66.04-48.47-72.55-84.38-72.61-84.75l-.42-2.63,1.35,2.29c33.29,56.59,148.2,127.78,149.36,128.49l2.6,1.6Zm-223.07-126.99c14.7,10.32,45.38,31.51,80.07,53.5,43.33,27.47,101.71,61.68,137.21,71.07-17.19-10.89-112.75-72.8-145.23-124.2,1.32,4.11,4.47,11.9,11.58,22.39,18.02,26.61,47.19,49.85,68.49,64.65l-.54,.84-151.58-88.25Z"/></g><g><path class="h" d="M1168.02,575s48.71-98,49-132c0,0-23,106-84.44,141.78,15.57-5.32,30.25-10.15,35.44-9.78Z"/><path d="M1132.74,585.25l-.41-.91c60.55-35.26,83.98-140.4,84.21-141.46l1.03-4.75-.04,4.86c-.29,33.73-48.56,131.24-49.05,132.22l-.15,.3-.33-.02c-5.12-.36-20.21,4.62-35.25,9.75Zm83.32-136.2c-2.47,9.57-8.19,29.55-17.76,51.62-11.79,27.18-31.9,62.96-61.66,82.2,13.77-4.66,25.99-8.52,31.07-8.39,2.77-5.62,43.52-88.71,48.34-125.43Z"/></g></g></g></svg>