<?xml version="1.0" encoding="UTF-8"?><svg xmlns="http://www.w3.org/2000/svg" viewBox="0 0 272.23 250.02"><defs><style>.d{fill:#f0fff4;}.e{fill:#d1f2d8;}.e,.f,.g,.h,.i{stroke:#000;stroke-miterlimit:10;}.f{fill:#d3ead9;}.g{fill:#b6d8be;}.h{fill:#94bf9e;}.i{fill:#443d37;}</style></defs><g id="a"/><g id="b"><g id="c"><path class="i" d="M198.61,242.52c22.04-9.55,58.29-24.01,73-43-15.07-21.58-119.68-32.76-146-32.11-16.84,.42-111.54,17.85-109.35,45.73,.61,7.8,42.65,23.04,51.45,26.95,24.73,11,106.25,13.11,130.9,2.43Z"/><g><path class="g" d="M113.96,39.32c0,16.31-13.23,29.54-29.54,29.54-6.17,0-11.9-1.89-16.63-5.13-5.09-5.31-8.22-12.51-8.22-20.44,0-14.08,9.85-25.85,23.03-28.81,2.1-.48,4.27-.72,6.5-.72s4.41,.24,6.5,.72c3.68,.83,7.11,2.35,10.13,4.4,5.09,5.31,8.22,12.51,8.22,20.45Z"/><path d="M104.21,.04c-7.56-.5-14.34,4.18-17.68,10.81-3.81,7.57-3.41,16.07-2.74,24.28,.38,4.59,7.58,4.63,7.2,0-.79-9.63-1.39-28.85,13.22-27.88,4.63,.31,4.61-6.9,0-7.2Z"/><path class="f" d="M75.06,42.93c0,16.31-13.23,29.54-29.54,29.54-6.17,0-11.9-1.89-16.63-5.13-5.09-5.31-8.22-12.51-8.22-20.44,0-14.08,9.85-25.85,23.03-28.81,2.1-.48,4.27-.72,6.5-.72s4.41,.24,6.5,.72c3.68,.83,7.11,2.35,10.13,4.4,5.09,5.31,8.22,12.51,8.22,20.45Z"/><path class="f" d="M152.14,44.37c0,16.31-13.23,29.54-29.54,29.54-6.17,0-11.9-1.89-16.63-5.13-5.09-5.31-8.22-12.51-8.22-20.44,0-14.08,9.85-25.85,23.03-28.81,2.1-.48,4.27-.72,6.5-.72s4.41,.24,6.5,.72c3.68,.83,7.11,2.35,10.13,4.4,5.09,5.31,8.22,12.51,8.22,20.45Z"/><path class="e" d="M148.18,214.01c-19.69-4.12-39.38-4.12-59.07,0,16.31,0,29.54-13.23,29.54-29.54,0,16.31,13.23,29.54,29.54,29.54Z"/><path class="e" d="M89.11,214.01c-19.69-4.12-39.38-4.12-59.07,0,16.31,0,29.54-13.23,29.54-29.54,0,16.31,13.23,29.54,29.54,29.54Z"/><path class="e" d="M30.04,154.94c-16.31,0-29.54,13.23-29.54,29.54,4.6-19.69,3.9-39.38,0-59.07,0,16.31,13.23,29.54,29.54,29.54Z"/><path class="e" d="M30.04,95.87c-16.31,0-29.54,13.23-29.54,29.54,4.45-20.85,4.7-40.6,0-59.07,0,16.31,13.23,29.54,29.54,29.54Z"/><path class="e" d="M82.6,37.52c-13.18,2.96-23.03,14.74-23.03,28.81,0-14.08-9.85-25.85-23.03-28.81,15.17,5.56,30.53,5.3,46.06,0Z"/><path class="e" d="M141.67,37.52c-13.18,2.96-23.03,14.74-23.03,28.81,0-14.08-9.85-25.85-23.03-28.81,15.82,5.44,31.2,5.79,46.06,0Z"/><path class="e" d="M177.71,125.41c-4.65,19.69-4.65,39.38,0,59.07,0-16.31-13.23-29.54-29.54-29.54,16.31,0,29.54-13.23,29.54-29.54Z"/><path class="e" d="M148.18,154.94c16.31,0,29.54,13.23,29.54,29.54s-13.23,29.54-29.54,29.54-29.54-13.23-29.54-29.54c0,16.31-13.23,29.54-29.54,29.54s-29.54-13.23-29.54-29.54c0,16.31-13.23,29.54-29.54,29.54S.5,200.79,.5,184.48s13.23-29.54,29.54-29.54c-16.31,0-29.54-13.23-29.54-29.54s13.23-29.54,29.54-29.54c-16.31,0-29.54-13.23-29.54-29.54,0-14.08,9.85-25.85,23.03-28.81h13.01c13.18,2.96,23.03,14.74,23.03,28.81,0-14.08,9.85-25.85,23.03-28.81h13.01c13.18,2.96,23.03,14.74,23.03,28.81,0-14.08,9.85-25.85,23.03-28.81h13.01c13.18,2.96,23.03,14.74,23.03,28.81-4.42,19.24-4.23,38.95,0,59.07,0,16.31-13.23,29.54-29.54,29.54Z"/><path class="g" d="M59.57,66.34c0,16.31-13.23,29.54-29.54,29.54-10.16,0-19.13-5.14-24.45-12.96-3.21-4.73-5.09-10.43-5.09-16.58,0-14.08,9.85-25.85,23.03-28.81,2.1-.48,4.27-.72,6.5-.72s4.41,.24,6.5,.72c5.19,1.17,9.88,3.7,13.64,7.22,5.78,5.39,9.39,13.07,9.39,21.6Z"/><path class="f" d="M55.25,61.3c0,16.31-13.23,29.54-29.54,29.54-7.77,0-14.85-3-20.13-7.92-3.21-4.73-5.09-10.43-5.09-16.58,0-14.08,9.85-25.85,23.03-28.81,2.1-.48,4.27-.72,6.5-.72s4.41,.24,6.5,.72c5.19,1.17,9.88,3.7,13.64,7.22,3.2,4.73,5.07,10.42,5.07,16.55Z"/><path class="g" d="M118.64,66.34c0,16.31-13.23,29.54-29.54,29.54-8.38,0-15.94-3.49-21.32-9.09-5.09-5.31-8.22-12.51-8.22-20.44,0-14.08,9.85-25.85,23.03-28.81,2.1-.48,4.27-.72,6.5-.72s4.41,.24,6.5,.72c3.68,.83,7.11,2.35,10.13,4.4,7.79,5.32,12.9,14.27,12.9,24.41Z"/><path class="f" d="M113.96,62.38c0,16.31-13.23,29.54-29.54,29.54-6.17,0-11.9-1.89-16.63-5.13-5.09-5.31-8.22-12.51-8.22-20.44,0-14.08,9.85-25.85,23.03-28.81,2.1-.48,4.27-.72,6.5-.72s4.41,.24,6.5,.72c3.68,.83,7.11,2.35,10.13,4.4,5.09,5.31,8.22,12.51,8.22,20.45Z"/><path class="g" d="M177.71,66.34c0,16.31-13.23,29.54-29.54,29.54-9.44,0-17.84-4.43-23.25-11.32-3.93-5.01-6.28-11.34-6.28-18.21,0-14.08,9.85-25.85,23.03-28.81,2.1-.48,4.27-.72,6.5-.72s4.41,.24,6.5,.72c4.35,.98,8.33,2.92,11.73,5.59,6.88,5.4,11.3,13.8,11.3,23.22Z"/><path class="f" d="M172.67,61.3c0,16.31-13.23,29.54-29.54,29.54-6.87,0-13.2-2.35-18.21-6.28-3.93-5.01-6.28-11.34-6.28-18.21,0-14.08,9.85-25.85,23.03-28.81,2.1-.48,4.27-.72,6.5-.72s4.41,.24,6.5,.72c4.35,.98,8.33,2.92,11.73,5.59,3.92,5.01,6.26,11.32,6.26,18.18Z"/><path class="g" d="M59.57,125.41c0,16.31-13.23,29.54-29.54,29.54-10.14,0-19.09-5.11-24.41-12.9-3.23-4.73-5.13-10.47-5.13-16.63,0-16.31,13.23-29.54,29.54-29.54,7.93,0,15.13,3.13,20.44,8.22,5.6,5.37,9.09,12.94,9.09,21.32Z"/><path class="g" d="M118.64,125.41c0,16.31-13.23,29.54-29.54,29.54-10.14,0-19.09-5.11-24.41-12.9-3.23-4.73-5.13-10.47-5.13-16.63,0-16.31,13.23-29.54,29.54-29.54,7.93,0,15.13,3.13,20.44,8.22,5.6,5.37,9.09,12.94,9.09,21.32Z"/><path class="g" d="M177.71,125.41c0,16.31-13.23,29.54-29.54,29.54-10.14,0-19.09-5.11-24.41-12.9-3.23-4.73-5.13-10.47-5.13-16.63,0-16.31,13.23-29.54,29.54-29.54,7.93,0,15.13,3.13,20.44,8.22,5.6,5.37,9.09,12.94,9.09,21.32Z"/><path class="f" d="M55.61,120.73c0,16.31-13.23,29.54-29.54,29.54-7.93,0-15.13-3.13-20.44-8.22-3.23-4.73-5.13-10.47-5.13-16.63,0-16.31,13.23-29.54,29.54-29.54,7.93,0,15.13,3.13,20.44,8.22,3.23,4.73,5.13,10.47,5.13,16.63Z"/><path class="f" d="M114.68,120.73c0,16.31-13.23,29.54-29.54,29.54-7.93,0-15.13-3.13-20.44-8.22-3.23-4.73-5.13-10.47-5.13-16.63,0-16.31,13.23-29.54,29.54-29.54,7.93,0,15.13,3.13,20.44,8.22,3.23,4.73,5.13,10.47,5.13,16.63Z"/><path class="f" d="M173.75,120.73c0,16.31-13.23,29.54-29.54,29.54-7.93,0-15.13-3.13-20.44-8.22-3.23-4.73-5.13-10.47-5.13-16.63,0-16.31,13.23-29.54,29.54-29.54,7.93,0,15.13,3.13,20.44,8.22,3.23,4.73,5.13,10.47,5.13,16.63Z"/><path class="g" d="M59.57,184.48c0,16.31-13.23,29.54-29.54,29.54-10.16,0-19.13-5.14-24.45-12.96-3.21-4.73-5.09-10.43-5.09-16.58,0-16.31,13.23-29.54,29.54-29.54,7.77,0,14.85,3,20.13,7.92,5.78,5.4,9.41,13.08,9.41,21.62Z"/><path class="g" d="M118.64,184.48c0,16.31-13.23,29.54-29.54,29.54-10.16,0-19.13-5.14-24.45-12.96-3.21-4.73-5.09-10.43-5.09-16.58,0-16.31,13.23-29.54,29.54-29.54,7.77,0,14.85,3,20.13,7.92,5.78,5.4,9.41,13.08,9.41,21.62Z"/><path class="g" d="M177.71,184.48c0,16.31-13.23,29.54-29.54,29.54-10.16,0-19.13-5.14-24.45-12.96-3.21-4.73-5.09-10.43-5.09-16.58,0-16.31,13.23-29.54,29.54-29.54,7.77,0,14.85,3,20.13,7.92,5.78,5.4,9.41,13.08,9.41,21.62Z"/><path class="f" d="M55.25,179.44c0,16.31-13.23,29.54-29.54,29.54-7.77,0-14.85-3-20.13-7.92-3.21-4.73-5.09-10.43-5.09-16.58,0-16.31,13.23-29.54,29.54-29.54,7.77,0,14.85,3,20.13,7.92,3.21,4.73,5.09,10.43,5.09,16.58Z"/><path class="f" d="M114.32,179.44c0,16.31-13.23,29.54-29.54,29.54-7.77,0-14.85-3-20.13-7.92-3.21-4.73-5.09-10.43-5.09-16.58,0-16.31,13.23-29.54,29.54-29.54,7.77,0,14.85,3,20.13,7.92,3.21,4.73,5.09,10.43,5.09,16.58Z"/><path class="f" d="M173.39,179.44c0,16.31-13.23,29.54-29.54,29.54-7.77,0-14.85-3-20.13-7.92-3.21-4.73-5.09-10.43-5.09-16.58,0-16.31,13.23-29.54,29.54-29.54,7.77,0,14.85,3,20.13,7.92,3.21,4.73,5.09,10.43,5.09,16.58Z"/><path class="h" d="M59.66,68.59s1.66,24.77-11.65,27.29c0,0,12.63,9.28,11.55,24.63,0,0-5.25-22.11-25.86-24.63,0,0,24.24-3.79,25.95-27.29Z"/><path class="h" d="M118.73,68.59s1.66,24.77-11.65,27.29c0,0,12.63,9.28,11.55,24.63,0,0-5.25-22.11-25.86-24.63,0,0,24.24-3.79,25.95-27.29Z"/><path class="h" d="M59.66,127.66s1.66,24.77-11.65,27.29c0,0,12.63,9.28,11.55,24.63,0,0-5.25-22.11-25.86-24.63,0,0,24.24-3.79,25.95-27.29Z"/><path class="h" d="M118.73,127.66s1.66,24.77-11.65,27.29c0,0,12.63,9.28,11.55,24.63,0,0-5.25-22.11-25.86-24.63,0,0,24.24-3.79,25.95-27.29Z"/><path class="h" d="M158.88,97.88s12.62-.03,16.63-19.21c0,0-8.5,15.52-23.5,16.54l6.87,2.67Z"/><path class="h" d="M158.88,157.67s12.62-.03,16.63-19.21c0,0-8.5,15.52-23.5,16.54l6.87,2.67Z"/><path class="d" d="M136.56,46.76c-.56-.87-1.56-1.09-2.46-.65-5.01,2.46-8.32,7.48-8.98,12.97-.11,.94,.91,1.84,1.8,1.8,1.07-.05,1.68-.8,1.8-1.8v-.08l.02-.03c.03-.14,.05-.28,.07-.42,.05-.28,.11-.55,.18-.83,.15-.57,.33-1.14,.54-1.69,.02-.06,.06-.15,.08-.19,.05-.1,.09-.21,.14-.31,.12-.26,.25-.51,.38-.76,.28-.52,.6-1.03,.94-1.51,.08-.12,.17-.23,.25-.34l.02-.02s.04-.04,.07-.08c.18-.22,.36-.43,.55-.64,.38-.42,.79-.81,1.21-1.18,.13-.11,.26-.22,.39-.33,.02-.02,.04-.03,.06-.05,.24-.18,.49-.35,.74-.52,.5-.33,1.01-.62,1.55-.88,.85-.42,1.15-1.69,.65-2.46Z"/><path class="d" d="M78.93,45.32c-.56-.87-1.56-1.09-2.46-.65-5.01,2.46-8.32,7.48-8.98,12.97-.11,.94,.91,1.84,1.8,1.8,1.07-.05,1.68-.8,1.8-1.8v-.08l.02-.03c.03-.14,.05-.28,.07-.42,.05-.28,.11-.55,.18-.83,.15-.57,.33-1.14,.54-1.69,.02-.06,.06-.15,.08-.19,.05-.1,.09-.21,.14-.31,.12-.26,.25-.51,.38-.76,.28-.52,.6-1.03,.94-1.51,.08-.12,.17-.23,.25-.34l.02-.02s.04-.04,.07-.08c.18-.22,.36-.43,.55-.64,.38-.42,.79-.81,1.21-1.18,.13-.11,.26-.22,.39-.33,.02-.02,.04-.03,.06-.05,.24-.18,.49-.35,.74-.52,.5-.33,1.01-.62,1.55-.88,.85-.42,1.15-1.69,.65-2.46Z"/><path class="d" d="M20.58,45.32c-.56-.87-1.56-1.09-2.46-.65-5.01,2.46-8.32,7.48-8.98,12.97-.11,.94,.91,1.84,1.8,1.8,1.07-.05,1.68-.8,1.8-1.8v-.08l.02-.03c.03-.14,.05-.28,.07-.42,.05-.28,.11-.55,.18-.83,.15-.57,.33-1.14,.54-1.69,.02-.06,.06-.15,.08-.19,.05-.1,.09-.21,.14-.31,.12-.26,.25-.51,.38-.76,.28-.52,.6-1.03,.94-1.51,.08-.12,.17-.23,.25-.34l.02-.02s.04-.04,.07-.08c.18-.22,.36-.43,.55-.64,.38-.42,.79-.81,1.21-1.18,.13-.11,.26-.22,.39-.33,.02-.02,.04-.03,.06-.05,.24-.18,.49-.35,.74-.52,.5-.33,1.01-.62,1.55-.88,.85-.42,1.15-1.69,.65-2.46Z"/><path class="d" d="M136.56,104.39c-.56-.87-1.56-1.09-2.46-.65-5.01,2.46-8.32,7.48-8.98,12.97-.11,.94,.91,1.84,1.8,1.8,1.07-.05,1.68-.8,1.8-1.8v-.08l.02-.03c.03-.14,.05-.28,.07-.42,.05-.28,.11-.55,.18-.83,.15-.57,.33-1.14,.54-1.69,.02-.06,.06-.15,.08-.19,.05-.1,.09-.21,.14-.31,.12-.26,.25-.51,.38-.76,.28-.52,.6-1.03,.94-1.51,.08-.12,.17-.23,.25-.34l.02-.02s.04-.04,.07-.08c.18-.22,.36-.43,.55-.64,.38-.42,.79-.81,1.21-1.18,.13-.11,.26-.22,.39-.33,.02-.02,.04-.03,.06-.05,.24-.18,.49-.35,.74-.52,.5-.33,1.01-.62,1.55-.88,.85-.42,1.15-1.69,.65-2.46Z"/><path class="d" d="M78.93,102.95c-.56-.87-1.56-1.09-2.46-.65-5.01,2.46-8.32,7.48-8.98,12.97-.11,.94,.91,1.84,1.8,1.8,1.07-.05,1.68-.8,1.8-1.8v-.08l.02-.03c.03-.14,.05-.28,.07-.42,.05-.28,.11-.55,.18-.83,.15-.57,.33-1.14,.54-1.69,.02-.06,.06-.15,.08-.19,.05-.1,.09-.21,.14-.31,.12-.26,.25-.51,.38-.76,.28-.52,.6-1.03,.94-1.51,.08-.12,.17-.23,.25-.34l.02-.02s.04-.04,.07-.08c.18-.22,.36-.43,.55-.64,.38-.42,.79-.81,1.21-1.18,.13-.11,.26-.22,.39-.33,.02-.02,.04-.03,.06-.05,.24-.18,.49-.35,.74-.52,.5-.33,1.01-.62,1.55-.88,.85-.42,1.15-1.69,.65-2.46Z"/><path class="d" d="M20.58,102.95c-.56-.87-1.56-1.09-2.46-.65-5.01,2.46-8.32,7.48-8.98,12.97-.11,.94,.91,1.84,1.8,1.8,1.07-.05,1.68-.8,1.8-1.8v-.08l.02-.03c.03-.14,.05-.28,.07-.42,.05-.28,.11-.55,.18-.83,.15-.57,.33-1.14,.54-1.69,.02-.06,.06-.15,.08-.19,.05-.1,.09-.21,.14-.31,.12-.26,.25-.51,.38-.76,.28-.52,.6-1.03,.94-1.51,.08-.12,.17-.23,.25-.34l.02-.02s.04-.04,.07-.08c.18-.22,.36-.43,.55-.64,.38-.42,.79-.81,1.21-1.18,.13-.11,.26-.22,.39-.33,.02-.02,.04-.03,.06-.05,.24-.18,.49-.35,.74-.52,.5-.33,1.01-.62,1.55-.88,.85-.42,1.15-1.69,.65-2.46Z"/><path class="d" d="M136.56,162.02c-.56-.87-1.56-1.09-2.46-.65-5.01,2.46-8.32,7.48-8.98,12.97-.11,.94,.91,1.84,1.8,1.8,1.07-.05,1.68-.8,1.8-1.8v-.08l.02-.03c.03-.14,.05-.28,.07-.42,.05-.28,.11-.55,.18-.83,.15-.57,.33-1.14,.54-1.69,.02-.06,.06-.15,.08-.19,.05-.1,.09-.21,.14-.31,.12-.26,.25-.51,.38-.76,.28-.52,.6-1.03,.94-1.51,.08-.12,.17-.23,.25-.34l.02-.02s.04-.04,.07-.08c.18-.22,.36-.43,.55-.64,.38-.42,.79-.81,1.21-1.18,.13-.11,.26-.22,.39-.33,.02-.02,.04-.03,.06-.05,.24-.18,.49-.35,.74-.52,.5-.33,1.01-.62,1.55-.88,.85-.42,1.15-1.69,.65-2.46Z"/><path class="d" d="M78.93,160.58c-.56-.87-1.56-1.09-2.46-.65-5.01,2.46-8.32,7.48-8.98,12.97-.11,.94,.91,1.84,1.8,1.8,1.07-.05,1.68-.8,1.8-1.8v-.08l.02-.03c.03-.14,.05-.28,.07-.42,.05-.28,.11-.55,.18-.83,.15-.57,.33-1.14,.54-1.69,.02-.06,.06-.15,.08-.19,.05-.1,.09-.21,.14-.31,.12-.26,.25-.51,.38-.76,.28-.52,.6-1.03,.94-1.51,.08-.12,.17-.23,.25-.34l.02-.02s.04-.04,.07-.08c.18-.22,.36-.43,.55-.64,.38-.42,.79-.81,1.21-1.18,.13-.11,.26-.22,.39-.33,.02-.02,.04-.03,.06-.05,.24-.18,.49-.35,.74-.52,.5-.33,1.01-.62,1.55-.88,.85-.42,1.15-1.69,.65-2.46Z"/><path class="d" d="M20.58,160.58c-.56-.87-1.56-1.09-2.46-.65-5.01,2.46-8.32,7.48-8.98,12.97-.11,.94,.91,1.84,1.8,1.8,1.07-.05,1.68-.8,1.8-1.8v-.08l.02-.03c.03-.14,.05-.28,.07-.42,.05-.28,.11-.55,.18-.83,.15-.57,.33-1.14,.54-1.69,.02-.06,.06-.15,.08-.19,.05-.1,.09-.21,.14-.31,.12-.26,.25-.51,.38-.76,.28-.52,.6-1.03,.94-1.51,.08-.12,.17-.23,.25-.34l.02-.02s.04-.04,.07-.08c.18-.22,.36-.43,.55-.64,.38-.42,.79-.81,1.21-1.18,.13-.11,.26-.22,.39-.33,.02-.02,.04-.03,.06-.05,.24-.18,.49-.35,.74-.52,.5-.33,1.01-.62,1.55-.88,.85-.42,1.15-1.69,.65-2.46Z"/></g></g></g></svg>