<?xml version="1.0" encoding="UTF-8"?><svg xmlns="http://www.w3.org/2000/svg" viewBox="0 0 353.57 564.53"><defs><style>.d{fill:#9e4620;}.d,.e,.f,.g,.h,.i,.j,.k,.l,.m,.n,.o,.p,.q,.r,.s{stroke:#000;stroke-miterlimit:10;}.e{fill:#fff;}.f{fill:#f2bdaf;}.g{fill:#e89274;}.h{fill:#e2e5da;}.i{fill:#e2b09f;}.j{fill:#d67d56;}.k{fill:#b2582b;}.l{fill:#6d2e15;}.m{fill:#6d3117;}.n{fill:#b3b7a5;}.o{fill:#bc6446;}.p{fill:#9b4823;}.q{fill:#443d37;}.r{fill:#843c1c;}.s{fill:#f7f7e7;}</style></defs><g id="a"/><g id="b"><g id="c"><path class="q" d="M69.88,512.51c4.39,7.5,12.68,11.65,20.52,15.4,41.68,19.95,86.15,40.4,132.08,35.34-9.92-19.29-39.6-19.23-52.3-36.82-1.64-2.27-2.94-5.43-1.4-7.78,.93-1.42,2.63-2.09,4.23-2.65,58.13-20.16,128.07,.04,179.73-33.37-22.49-19.64-59-7.91-85.64-21.4-4.89-2.47-9.41-5.79-14.66-7.33-7.01-2.05-14.52-.71-21.69,.7-17.41,3.42-47.39-15.28-45.08-28.59-23.16-8.37-49.03,3.65-73.31-.47-23.8-4.03-68.63-25.35-78.18,13.18-3.57,14.41,6.1,22.54,15.1,31.7,13.24,13.46,11.76,26.99,20.61,42.09Z"/><g><polygon class="n" points="64.68 133 31.99 140.36 34.51 134.23 64.68 133"/><polygon class="h" points="39.54 128.1 34.51 134.23 64.68 133 39.54 128.1"/><polygon class="h" points="31.99 140.36 32.85 145.74 77.25 424.75 109.94 429.66 64.68 133 31.99 140.36"/><polygon class="e" points="337.51 365.91 109.94 429.66 64.68 133 296.02 91.32 337.51 365.91"/><polygon class="s" points="296.02 91.32 231.9 93.77 39.54 128.1 64.68 133 296.02 91.32"/><polygon class="i" points="84.4 425.82 69.1 429.66 109.94 438.51 350.08 367.14 337.51 365.91 109.94 429.66 84.4 425.82"/><polygon class="k" points="112.46 461.53 109.94 438.51 69.1 429.66 70.97 450.15 112.46 461.53"/><polygon class="j" points="350.08 367.14 352.6 389.2 112.46 461.53 109.94 438.51 350.08 367.14"/><polygon class="k" points="102.07 458.68 102.07 544.03 81.03 535.08 81.03 452.9 102.07 458.68"/><polygon class="j" points="112.46 461.53 127.3 457.06 127.3 533.89 102.07 544.03 102.07 458.68 112.46 461.53"/><polygon class="k" points="298.53 405.14 304.82 483.59 326.19 490.95 318.1 399.59 298.53 405.14"/><polygon class="j" points="338.02 393.31 343.8 472.56 326.19 490.95 318.1 399.59 338.02 393.31"/><polygon class="k" points="20.68 461.53 45.82 446.82 69.1 373.52 59.86 315.43 20.68 461.53"/><polygon class="j" points=".56 438.24 20.68 461.53 59.86 315.43 52.93 271.9 .56 438.24"/><polygon class="j" points="116.9 112.92 144.22 109.42 130.56 4.03 122.21 4.03 116.9 112.92"/><polygon class="k" points="96.32 117.96 116.9 112.92 122.21 4.03 102.4 6.74 96.32 117.96"/><polygon class="r" points="165.31 58.48 136.16 61 144.22 109.42 150.73 108.26 165.31 58.48"/><polygon class="g" points="160.23 4.29 165.31 58.48 136.16 61 130.56 4.03 160.23 4.29"/><polygon class="k" points="171.91 104.48 165.31 58.48 153.37 99.25 153.37 107.79 171.91 104.48"/><polygon class="j" points="196.46 100.1 171.91 104.48 160.23 4.29 165.31 4.03 196.46 100.1"/><path class="g" d="M189.15,41.06s6.29,2.45,5.03,11.03c-1.26,8.58-5.03,7.71-5.03,7.71l-5.75,.02-6.09-18.77h11.83Z"/><polygon class="g" points="100.12 48.49 86.17 48.49 86.17 67.87 99.06 67.87 100.12 48.49"/><ellipse class="j" cx="86.06" cy="58.22" rx="7.54" ry="9.81"/><polygon class="o" points="127.3 457.06 112.46 461.53 102.07 458.68 102.07 504.58 112.46 466.74 123.77 463.98 127.3 473.81 127.3 457.06"/><polygon class="m" points="101.77 500.14 94.23 489.11 81.03 535.08 81.03 452.9 102.07 458.68 101.77 500.14"/><polygon class="m" points="304.82 483.59 309.85 425.98 316.27 425.98 321.08 433.25 318.1 399.59 298.53 405.14 304.82 483.59"/><polygon class="o" points="321.08 433.25 326.19 407.48 334.99 405.14 339.55 414.33 338.02 393.31 318.1 399.59 321.08 433.25"/><polygon class="p" points="70.49 444.9 77.14 444.9 89.83 439.46 79.77 446.82 87.31 446.82 94.35 443.14 91.55 450.76 101.5 457.06 99.89 449.27 102.4 448.04 104.91 452.95 112.46 461.53 70.97 450.15 70.49 444.9"/><polygon points="84.4 425.82 79.87 426.96 109.94 433.23 193.15 406.35 109.94 429.66 84.4 425.82"/><path class="m" d="M20.68,461.53l11.19-41.74s11.44,.06,15.21-3.62c0,0,11.91-12.48,17.27-27.69l-18.53,58.34-25.15,14.71Z"/><polygon class="d" points="155.32 92.57 157.72 99.9 171.91 104.48 153.37 107.79 153.37 99.25 155.32 92.57"/><polygon class="l" points="139.17 79.08 147.93 92.57 150.73 92.57 157.85 83.95 150.73 108.26 144.22 109.42 139.17 79.08"/><path class="f" d="M160.23,4.29l3.09,33.41s-10.4-9.31-28.24,13.17l-1.73-18.35s20.59,15.9,26.88-28.23Z"/></g></g></g></svg>