<?xml version="1.0" encoding="UTF-8"?><svg xmlns="http://www.w3.org/2000/svg" viewBox="0 0 28.01 29.05"><defs><style>.d{fill:#ae9377;}.e{fill:#4f2323;}</style></defs><g id="a"/><g id="b"><g id="c"><path class="e" d="M.43,4.12c.34,.62,.72,1.21,1.14,1.78,.22,.3,.45,.59,.68,.89,.1,.13,.2,.26,.32,.37,.19,.18,.41,.36,.64,.48,.11,.05,.22,.09,.33,.14,.11,.06,.22,.1,.33,.14,.13,.03,.28,.04,.4,.06,.42,.06,.67,.05,1.14-.06,.11-.04,.22-.09,.33-.14,.11-.04,.22-.09,.33-.14,.21-.11,.39-.27,.56-.43,.24-.23,.42-.49,.52-.8,.16-.3,.23-.62,.22-.96,.01-.34-.06-.67-.22-.96-.1-.31-.27-.58-.52-.8-.48-.44-1.1-.76-1.77-.73l-.66,.09c-.42,.12-.79,.33-1.1,.64l-.03,.02,.51-.39s-.04,.03-.06,.03l.6-.25s-.06,.02-.1,.02l.66-.09s-.05,0-.07,0l.66,.09s-.07-.01-.1-.02l.6,.25c-.05-.02-.09-.05-.14-.08l.51,.39c-.2-.16-.35-.39-.5-.59l.39,.51c-.48-.62-.91-1.28-1.29-1.97-.16-.29-.37-.53-.64-.7-.24-.22-.52-.37-.85-.45-.33-.1-.66-.12-1-.04-.33,.02-.64,.11-.93,.3C.8,1.05,.33,1.56,.18,2.2l-.09,.66c0,.45,.12,.87,.34,1.26H.43Z"/><path class="d" d="M26.72,24.69L8.86,6.85c-1.71-1.71-4.36,.94-2.65,2.65L24.07,27.34c1.71,1.71,4.36-.94,2.65-2.65h0Z"/><g><path d="M7.71,7.1h0s.05-.04,0,0Z"/><path d="M27.99,25.68s-.02-.07-.04-.11c-.02-.05-.05-.08-.08-.12-.02-.02-.02-.04-.04-.06L8.3,5.86s0-.08-.02-.12c-.47-1.35-1.16-2.59-2.07-3.69C5.36,1.03,4.19-.05,2.77,0,2.08,.03,1.19,.26,.62,.65-.04,1.08-.03,1.8,.02,2.5c.05,.77,.15,1.53,.47,2.24,.28,.64,.74,1.2,1.17,1.74,.85,1.07,1.91,2.01,3.28,2.24,.02,.03,.03,.07,.06,.09,.6,.61,1.19,1.22,1.79,1.83,.06,.12,.15,.22,.28,.28,5.96,5.96,11.93,11.93,17.89,17.89,.02,.02,.05,.03,.07,.05,.2,.18,.5,.26,.74,.1,1.04-.73,1.81-1.76,2.22-2.96,.01-.04,0-.08,.01-.13,0-.01,0-.03,0-.04,0-.05,0-.1-.02-.15ZM2.92,6.05c-.73-.83-1.41-1.72-1.58-2.83-.04-.28-.06-.57-.08-.85,0-.15-.09-.48-.01-.62,.09-.16,.43-.22,.59-.27,.28-.1,.57-.2,.87-.22,1.06-.08,1.91,.84,2.54,1.58,.8,.94,1.41,2.04,1.82,3.2-.61,.47-1.21,.96-1.79,1.48h0c-.97-.07-1.74-.78-2.35-1.47ZM26.66,26.02s-.03,.06-.04,.09c-.03,.06-.05,.11-.08,.17-.12,.24-.27,.46-.43,.68l-.03,.04v.02c-.06,.05-.1,.11-.15,.16-.09,.1-.17,.19-.27,.28-.05,.05-.11,.1-.16,.14-5.89-5.89-11.79-11.79-17.68-17.68,0,0-.01,0-.02-.01-.52-.53-1.03-1.05-1.55-1.58,.25-.22,.49-.44,.75-.66,.18-.15,.36-.3,.55-.44,.05-.04,.1-.08,.15-.11l-.02,.02s.04-.03,.06-.04L26.66,26v.02Z"/></g></g></g></svg>