<?xml version="1.0" encoding="UTF-8"?><svg xmlns="http://www.w3.org/2000/svg" viewBox="0 0 154.86 495.5"><defs><style>.d{fill:#231f20;}.e{fill:#f15e68;}.e,.f,.g,.h,.i,.j{stroke:#231f20;stroke-miterlimit:10;}.f{fill:#a79c9d;}.g{fill:#d1c6b6;}.h{fill:#c1bcbc;}.i{fill:#96662e;}.j{fill:#f3e7d4;}</style></defs><g id="a"/><g id="b"><g id="c"><path class="d" d="M45.01,12.22l-25-1.34L0,2.88,8.98,0H153.44l.56,3.37-62.25,6.76-46.74,2.09Zm-24.7-2.3l24.71,1.3,46.66-2.09,61.17-6.64-.25-1.49H9.06L2.94,2.98l17.37,6.94Z"/><path class="f" d="M154.2,141.66l-17.45,60.36h-55.12c19.5-5.35,53.31-20.2,68.38-60.36h4.19Z"/><path class="h" d="M150.01,141.66c-15.07,40.16-48.88,55.01-68.38,60.36H18.93L1.47,141.66H150.01Z"/><path class="j" d="M58.33,440.24l-2.78-95.61-2.8-96.06v-.02c-.73-2.56-2.24-4.72-4.25-6.24-2.01-1.52-4.51-2.41-7.16-2.41h-6.94s-.08-.03-.1-.06l-15.31-37.68c-.03-.07,.02-.14,.09-.14H98.39c4.86,165.96-14.42,230.74-40.06,238.22Z"/><path class="i" d="M153.58,34.89c-.31,1.07-1.77,5.68-6.47,8.4-3.2,1.86-6.3,1.91-7.66,1.85-1.9,.79-4.55,2.26-6.17,5.05-1.49,2.57-1.21,4.69-.5,13.37,.96,11.9,.78,12.28,1.58,14.32,1.08,2.72,1.41,2.06,6.67,10.43,4.33,6.9,5.05,8.87,5.35,9.75,1.34,3.9,1.45,7.05,1.56,10.76,.24,8.21,.36,12.31-2.34,16.12-2.62,3.7-7.73,6.95-12.95,6.4-8.83-.94-13.31-12.26-14.06-14.15-4.43-11.19,1.43-16.62-4.15-25.98-2.82-4.73-7.11-8.03-8.87-9.38-3.5-2.69-3.82-1.95-11.94-6.82-6.96-4.18-10.06-6.45-13-9.75-2.03-2.28-3.43-4.4-4.31-5.89-3.08-5.39-6.92-8.17-8.96-9.43-6.13-3.79-12.5-3.97-16.42-4.09-2.54-.07-4.64,.1-6.06,.27-2.88,.87-6.83,1.82-11.6,2.25-3.79,.34-6.52,.2-10.79-.02-6.44-.32-9.66-.49-12.21-1.61-1.97-.86-5.64-2.93-8.81-8.16v103.08H153.42c.05-35.59,.1-71.18,.15-106.77Z"/><path class="d" d="M134.73,132.54c-1.53,0-3.07-.3-4.6-.92-7.04-2.81-11.85-10.93-12.81-17.15-.4-2.57-.41-5.21-.42-7.76-.02-3.55-.03-7.21-1.1-10.65-2.45-7.89-10.47-13.4-17.18-17.32-.98-.57-1.94-1.12-2.88-1.66-5.72-3.28-10.65-6.12-15.8-11.11-1.93-1.87-3.22-4.02-4.47-6.1-1.02-1.7-2.08-3.46-3.47-5.01-8.93-9.97-22.25-8.42-35.13-6.92-13.21,1.54-26.87,3.13-35.31-8.09l-.1-.13v-.16L.96,2.33,20.02,10.88l71.73-.75,39.69-4.31,22.48-3.42v31.09c-.88,4.25-3.24,7.63-6.82,9.8-1.27,.77-3.1,1.37-5.05,2.02-2.76,.91-5.61,1.85-6.82,3.27-1.59,1.86-2.49,7.32-2.47,14.99,.02,5.53,1.33,11.64,3.5,16.36,1.33,2.89,3.07,5.68,4.75,8.39,2.28,3.68,4.65,7.48,6.07,11.63,2.96,8.61,3.55,23.5-4.4,29.66-2.52,1.95-5.22,2.94-7.97,2.94ZM50.95,45.84c8.19,0,15.87,1.75,21.79,8.36,1.45,1.62,2.53,3.42,3.58,5.16,1.22,2.03,2.48,4.12,4.31,5.89,5.06,4.9,9.95,7.71,15.6,10.96,.94,.54,1.9,1.09,2.88,1.66,6.87,4.01,15.08,9.67,17.63,17.88,1.11,3.59,1.13,7.33,1.15,10.95,.01,2.51,.02,5.11,.41,7.61,.93,6.03,5.74,13.8,12.19,16.38,3.95,1.58,7.96,.92,11.59-1.89,7.56-5.86,6.93-20.22,4.07-28.55-1.39-4.05-3.72-7.8-5.98-11.43-1.69-2.73-3.45-5.55-4.81-8.5-2.23-4.84-3.58-11.12-3.59-16.78-.02-5.67,.44-12.99,2.71-15.64,1.39-1.62,4.38-2.61,7.26-3.56,1.89-.62,3.67-1.21,4.84-1.92,3.32-2.01,5.52-5.15,6.36-9.1l-.02-29.88-26.09,1.61-35.08,5.06-71.73,.75L1.98,3.52l.48,35.86c8.09,10.62,20.82,9.14,34.29,7.57,4.75-.55,9.55-1.11,14.19-1.11Z"/><path class="g" d="M136.69,202.16l-15.31,37.68s-.06,.06-.1,.06h-6.95c-5.31,0-9.98,3.54-11.41,8.66h-.09l-6.64,227.99c-.31,10.61-9.26,19.22-19.84,18.4-9.28-.71-16.66-8.33-16.94-17.8l-1.08-36.91c17.57-21.52,36.81-39.67,36.34-197.98,5.02-14.87,3.82-25.51,1.95-40.05l7.91-.19h32.06c.07,0,.12,.07,.09,.14Z"/><line class="e" x1="49.98" y1="141.9" x2="49.67" y2="112.34"/><line class="e" x1="69.32" y1="141.37" x2="67.39" y2="93.02"/><line class="e" x1="96.69" y1="141.63" x2="94.37" y2="86.57"/><line class="e" x1="66.42" y1="81.8" x2="65.45" y2="55.97"/><line class="e" x1="49.98" y1="103" x2="49.67" y2="86.86"/><line class="e" x1="49.98" y1="78.05" x2="49.67" y2="46.89"/></g></g></svg>