<?xml version="1.0" encoding="UTF-8"?><svg id="Layer_2" xmlns="http://www.w3.org/2000/svg" viewBox="0 0 15.9 14.36"><defs><style>.cls-1{fill:#fff;}.cls-2{fill:#9eccca;}.cls-3{fill:#aa133f;}.cls-4{fill:#d6f2f0;}.cls-5{fill:#d2466a;}</style></defs><g id="Layer_1-2"><g><path class="cls-2" d="M15.8,4.21c.04,1.61-.67,2.91-1.62,4.12-1.39,1.77-3.08,3.22-4.78,4.66-.47,.4-.93,.79-1.44,1.23-2.2-1.91-4.5-3.67-6.29-5.97C.68,6.99-.02,5.61,.12,3.93,.26,2.2,1.44,.76,3.14,.26c1.62-.48,3.43,.11,4.46,1.45,.11,.14,.21,.29,.35,.49,.08-.11,.15-.22,.23-.32h0s.04-.05,.05-.08c.33-.46,.75-.83,1.21-1.11,1.02-.61,2.28-.78,3.46-.41,1.7,.54,2.86,2.13,2.9,3.92Z"/><path d="M7.95,14.36l-.06-.06c-.41-.35-.82-.71-1.24-1.05-1.77-1.5-3.6-3.05-5.07-4.93C.38,6.76-.1,5.41,.02,3.93,.16,2.15,1.38,.68,3.11,.17c1.67-.49,3.5,.11,4.56,1.49,.07,.09,.13,.18,.21,.29,.02,.03,.04,.06,.06,.09,.05-.07,.09-.13,.14-.19h0s.04-.06,.06-.09c.34-.46,.75-.84,1.24-1.14C10.45-.02,11.74-.17,12.93,.2c1.73,.56,2.93,2.17,2.97,4.01h0c.03,1.41-.48,2.7-1.65,4.18-1.34,1.7-2.9,3.07-4.79,4.68-.47,.4-.93,.79-1.44,1.23l-.06,.05ZM4.29,.2c-.38,0-.76,.05-1.13,.16C1.51,.84,.35,2.25,.21,3.94c-.12,1.43,.35,2.74,1.53,4.26,1.45,1.86,3.27,3.41,5.04,4.9,.39,.33,.78,.66,1.17,1,.48-.42,.93-.8,1.38-1.18,1.89-1.6,3.44-2.96,4.77-4.65,1.14-1.45,1.63-2.7,1.6-4.06h0c-.04-1.76-1.17-3.3-2.83-3.83-1.13-.36-2.36-.22-3.38,.4-.46,.28-.86,.64-1.18,1.08-.01,.02-.02,.03-.03,.05h0s-.02,.03-.02,.03c-.06,.08-.13,.17-.19,.27l-.11,.16-.08-.11c-.05-.07-.1-.14-.14-.21-.07-.1-.14-.2-.2-.28C6.74,.77,5.53,.2,4.29,.2Z"/></g><g><g><g><g><path class="cls-2" d="M10.62,2.05h.07c.25,0,.46,.2,.46,.46v.81h-.99v-.81c0-.25,.2-.46,.46-.46Z" transform="translate(2.08 -4.19) rotate(24.58)"/><path d="M10.89,3.59l-1.08-.49,.38-.83c.06-.13,.17-.24,.31-.29,.14-.05,.29-.05,.42,.02l.07,.03c.28,.13,.4,.46,.27,.74l-.38,.83Zm-.82-.59l.72,.33,.3-.65c.08-.18,0-.39-.18-.48l-.07-.03c-.09-.04-.19-.04-.27,0-.09,.03-.16,.1-.2,.19l-.3,.65Z"/></g><g><path class="cls-2" d="M9.73,2.02h.07c.25,0,.46,.2,.46,.46v.81h-.99v-.81c0-.25,.2-.46,.46-.46Z" transform="translate(-.25 1.22) rotate(-7.09)"/><path d="M9.27,3.46l-.11-.9c-.04-.3,.18-.58,.48-.62h.07c.15-.03,.29,.01,.41,.1s.19,.22,.21,.37l.11,.9-1.18,.15Zm.51-1.34s-.03,0-.05,0h-.07c-.2,.03-.34,.21-.31,.41l.09,.71,.79-.1-.09-.71c-.01-.1-.06-.18-.14-.24-.06-.05-.14-.08-.22-.08Z"/></g><g><path class="cls-2" d="M8.89,2.33h.07c.25,0,.46,.2,.46,.46v.81h-.99v-.81c0-.25,.2-.46,.46-.46Z" transform="translate(-.04 5.79) rotate(-35.86)"/><path d="M8.88,3.91l-.53-.74c-.18-.25-.12-.6,.12-.77l.06-.04c.25-.18,.6-.12,.77,.12l.53,.74-.96,.69Zm-.02-1.47c-.07,0-.15,.02-.21,.07l-.06,.04c-.16,.12-.2,.34-.08,.5l.42,.58,.64-.46-.42-.58c-.07-.1-.18-.15-.29-.15Z"/></g><g><path class="cls-2" d="M8.19,2.75h.07c.25,0,.46,.2,.46,.46v.81h-.99v-.81c0-.25,.2-.46,.46-.46Z" transform="translate(-.43 5.46) rotate(-35.86)"/><path d="M8.17,4.33l-.53-.74c-.18-.25-.12-.6,.12-.77l.06-.04c.25-.18,.6-.12,.77,.12l.53,.74-.96,.69Zm-.02-1.47c-.07,0-.15,.02-.21,.07l-.06,.04c-.16,.12-.2,.34-.08,.5l.42,.58,.64-.46-.42-.58c-.07-.1-.18-.15-.29-.15Z"/></g><g><path class="cls-2" d="M11.49,2.5h.07c.25,0,.46,.2,.46,.46v.81h-.99v-.81c0-.25,.2-.46,.46-.46Z" transform="translate(6.33 -7.62) rotate(49)"/><path d="M11.36,4.07l-.78-.89,.69-.6c.23-.2,.58-.18,.78,.05l.05,.06c.1,.11,.15,.25,.13,.4s-.08,.28-.19,.38l-.69,.6Zm-.5-.87l.52,.6,.54-.47c.07-.06,.12-.15,.12-.25,0-.1-.02-.19-.09-.26l-.05-.06c-.13-.15-.36-.17-.51-.04l-.54,.47Z"/></g><g><path class="cls-2" d="M12.08,3.25h.07c.25,0,.46,.2,.46,.46v.81h-.99v-.81c0-.25,.2-.46,.46-.46Z" transform="translate(11.7 -8.83) rotate(70.35)"/><path d="M11.63,4.69l-.4-1.12,.86-.31c.14-.05,.29-.04,.42,.02,.13,.06,.24,.18,.29,.31l.03,.07c.05,.14,.04,.29-.02,.42-.06,.13-.18,.24-.32,.29l-.86,.31Zm-.15-1l.27,.75,.67-.24c.19-.07,.28-.27,.22-.46l-.03-.07c-.03-.09-.1-.16-.18-.2-.09-.04-.18-.05-.27-.01l-.67,.24Z"/></g><g><path class="cls-2" d="M12.39,4.29h.07c.25,0,.46,.2,.46,.46v.81h-.99v-.81c0-.25,.2-.46,.46-.46Z" transform="translate(15.99 -7.95) rotate(83.82)"/><path d="M11.76,5.6l-.13-1.18,.91-.1c.31-.03,.58,.19,.61,.49v.07c.04,.3-.18,.58-.48,.61l-.91,.1Zm.09-1l.09,.79,.71-.08c.2-.02,.34-.2,.32-.4v-.07c-.03-.2-.21-.34-.4-.32l-.71,.08Z"/></g><g><path class="cls-2" d="M12.26,5.32h.07c.25,0,.46,.2,.46,.46v.81h-.99v-.81c0-.25,.2-.46,.46-.46Z" transform="translate(20.86 -4.69) rotate(102.98)"/><path d="M12.46,6.59s-.08,0-.12-.01l-.89-.2,.27-1.15,.89,.2c.14,.03,.27,.12,.35,.25,.08,.13,.1,.27,.07,.42l-.02,.07c-.06,.26-.29,.43-.54,.43Zm-.78-.37l.7,.16c.19,.04,.39-.08,.43-.27l.02-.07c.02-.09,0-.19-.05-.27-.05-.08-.13-.14-.22-.16l-.7-.16-.18,.77Z"/></g><g><path class="cls-2" d="M11.88,6.14h.07c.25,0,.46,.2,.46,.46v.81h-.99v-.81c0-.25,.2-.46,.46-.46Z" transform="translate(23.73 -.17) rotate(119.89)"/><path d="M12.05,7.46c-.09,0-.19-.02-.28-.07l-.79-.45,.59-1.03,.79,.45c.13,.07,.22,.19,.26,.34,.04,.14,.02,.29-.05,.42l-.04,.06c-.1,.18-.29,.28-.48,.28Zm-.8-.6l.62,.36c.17,.1,.39,.04,.49-.13l.04-.06c.05-.08,.06-.18,.04-.27-.02-.09-.08-.17-.17-.22l-.62-.36-.4,.69Z"/></g><g><path class="cls-2" d="M11.17,6.99h.07c.25,0,.46,.2,.46,.46v.81h-.99v-.81c0-.25,.2-.46,.46-.46Z" transform="translate(23.4 1.71) rotate(119.89)"/><path d="M11.34,8.3c-.09,0-.19-.02-.28-.07l-.79-.45,.59-1.03,.79,.45c.13,.07,.22,.19,.26,.34,.04,.14,.02,.29-.05,.42l-.04,.06c-.1,.18-.29,.28-.48,.28Zm-.8-.6l.62,.36c.17,.1,.39,.04,.49-.13l.04-.06c.05-.08,.06-.18,.04-.27-.02-.09-.08-.17-.17-.22l-.62-.36-.4,.69Z"/></g><g><path class="cls-2" d="M10.46,7.84h.07c.25,0,.46,.2,.46,.46v.81h-.99v-.81c0-.25,.2-.46,.46-.46Z" transform="translate(23.08 3.59) rotate(119.89)"/><path d="M10.64,9.15c-.09,0-.19-.02-.28-.07l-.79-.45,.59-1.03,.79,.45c.13,.07,.22,.19,.26,.34,.04,.14,.02,.29-.05,.42l-.04,.06c-.1,.18-.29,.28-.48,.28Zm-.8-.6l.62,.36c.17,.1,.39,.04,.49-.13l.04-.06c.05-.08,.06-.18,.04-.27-.02-.09-.08-.17-.17-.22l-.62-.36-.4,.69Z"/></g><g><path class="cls-2" d="M9.76,8.69h.07c.25,0,.46,.2,.46,.46v.81h-.99v-.81c0-.25,.2-.46,.46-.46Z" transform="translate(22.76 5.48) rotate(119.89)"/><path d="M9.93,10c-.1,0-.19-.03-.28-.07l-.79-.45,.59-1.03,.79,.45c.13,.07,.22,.19,.26,.34,.04,.14,.02,.29-.05,.42l-.04,.06c-.07,.13-.19,.22-.34,.26-.05,.01-.1,.02-.15,.02Zm-.8-.6l.62,.36c.17,.1,.39,.04,.49-.13l.04-.06c.05-.08,.06-.18,.04-.27-.02-.09-.08-.17-.17-.22l-.62-.36-.4,.69Z"/></g><g><path class="cls-2" d="M9.02,9.41h.07c.25,0,.46,.2,.46,.46v.81h-.99v-.81c0-.25,.2-.46,.46-.46Z" transform="translate(22.46 11.87) rotate(139.75)"/><path d="M9.14,10.76c-.16,0-.31-.07-.42-.2l-.59-.7,.9-.77,.59,.7c.2,.23,.17,.58-.06,.78l-.06,.05c-.1,.09-.23,.13-.36,.13Zm-.74-.87l.46,.55c.06,.07,.15,.12,.24,.13,.1,0,.19-.02,.26-.08l.06-.05c.15-.13,.17-.36,.04-.51l-.46-.55-.61,.51Z"/></g><g><path class="cls-2" d="M8.31,9.84h.07c.25,0,.46,.2,.46,.46v.81h-.99v-.81c0-.25,.2-.46,.46-.46Z" transform="translate(21.49 13.07) rotate(139.75)"/><path d="M8.44,11.19c-.16,0-.31-.07-.42-.2l-.59-.7,.9-.77,.59,.7c.1,.11,.14,.26,.13,.4-.01,.15-.08,.28-.19,.38l-.06,.05c-.1,.09-.23,.13-.36,.13Zm-.74-.87l.46,.55c.06,.07,.15,.12,.24,.13,.1,0,.19-.02,.26-.08l.06-.05c.07-.06,.12-.15,.13-.24,0-.1-.02-.19-.08-.26l-.46-.55-.61,.51Z"/></g><g><path class="cls-2" d="M4.4,2.05h.99v.81c0,.25-.2,.46-.46,.46h-.07c-.25,0-.46-.2-.46-.46v-.81h0Z" transform="translate(10.45 3.09) rotate(155.42)"/><path d="M4.66,3.59l-.38-.83c-.13-.28,0-.61,.27-.74l.07-.03c.13-.06,.29-.07,.42-.02,.14,.05,.25,.15,.31,.29l.38,.83-1.08,.49Zm.19-1.45c-.05,0-.1,.01-.15,.03l-.07,.03c-.09,.04-.15,.11-.19,.2-.03,.09-.03,.19,0,.27l.3,.65,.72-.33-.3-.65c-.04-.09-.11-.15-.2-.19-.04-.02-.08-.02-.13-.02Z"/></g><g><path class="cls-2" d="M5.29,2.02h.99v.81c0,.25-.2,.46-.46,.46h-.07c-.25,0-.46-.2-.46-.46v-.81h0Z" transform="translate(11.2 6) rotate(-172.91)"/><path d="M6.28,3.46l-1.18-.15,.11-.9c.04-.3,.32-.52,.62-.48h.07c.3,.05,.52,.32,.48,.63l-.11,.9Zm-.96-.32l.79,.1,.09-.71c.02-.2-.12-.38-.31-.4h-.07c-.2-.03-.38,.11-.4,.3l-.09,.71Z"/></g><g><path class="cls-2" d="M6.12,2.33h.99v.81c0,.25-.2,.46-.46,.46h-.07c-.25,0-.46-.2-.46-.46v-.81h0Z" transform="translate(10.24 9.24) rotate(-144.14)"/><path d="M6.67,3.91l-.96-.69,.53-.74c.18-.25,.53-.3,.77-.12l.06,.04c.12,.09,.2,.22,.22,.36,.02,.15-.01,.29-.1,.41l-.53,.74Zm-.69-.74l.64,.46,.42-.58c.06-.08,.08-.17,.06-.27-.02-.09-.07-.18-.14-.23l-.06-.04c-.08-.06-.17-.08-.27-.06-.09,.02-.18,.07-.23,.14l-.42,.58Z"/></g><g><path class="cls-2" d="M6.83,2.75h.99v.81c0,.25-.2,.46-.46,.46h-.07c-.25,0-.46-.2-.46-.46v-.81h0Z" transform="translate(11.27 10.42) rotate(-144.14)"/><path d="M7.37,4.33l-.96-.69,.53-.74c.18-.25,.53-.3,.77-.12l.06,.04c.25,.18,.3,.53,.12,.77l-.53,.74Zm-.69-.74l.64,.46,.42-.58c.12-.16,.08-.39-.08-.5l-.06-.04c-.16-.12-.39-.08-.5,.08l-.42,.58Z"/></g><g><path class="cls-2" d="M3.38,2.36h.99v.81c0,.25-.2,.46-.46,.46h-.07c-.25,0-.46-.2-.46-.46v-.81h0Z" transform="translate(8.69 2.04) rotate(131)"/><path d="M4.04,3.93l-.69-.6c-.23-.2-.26-.55-.05-.78l.05-.06c.1-.11,.23-.18,.38-.19,.15-.01,.29,.04,.4,.13l.69,.6-.78,.89Zm-.27-1.43s-.02,0-.03,0c-.1,0-.18,.05-.25,.12l-.05,.06c-.13,.15-.11,.38,.04,.51l.54,.47,.52-.6-.54-.47c-.07-.06-.15-.09-.24-.09Z"/></g><g><path class="cls-2" d="M2.79,3.11h.99v.81c0,.25-.2,.46-.46,.46h-.07c-.25,0-.46-.2-.46-.46v-.81h0Z" transform="translate(7.92 1.9) rotate(109.65)"/><path d="M3.78,4.55l-.86-.31c-.29-.1-.44-.42-.34-.71l.03-.07c.05-.14,.15-.25,.28-.31,.13-.06,.28-.07,.42-.02l.86,.31-.4,1.12Zm-.65-1.26c-.05,0-.1,.01-.15,.03-.09,.04-.15,.11-.18,.2l-.03,.07c-.03,.09-.03,.19,.01,.27,.04,.09,.11,.15,.2,.18l.67,.24,.27-.75-.67-.24s-.08-.02-.12-.02Z"/></g><g><path class="cls-2" d="M2.63,4.29h.99v.81c0,.25-.2,.46-.46,.46h-.07c-.25,0-.46-.2-.46-.46v-.81h0Z" transform="translate(8.36 2.36) rotate(96.18)"/><path d="M3.79,5.6l-.91-.1c-.15-.02-.28-.09-.37-.2-.09-.12-.14-.26-.12-.41v-.07c.02-.15,.1-.28,.21-.37,.12-.09,.26-.14,.41-.12l.91,.1-.13,1.18Zm-.84-1.08c-.18,0-.34,.14-.36,.32v.07c-.02,.1,0,.19,.07,.26s.15,.12,.24,.13l.71,.08,.09-.79-.71-.08s-.03,0-.04,0Z"/></g><g><path class="cls-2" d="M2.75,5.32h.99v.81c0,.25-.2,.46-.46,.46h-.07c-.25,0-.46-.2-.46-.46v-.81h0Z" transform="translate(8.32 1.45) rotate(77.02)"/><path d="M3.08,6.59c-.25,0-.48-.17-.54-.43l-.02-.07c-.03-.14,0-.29,.07-.42,.08-.13,.2-.21,.35-.25l.89-.2,.27,1.15-.89,.2s-.08,.01-.12,.01Zm.6-1.14l-.7,.16c-.09,.02-.17,.08-.22,.16-.05,.08-.07,.18-.05,.27l.02,.07c.02,.09,.08,.17,.16,.22,.08,.05,.18,.07,.27,.05l.7-.16-.18-.77Z"/></g><g><path class="cls-2" d="M3.14,6.14h.99v.81c0,.25-.2,.46-.46,.46h-.07c-.25,0-.46-.2-.46-.46v-.81h0Z" transform="translate(7.7 .25) rotate(60.11)"/><path d="M3.5,7.46c-.19,0-.38-.1-.48-.28l-.04-.06c-.15-.27-.06-.61,.2-.76l.79-.45,.59,1.03-.79,.45c-.09,.05-.18,.07-.28,.07Zm.4-1.29l-.62,.36c-.17,.1-.23,.32-.13,.49l.04,.06c.1,.17,.32,.23,.49,.13l.62-.36-.4-.69Z"/></g><g><path class="cls-2" d="M3.85,6.99h.99v.81c0,.25-.2,.46-.46,.46h-.07c-.25,0-.46-.2-.46-.46v-.81h0Z" transform="translate(8.79 .06) rotate(60.11)"/><path d="M4.2,8.3c-.19,0-.38-.1-.48-.28l-.04-.06c-.15-.27-.06-.61,.2-.76l.79-.45,.59,1.03-.79,.45c-.09,.05-.18,.07-.28,.07Zm.4-1.29l-.62,.36c-.17,.1-.23,.32-.13,.49l.04,.06c.1,.17,.32,.23,.49,.13l.62-.36-.4-.69Z"/></g><g><path class="cls-2" d="M4.55,7.84h.99v.81c0,.25-.2,.46-.46,.46h-.07c-.25,0-.46-.2-.46-.46v-.81h0Z" transform="translate(9.88 -.12) rotate(60.11)"/><path d="M4.91,9.15c-.19,0-.38-.1-.48-.28l-.04-.06c-.15-.27-.06-.61,.2-.76l.79-.45,.59,1.03-.79,.45c-.09,.05-.18,.07-.28,.07Zm.4-1.29l-.62,.36c-.17,.1-.23,.32-.13,.49l.04,.06c.1,.17,.32,.23,.49,.13l.62-.36-.4-.69Z"/></g><g><path class="cls-2" d="M5.26,8.69h.99v.81c0,.25-.2,.46-.46,.46h-.07c-.25,0-.46-.2-.46-.46v-.81h0Z" transform="translate(10.97 -.31) rotate(60.11)"/><path d="M5.62,10s-.1,0-.15-.02c-.14-.04-.26-.13-.34-.26l-.04-.06c-.07-.13-.09-.28-.05-.42,.04-.14,.13-.26,.26-.34l.79-.45,.59,1.03-.79,.45c-.09,.05-.18,.07-.28,.07Zm.4-1.29l-.62,.36c-.17,.1-.23,.32-.13,.49l.04,.06c.1,.17,.32,.23,.49,.13l.62-.36-.4-.69Z"/></g><g><path class="cls-2" d="M6,9.41h.99v.81c0,.25-.2,.46-.46,.46h-.07c-.25,0-.46-.2-.46-.46v-.81h0Z" transform="translate(8.03 -1.81) rotate(40.25)"/><path d="M6.4,10.76c-.13,0-.25-.04-.36-.13l-.06-.05c-.11-.1-.18-.23-.19-.38-.01-.15,.03-.29,.13-.4l.59-.7,.9,.77-.59,.7c-.11,.13-.27,.2-.42,.2Zm.13-1.38l-.46,.55c-.06,.07-.09,.17-.08,.26s.05,.18,.13,.24l.06,.05c.07,.06,.17,.09,.26,.08,.1,0,.18-.05,.24-.13l.46-.55-.61-.51Z"/></g><g><path class="cls-2" d="M6.7,9.84h.99v.81c0,.25-.2,.46-.46,.46h-.07c-.25,0-.46-.2-.46-.46v-.81h0Z" transform="translate(8.47 -2.17) rotate(40.25)"/><path d="M7.11,11.19c-.13,0-.25-.04-.36-.13l-.06-.05c-.11-.1-.18-.23-.19-.38-.01-.15,.03-.29,.13-.4l.59-.7,.9,.77-.59,.7c-.11,.13-.27,.2-.42,.2Zm.13-1.38l-.46,.55c-.06,.07-.09,.17-.08,.26,0,.1,.05,.18,.13,.24l.06,.05c.07,.06,.17,.09,.26,.08,.1,0,.18-.05,.24-.13l.46-.55-.61-.51Z"/></g><g><path class="cls-2" d="M7.69,3.57h.07c.25,0,.46,.2,.46,.46v.81h-.99v-.81c0-.25,.2-.46,.46-.46Z" transform="translate(.25 -.43) rotate(3.26)"/><path d="M8.28,4.97l-1.18-.07,.05-.91c.02-.31,.28-.54,.59-.52h.07c.15,.01,.28,.08,.38,.19,.1,.11,.15,.25,.14,.4l-.05,.91Zm-.98-.25l.79,.05,.04-.71c0-.1-.03-.19-.09-.26s-.15-.11-.25-.12h-.07c-.2-.02-.37,.14-.38,.33l-.04,.72Z"/></g><g><path class="cls-2" d="M7.78,9.96h.07c.25,0,.46,.2,.46,.46v.81h-.99v-.81c0-.25,.2-.46,.46-.46Z" transform="translate(15.02 21.62) rotate(-176.74)"/><path d="M7.84,11.33s-.02,0-.03,0h-.07c-.31-.02-.54-.28-.52-.59l.05-.91,1.18,.07-.05,.91c0,.15-.07,.28-.18,.38-.1,.09-.23,.14-.37,.14Zm-.39-1.29l-.04,.71c-.01,.2,.14,.37,.34,.38h.07c.1,0,.19-.02,.26-.09s.11-.15,.12-.25l.04-.72-.79-.05Z"/></g><g><path class="cls-4" d="M7.51,10.31c-1.29-1.1-2.52-2.13-3.5-3.4-.7-.91-.98-1.64-.91-2.43,.07-.84,.65-1.54,1.47-1.78,.18-.05,.36-.08,.55-.08,.63,0,1.23,.29,1.61,.78,.04,.05,.08,.11,.12,.17,.03,.05,.07,.1,.11,.16l.81,1.13,.83-1.17c.04-.06,.08-.12,.12-.17l.14-.19c.14-.17,.31-.31,.49-.42,.32-.19,.69-.3,1.06-.3,.21,0,.42,.03,.62,.1,.82,.26,1.38,1.03,1.4,1.9,.02,.76-.27,1.46-.96,2.34-.9,1.15-1.99,2.1-3.31,3.22-.13,.11-.27,.23-.4,.34-.08-.07-.17-.14-.25-.21Z"/><path d="M7.76,10.66l-.32-.27c-1.3-1.1-2.52-2.14-3.52-3.42-.72-.93-1-1.68-.93-2.5,.07-.88,.68-1.61,1.54-1.87,.19-.05,.38-.08,.58-.08,.66,0,1.29,.31,1.68,.82,.04,.05,.07,.1,.11,.16,.04,.06,.08,.11,.12,.17l.73,1.02,.76-1.08c.04-.05,.07-.1,.11-.15l.14-.19c.15-.18,.32-.33,.52-.44,.53-.32,1.18-.4,1.77-.21,.86,.28,1.45,1.08,1.47,2,.02,.79-.28,1.51-.98,2.41-.91,1.16-2,2.11-3.32,3.24-.13,.11-.27,.23-.4,.34l-.06,.05Zm-.19-.42l.19,.16c.11-.1,.23-.19,.34-.29,1.32-1.12,2.4-2.06,3.3-3.21,.68-.86,.96-1.54,.94-2.28-.02-.84-.55-1.56-1.33-1.81-.53-.17-1.13-.1-1.61,.19-.17,.11-.33,.24-.47,.4l-.14,.19s-.07,.09-.1,.14l-.92,1.3-.89-1.24c-.04-.06-.08-.11-.11-.16-.05-.07-.08-.12-.12-.17-.36-.46-.93-.74-1.53-.74-.18,0-.35,.02-.52,.07-.79,.23-1.34,.9-1.4,1.69-.06,.77,.2,1.48,.89,2.36,.98,1.26,2.2,2.29,3.49,3.39h0Z"/></g></g><g><path class="cls-1" d="M10.35,3.3c-.45,0-.46,.71,0,.71s.46-.71,0-.71Z"/><path d="M10.35,3.5c.13,0,.15,.12,.15,.16s-.01,.16-.15,.16c-.05,0-.08-.01-.11-.04-.02-.03-.04-.07-.04-.12,0-.04,.01-.16,.15-.16m0-.2c-.45,0-.46,.71,0,.71s.46-.71,0-.71h0Z"/></g><g><path class="cls-1" d="M11.5,4.03c-.06-.08-.12-.14-.21-.16-.08-.02-.2-.01-.27,.04-.15,.09-.24,.32-.13,.48,.03,.04,.06,.09,.09,.13,.01,.02,.03,.05,.04,.07,0,0,0,0,0,.01,.02,.05,.03,.1,.05,.15,0,.03,.01,.05,.02,.08,0,0,0,.02,0,.03,0,.05,0,.1,0,.15,0,.03,0,.05,0,.08,0,0,0,.03,0,.04,0,.02,0,.03,0,.04,0,.03-.01,.05-.02,.08-.01,.05-.03,.11-.06,.16-.03,.08,0,.2,.04,.27,.04,.07,.13,.14,.21,.16,.09,.02,.19,.02,.27-.04,.08-.05,.12-.12,.16-.21,.21-.5,.13-1.13-.19-1.57Z"/><path d="M11.2,4.05s.03,0,.04,0c.03,0,.06,.03,.11,.09,.28,.38,.35,.95,.17,1.38-.03,.08-.05,.1-.09,.12-.02,.01-.05,.02-.07,.02-.02,0-.04,0-.06,0-.02,0-.07-.04-.09-.07-.02-.03-.03-.08-.02-.1,.03-.06,.05-.12,.06-.19,0-.03,.02-.06,.02-.09,0,0,0-.03,0-.05h0s0-.02,0-.02c0-.02,0-.04,0-.04,0-.03,0-.06,0-.09,0-.06,0-.11,0-.17h0s0-.02,0-.02v-.03s-.02-.06-.03-.09c-.02-.06-.04-.12-.06-.17,0,0,0-.01-.01-.02-.01-.03-.03-.06-.04-.08-.03-.05-.06-.1-.1-.15,0,0-.02-.03-.01-.07,0-.05,.04-.1,.09-.13,.01,0,.04-.02,.07-.02m0-.2c-.06,0-.13,.02-.18,.05-.15,.09-.24,.32-.13,.48,.03,.04,.06,.09,.09,.13,.01,.02,.03,.05,.04,.07,0,0,0,0,0,.01,.02,.05,.03,.1,.05,.15,0,.03,.01,.05,.02,.08,0,0,0,.02,0,.03,0,.05,0,.1,0,.15,0,.03,0,.05,0,.08,0,0,0,.03,0,.04,0,.02,0,.03,0,.04,0,.03-.01,.05-.02,.08-.01,.05-.03,.11-.06,.16-.03,.08,0,.2,.04,.27,.04,.07,.13,.14,.21,.16,.03,0,.07,.01,.1,.01,.06,0,.12-.01,.17-.05,.08-.05,.12-.12,.16-.21,.21-.5,.13-1.13-.19-1.57-.06-.08-.12-.14-.21-.16-.03,0-.06-.01-.09-.01h0Z"/></g></g><g><g><path class="cls-5" d="M6.4,6.07c-.06-.05-.13-.1-.2-.13s-.17-.03-.23,.02c-.04,.03-.07,.08-.09,.13-.09,.2-.16,.43-.11,.64s.25,.41,.47,.39c.18-.01,.33-.16,.51-.22,.19-.06,.39,0,.58,0,.18,.01,.59,.03,.73-.11,.21-.2-.16-.2-.28-.21-.5-.04-.98-.22-1.38-.52Z"/><path d="M6.1,6.12s.02,0,.04,0c.04,.02,.08,.05,.13,.09l.02,.02c.29,.23,.63,.39,1,.49-.02,0-.05,0-.07,0-.09-.01-.17-.02-.26-.02s-.18,.01-.26,.04c-.09,.03-.18,.08-.25,.12-.08,.05-.15,.09-.22,.09h-.01c-.1,0-.22-.11-.25-.24-.03-.14,0-.31,.09-.52,.02-.04,.03-.05,.03-.05,0,0,0,0,0,0m0-.2s-.09,.01-.12,.04c-.04,.03-.07,.08-.09,.13-.09,.2-.16,.43-.11,.64,.05,.21,.23,.39,.44,.39,0,0,.02,0,.03,0,.18-.01,.33-.16,.51-.22,.06-.02,.13-.03,.2-.03,.13,0,.25,.02,.38,.03,.05,0,.13,0,.21,0,.19,0,.42-.02,.52-.12,.21-.2-.16-.2-.28-.21-.5-.04-.98-.22-1.38-.52-.06-.05-.13-.1-.2-.13-.03-.01-.07-.02-.11-.02h0Z"/></g><g><path class="cls-3" d="M6.35,7.74c.18,.47,.65,.76,1.09,1.02,.06,.03,.12,.07,.19,.06-.04-.43-.09-.87-.13-1.3-.02-.21-.04-.42-.1-.62,0-.03-.02-.07-.05-.09-.03-.02-.07-.02-.1-.02-.23,0-.77-.14-.94,.07s-.05,.67,.03,.88Z"/><path d="M6.69,6.94c.11,0,.23,.01,.34,.03,.07,0,.13,.02,.19,.02,.05,.18,.07,.37,.08,.56l.1,.97c-.39-.23-.73-.48-.87-.84-.09-.23-.14-.58-.06-.68,0,0,.04-.05,.22-.05m0-.2c-.16,0-.3,.03-.38,.12-.16,.2-.05,.67,.03,.88,.18,.47,.65,.76,1.09,1.02,.05,.03,.11,.06,.18,.06,0,0,0,0,.01,0-.04-.43-.09-.87-.13-1.3-.02-.21-.04-.42-.1-.62,0-.03-.02-.07-.05-.09-.03-.02-.07-.02-.1-.02-.13,0-.36-.05-.56-.05h0Z"/></g><g><path class="cls-3" d="M8.38,8.71c-.07,.1-.15,.19-.26,.25s-.24,.07-.35,.02c-.19-.09-.25-.32-.3-.52-.04-.21-.08-.41-.12-.62-.04-.18-.07-.37,.02-.53,.09-.16,.28-.23,.46-.27,.18-.03,.36-.04,.53,0,.39,.1,.44,.31,.36,.66s-.14,.71-.35,1.01Z"/><path d="M8.1,7.21h0c.07,0,.14,0,.21,.03,.25,.07,.29,.13,.22,.43l-.02,.09c-.07,.31-.13,.61-.3,.85-.06,.09-.13,.15-.19,.19-.04,.02-.08,.03-.12,.03-.02,0-.05,0-.07-.01-.1-.05-.15-.22-.18-.38l-.12-.62c-.03-.15-.05-.3,0-.39,.06-.1,.21-.15,.33-.17,.09-.02,.17-.02,.24-.02m0-.2c-.09,0-.19,.01-.28,.03-.18,.04-.37,.11-.46,.27-.09,.16-.06,.35-.02,.53l.12,.62c.04,.2,.1,.44,.3,.52,.05,.02,.09,.03,.14,.03,.07,0,.14-.02,.21-.05,.11-.06,.19-.15,.26-.25,.21-.3,.27-.66,.35-1.01,.08-.35,.03-.55-.36-.66-.08-.02-.17-.03-.26-.03h0Z"/></g><g><path class="cls-5" d="M8.74,6.22c.05-.13,.06-.27,.15-.37,.11-.14,.33-.16,.49-.08s.26,.24,.32,.41c.1,.28,.08,.6-.02,.89-.09,.28-.32,.56-.61,.54-.12,0-.23-.07-.34-.13-.17-.09-.34-.19-.52-.24s-.39-.05-.56,.04c-.17,.09-.28,.28-.26,.47-.2-.29-.31-.88,.13-1,.24-.06,.48,0,.73-.09,.21-.08,.4-.22,.49-.44Z"/><path d="M9.18,5.92s.08,0,.11,.03c.13,.07,.2,.21,.23,.3,.08,.22,.07,.49-.02,.76-.07,.2-.22,.41-.39,.41,0,0-.01,0-.02,0-.08,0-.17-.06-.26-.11-.18-.1-.36-.2-.57-.26-.1-.03-.2-.04-.29-.04-.15,0-.29,.03-.41,.1-.05,.03-.1,.06-.14,.1,0-.06,0-.11,.02-.15,.02-.06,.07-.1,.14-.12,.09-.02,.18-.02,.28-.03,.14,0,.3,0,.46-.07,.29-.11,.51-.3,.6-.55,.02-.05,.03-.1,.05-.15,.02-.07,.04-.14,.07-.17,.03-.03,.08-.05,.14-.05m0-.2c-.11,0-.22,.04-.29,.12-.09,.1-.1,.25-.15,.37-.09,.21-.28,.36-.49,.44-.24,.09-.48,.03-.73,.09-.44,.11-.33,.71-.13,1-.02-.19,.09-.38,.26-.47,.1-.05,.21-.07,.32-.07,.08,0,.16,.01,.24,.03,.19,.05,.36,.15,.52,.24,.11,.06,.22,.12,.34,.13,0,0,.02,0,.03,0,.28,0,.49-.27,.58-.54,.1-.28,.12-.6,.02-.89-.06-.17-.16-.33-.32-.41-.06-.03-.13-.05-.2-.05h0Z"/></g><g><path class="cls-5" d="M7.64,5.98s-.09,.05-.13,.05c-.07,0-.11-.07-.15-.12-.1-.13-.26-.21-.43-.24s-.33-.02-.5,0c-.07,0-.14,.01-.18,.06-.04,.04-.04,.11-.02,.16s.06,.1,.1,.14c.08,.08,.17,.15,.26,.22,.31,.2,.68,.29,1.04,.36,.12,.02,.34,.11,.43,0,.09-.1,.04-.29,0-.4-.07-.16-.24-.31-.42-.23Z"/><path d="M6.71,5.85c.07,0,.13,0,.19,.01,.08,.01,.22,.05,.3,.16v.02c.06,.06,.14,.18,.29,.18h.01s0,0,0,0c.08,0,.15-.03,.19-.06,0,0,.01,0,.02-.01,0,0,.02,0,.02,0,.04,0,.11,.06,.14,.13,.03,.08,.04,.15,.04,.18,0,0,0,0,0,0-.04,0-.11-.02-.16-.03-.03,0-.06-.02-.09-.02-.34-.06-.69-.15-.97-.33-.08-.05-.16-.12-.23-.19,0,0-.02-.02-.03-.03,0,0,0,0,0,0,.09,0,.18-.01,.26-.01m0-.2c-.09,0-.19,0-.28,.01-.07,0-.14,.01-.18,.06-.04,.04-.04,.11-.02,.16s.06,.1,.1,.14c.08,.08,.17,.15,.26,.22,.31,.2,.68,.29,1.04,.36,.07,.01,.19,.05,.29,.05,.06,0,.11-.01,.15-.05,.09-.1,.04-.29,0-.4-.05-.13-.18-.25-.32-.25-.03,0-.07,0-.1,.02-.04,.02-.08,.05-.13,.05,0,0,0,0,0,0-.07,0-.11-.07-.15-.12-.1-.13-.26-.21-.43-.24-.07-.01-.15-.02-.22-.02h0Z"/></g><g><path class="cls-5" d="M7.47,5.67c.1-.04,.22-.05,.32-.02,.07,.02,.15,.05,.22,.04,.12-.02,.19-.14,.23-.25s.06-.24,.13-.33c.07-.09,.17-.14,.28-.14s.21,.06,.28,.15c.08,.11,.09,.27,.05,.4s-.1,.26-.14,.39c-.05,.14-.09,.3-.16,.43-.12,.21-.35,.34-.58,.36-.03,0-.07,0-.09-.03-.01-.02-.02-.04-.02-.07,0-.07,0-.15,0-.22,0-.08,0-.17-.07-.22-.03-.02-.06-.03-.1-.04-.11-.02-.21,0-.32,0-.1-.01-.23-.09-.24-.21,0-.11,.12-.21,.21-.25Z"/><path d="M8.65,4.97v.2s.1,.03,.12,.06c.04,.05,.05,.14,.02,.24-.02,.07-.05,.15-.08,.23-.02,.05-.04,.09-.05,.14-.02,.05-.03,.09-.05,.14-.03,.09-.06,.18-.1,.26-.07,.12-.19,.21-.33,.25v-.11c0-.08,0-.25-.14-.36-.05-.04-.11-.07-.19-.08-.04,0-.08-.01-.13-.01-.03,0-.06,0-.09,0-.02,0-.05,0-.07,0-.01,0-.03,0-.04,0-.02,0-.04-.01-.05-.02,.02-.02,.05-.04,.08-.06,.03-.01,.07-.02,.11-.02,.03,0,.06,0,.09,.01,.01,0,.03,0,.04,.01,.05,.02,.12,.03,.19,.03,.02,0,.04,0,.07,0,.17-.03,.31-.17,.38-.38,.01-.03,.02-.07,.03-.1,.02-.07,.04-.13,.07-.17,.03-.04,.07-.06,.12-.06v-.2m0,0c-.11,0-.21,.05-.28,.14-.07,.09-.09,.22-.13,.33-.04,.11-.11,.23-.23,.25-.01,0-.02,0-.03,0-.06,0-.13-.03-.19-.04-.04-.01-.09-.02-.14-.02-.06,0-.13,.01-.19,.04-.09,.04-.21,.14-.21,.25,0,.11,.14,.19,.24,.21,.02,0,.04,0,.06,0,.06,0,.11,0,.17,0,.03,0,.06,0,.09,0,.03,0,.07,.02,.1,.04,.06,.05,.07,.14,.07,.22,0,.07,0,.15,0,.22,0,.02,0,.05,.02,.07,.02,.02,.05,.03,.07,.03,0,0,.01,0,.02,0,.24-.02,.46-.16,.58-.36,.08-.13,.11-.28,.16-.43,.05-.13,.11-.26,.14-.39,.03-.14,.03-.29-.05-.4-.06-.09-.17-.14-.28-.15,0,0,0,0,0,0h0Z"/></g></g></g></g></svg>